<svg width="3064" height="2420" viewBox="0 0 3064 2420" fill="none" xmlns="http://www.w3.org/2000/svg">
<path d="M1129.85 2420C1131.97 2420 1133.68 2418.29 1133.68 2416.17C1133.68 2414.06 1131.97 2412.34 1129.85 2412.34C1127.73 2412.34 1126.02 2414.06 1126.02 2416.17C1126.02 2418.29 1127.73 2420 1129.85 2420Z" fill="#BDBDBD" fill-opacity="0.25"/>
<path d="M968.99 2420C971.105 2420 972.82 2418.29 972.82 2416.17C972.82 2414.06 971.105 2412.34 968.99 2412.34C966.875 2412.34 965.16 2414.06 965.16 2416.17C965.16 2418.29 966.875 2420 968.99 2420Z" fill="#BDBDBD" fill-opacity="0.25"/>
<path d="M3.83 2420C5.94525 2420 7.66 2418.29 7.66 2416.17C7.66 2414.06 5.94525 2412.34 3.83 2412.34C1.71475 2412.34 0 2414.06 0 2416.17C0 2418.29 1.71475 2420 3.83 2420Z" fill="#BDBDBD" fill-opacity="0.25"/>
<path d="M1129.85 2259.18C1131.97 2259.18 1133.68 2257.46 1133.68 2255.35C1133.68 2253.23 1131.97 2251.52 1129.85 2251.52C1127.73 2251.52 1126.02 2253.23 1126.02 2255.35C1126.02 2257.46 1127.73 2259.18 1129.85 2259.18Z" fill="#BDBDBD" fill-opacity="0.25"/>
<path d="M647.27 2259.18C649.385 2259.18 651.1 2257.46 651.1 2255.35C651.1 2253.23 649.385 2251.52 647.27 2251.52C645.155 2251.52 643.44 2253.23 643.44 2255.35C643.44 2257.46 645.155 2259.18 647.27 2259.18Z" fill="#BDBDBD" fill-opacity="0.25"/>
<path d="M325.55 2259.18C327.665 2259.18 329.38 2257.46 329.38 2255.35C329.38 2253.23 327.665 2251.52 325.55 2251.52C323.435 2251.52 321.72 2253.23 321.72 2255.35C321.72 2257.46 323.435 2259.18 325.55 2259.18Z" fill="#BDBDBD" fill-opacity="0.25"/>
<path d="M2255.87 2098.35C2257.99 2098.35 2259.7 2096.64 2259.7 2094.53C2259.7 2092.41 2257.99 2090.7 2255.87 2090.7C2253.75 2090.7 2252.04 2092.41 2252.04 2094.53C2252.04 2096.64 2253.75 2098.35 2255.87 2098.35Z" fill="#BDBDBD" fill-opacity="0.25"/>
<path d="M2095.01 2098.35C2097.13 2098.35 2098.84 2096.64 2098.84 2094.53C2098.84 2092.41 2097.13 2090.7 2095.01 2090.7C2092.89 2090.7 2091.18 2092.41 2091.18 2094.53C2091.18 2096.64 2092.89 2098.35 2095.01 2098.35Z" fill="#BDBDBD" fill-opacity="0.25"/>
<path d="M1612.43 2098.35C1614.55 2098.35 1616.26 2096.64 1616.26 2094.53C1616.26 2092.41 1614.55 2090.7 1612.43 2090.7C1610.31 2090.7 1608.6 2092.41 1608.6 2094.53C1608.6 2096.64 1610.31 2098.35 1612.43 2098.35Z" fill="#BDBDBD" fill-opacity="0.25"/>
<path d="M1451.57 2098.35C1453.69 2098.35 1455.4 2096.64 1455.4 2094.53C1455.4 2092.41 1453.69 2090.7 1451.57 2090.7C1449.45 2090.7 1447.74 2092.41 1447.74 2094.53C1447.74 2096.64 1449.45 2098.35 1451.57 2098.35Z" fill="#BDBDBD" fill-opacity="0.25"/>
<path d="M1290.71 2098.35C1292.83 2098.35 1294.54 2096.64 1294.54 2094.53C1294.54 2092.41 1292.83 2090.7 1290.71 2090.7C1288.59 2090.7 1286.88 2092.41 1286.88 2094.53C1286.88 2096.64 1288.59 2098.35 1290.71 2098.35Z" fill="#BDBDBD" fill-opacity="0.25"/>
<path d="M1129.85 2098.35C1131.97 2098.35 1133.68 2096.64 1133.68 2094.53C1133.68 2092.41 1131.97 2090.7 1129.85 2090.7C1127.73 2090.7 1126.02 2092.41 1126.02 2094.53C1126.02 2096.64 1127.73 2098.35 1129.85 2098.35Z" fill="#BDBDBD" fill-opacity="0.25"/>
<path d="M968.99 2098.35C971.105 2098.35 972.82 2096.64 972.82 2094.53C972.82 2092.41 971.105 2090.7 968.99 2090.7C966.875 2090.7 965.16 2092.41 965.16 2094.53C965.16 2096.64 966.875 2098.35 968.99 2098.35Z" fill="#BDBDBD" fill-opacity="0.25"/>
<path d="M808.13 2098.35C810.245 2098.35 811.96 2096.64 811.96 2094.53C811.96 2092.41 810.245 2090.7 808.13 2090.7C806.015 2090.7 804.3 2092.41 804.3 2094.53C804.3 2096.64 806.015 2098.35 808.13 2098.35Z" fill="#BDBDBD" fill-opacity="0.25"/>
<path d="M647.27 2098.35C649.385 2098.35 651.1 2096.64 651.1 2094.53C651.1 2092.41 649.385 2090.7 647.27 2090.7C645.155 2090.7 643.44 2092.41 643.44 2094.53C643.44 2096.64 645.155 2098.35 647.27 2098.35Z" fill="#BDBDBD" fill-opacity="0.25"/>
<path d="M325.55 2098.35C327.665 2098.35 329.38 2096.64 329.38 2094.53C329.38 2092.41 327.665 2090.7 325.55 2090.7C323.435 2090.7 321.72 2092.41 321.72 2094.53C321.72 2096.64 323.435 2098.35 325.55 2098.35Z" fill="#BDBDBD" fill-opacity="0.25"/>
<path d="M164.69 2098.35C166.805 2098.35 168.52 2096.64 168.52 2094.53C168.52 2092.41 166.805 2090.7 164.69 2090.7C162.575 2090.7 160.86 2092.41 160.86 2094.53C160.86 2096.64 162.575 2098.35 164.69 2098.35Z" fill="#BDBDBD" fill-opacity="0.25"/>
<path d="M2255.87 1937.53C2257.99 1937.53 2259.7 1935.82 2259.7 1933.7C2259.7 1931.59 2257.99 1929.87 2255.87 1929.87C2253.75 1929.87 2252.04 1931.59 2252.04 1933.7C2252.04 1935.82 2253.75 1937.53 2255.87 1937.53Z" fill="#BDBDBD" fill-opacity="0.25"/>
<path d="M2095.01 1937.53C2097.13 1937.53 2098.84 1935.82 2098.84 1933.7C2098.84 1931.59 2097.13 1929.87 2095.01 1929.87C2092.89 1929.87 2091.18 1931.59 2091.18 1933.7C2091.18 1935.82 2092.89 1937.53 2095.01 1937.53Z" fill="#BDBDBD" fill-opacity="0.25"/>
<path d="M1934.15 1937.53C1936.27 1937.53 1937.98 1935.82 1937.98 1933.7C1937.98 1931.59 1936.27 1929.87 1934.15 1929.87C1932.03 1929.87 1930.32 1931.59 1930.32 1933.7C1930.32 1935.82 1932.03 1937.53 1934.15 1937.53Z" fill="#BDBDBD" fill-opacity="0.25"/>
<path d="M1773.29 1937.53C1775.41 1937.53 1777.12 1935.82 1777.12 1933.7C1777.12 1931.59 1775.41 1929.87 1773.29 1929.87C1771.17 1929.87 1769.46 1931.59 1769.46 1933.7C1769.46 1935.82 1771.17 1937.53 1773.29 1937.53Z" fill="#BDBDBD" fill-opacity="0.25"/>
<path d="M1612.43 1937.53C1614.55 1937.53 1616.26 1935.82 1616.26 1933.7C1616.26 1931.59 1614.55 1929.87 1612.43 1929.87C1610.31 1929.87 1608.6 1931.59 1608.6 1933.7C1608.6 1935.82 1610.31 1937.53 1612.43 1937.53Z" fill="#BDBDBD" fill-opacity="0.25"/>
<path d="M1451.57 1937.53C1453.69 1937.53 1455.4 1935.82 1455.4 1933.7C1455.4 1931.59 1453.69 1929.87 1451.57 1929.87C1449.45 1929.87 1447.74 1931.59 1447.74 1933.7C1447.74 1935.82 1449.45 1937.53 1451.57 1937.53Z" fill="#BDBDBD" fill-opacity="0.25"/>
<path d="M1290.71 1937.53C1292.83 1937.53 1294.54 1935.82 1294.54 1933.7C1294.54 1931.59 1292.83 1929.87 1290.71 1929.87C1288.59 1929.87 1286.88 1931.59 1286.88 1933.7C1286.88 1935.82 1288.59 1937.53 1290.71 1937.53Z" fill="#BDBDBD" fill-opacity="0.25"/>
<path d="M1129.85 1937.53C1131.97 1937.53 1133.68 1935.82 1133.68 1933.7C1133.68 1931.59 1131.97 1929.87 1129.85 1929.87C1127.73 1929.87 1126.02 1931.59 1126.02 1933.7C1126.02 1935.82 1127.73 1937.53 1129.85 1937.53Z" fill="#BDBDBD" fill-opacity="0.25"/>
<path d="M968.99 1937.53C971.105 1937.53 972.82 1935.82 972.82 1933.7C972.82 1931.59 971.105 1929.87 968.99 1929.87C966.875 1929.87 965.16 1931.59 965.16 1933.7C965.16 1935.82 966.875 1937.53 968.99 1937.53Z" fill="#BDBDBD" fill-opacity="0.25"/>
<path d="M808.13 1937.53C810.245 1937.53 811.96 1935.82 811.96 1933.7C811.96 1931.59 810.245 1929.87 808.13 1929.87C806.015 1929.87 804.3 1931.59 804.3 1933.7C804.3 1935.82 806.015 1937.53 808.13 1937.53Z" fill="#BDBDBD" fill-opacity="0.25"/>
<path d="M647.27 1937.53C649.385 1937.53 651.1 1935.82 651.1 1933.7C651.1 1931.59 649.385 1929.87 647.27 1929.87C645.155 1929.87 643.44 1931.59 643.44 1933.7C643.44 1935.82 645.155 1937.53 647.27 1937.53Z" fill="#BDBDBD" fill-opacity="0.25"/>
<path d="M486.41 1937.53C488.525 1937.53 490.24 1935.82 490.24 1933.7C490.24 1931.59 488.525 1929.87 486.41 1929.87C484.295 1929.87 482.58 1931.59 482.58 1933.7C482.58 1935.82 484.295 1937.53 486.41 1937.53Z" fill="#BDBDBD" fill-opacity="0.25"/>
<path d="M325.55 1937.53C327.665 1937.53 329.38 1935.82 329.38 1933.7C329.38 1931.59 327.665 1929.87 325.55 1929.87C323.435 1929.87 321.72 1931.59 321.72 1933.7C321.72 1935.82 323.435 1937.53 325.55 1937.53Z" fill="#BDBDBD" fill-opacity="0.25"/>
<path d="M164.69 1937.53C166.805 1937.53 168.52 1935.82 168.52 1933.7C168.52 1931.59 166.805 1929.87 164.69 1929.87C162.575 1929.87 160.86 1931.59 160.86 1933.7C160.86 1935.82 162.575 1937.53 164.69 1937.53Z" fill="#BDBDBD" fill-opacity="0.25"/>
<path d="M2899.31 1776.71C2901.43 1776.71 2903.14 1774.99 2903.14 1772.88C2903.14 1770.76 2901.43 1769.05 2899.31 1769.05C2897.19 1769.05 2895.48 1770.76 2895.48 1772.88C2895.48 1774.99 2897.19 1776.71 2899.31 1776.71Z" fill="#BDBDBD" fill-opacity="0.25"/>
<path d="M2738.45 1776.71C2740.57 1776.71 2742.28 1774.99 2742.28 1772.88C2742.28 1770.76 2740.57 1769.05 2738.45 1769.05C2736.33 1769.05 2734.62 1770.76 2734.62 1772.88C2734.62 1774.99 2736.33 1776.71 2738.45 1776.71Z" fill="#BDBDBD" fill-opacity="0.25"/>
<path d="M2577.59 1776.71C2579.71 1776.71 2581.42 1774.99 2581.42 1772.88C2581.42 1770.76 2579.71 1769.05 2577.59 1769.05C2575.47 1769.05 2573.76 1770.76 2573.76 1772.88C2573.76 1774.99 2575.47 1776.71 2577.59 1776.71Z" fill="#BDBDBD" fill-opacity="0.25"/>
<path d="M2416.73 1776.71C2418.85 1776.71 2420.56 1774.99 2420.56 1772.88C2420.56 1770.76 2418.85 1769.05 2416.73 1769.05C2414.61 1769.05 2412.9 1770.76 2412.9 1772.88C2412.9 1774.99 2414.61 1776.71 2416.73 1776.71Z" fill="#BDBDBD" fill-opacity="0.25"/>
<path d="M2255.87 1776.71C2257.99 1776.71 2259.7 1774.99 2259.7 1772.88C2259.7 1770.76 2257.99 1769.05 2255.87 1769.05C2253.75 1769.05 2252.04 1770.76 2252.04 1772.88C2252.04 1774.99 2253.75 1776.71 2255.87 1776.71Z" fill="#BDBDBD" fill-opacity="0.25"/>
<path d="M2095.01 1776.71C2097.13 1776.71 2098.84 1774.99 2098.84 1772.88C2098.84 1770.76 2097.13 1769.05 2095.01 1769.05C2092.89 1769.05 2091.18 1770.76 2091.18 1772.88C2091.18 1774.99 2092.89 1776.71 2095.01 1776.71Z" fill="#BDBDBD" fill-opacity="0.25"/>
<path d="M1934.15 1776.71C1936.27 1776.71 1937.98 1774.99 1937.98 1772.88C1937.98 1770.76 1936.27 1769.05 1934.15 1769.05C1932.03 1769.05 1930.32 1770.76 1930.32 1772.88C1930.32 1774.99 1932.03 1776.71 1934.15 1776.71Z" fill="#BDBDBD" fill-opacity="0.25"/>
<path d="M1773.29 1776.71C1775.41 1776.71 1777.12 1774.99 1777.12 1772.88C1777.12 1770.76 1775.41 1769.05 1773.29 1769.05C1771.17 1769.05 1769.46 1770.76 1769.46 1772.88C1769.46 1774.99 1771.17 1776.71 1773.29 1776.71Z" fill="#BDBDBD" fill-opacity="0.25"/>
<path d="M1612.43 1776.71C1614.55 1776.71 1616.26 1774.99 1616.26 1772.88C1616.26 1770.76 1614.55 1769.05 1612.43 1769.05C1610.31 1769.05 1608.6 1770.76 1608.6 1772.88C1608.6 1774.99 1610.31 1776.71 1612.43 1776.71Z" fill="#BDBDBD" fill-opacity="0.25"/>
<path d="M1451.57 1776.71C1453.69 1776.71 1455.4 1774.99 1455.4 1772.88C1455.4 1770.76 1453.69 1769.05 1451.57 1769.05C1449.45 1769.05 1447.74 1770.76 1447.74 1772.88C1447.74 1774.99 1449.45 1776.71 1451.57 1776.71Z" fill="#BDBDBD" fill-opacity="0.25"/>
<path d="M1290.71 1776.71C1292.83 1776.71 1294.54 1774.99 1294.54 1772.88C1294.54 1770.76 1292.83 1769.05 1290.71 1769.05C1288.59 1769.05 1286.88 1770.76 1286.88 1772.88C1286.88 1774.99 1288.59 1776.71 1290.71 1776.71Z" fill="#BDBDBD" fill-opacity="0.25"/>
<path d="M1129.85 1776.71C1131.97 1776.71 1133.68 1774.99 1133.68 1772.88C1133.68 1770.76 1131.97 1769.05 1129.85 1769.05C1127.73 1769.05 1126.02 1770.76 1126.02 1772.88C1126.02 1774.99 1127.73 1776.71 1129.85 1776.71Z" fill="#BDBDBD" fill-opacity="0.25"/>
<path d="M968.99 1776.71C971.105 1776.71 972.82 1774.99 972.82 1772.88C972.82 1770.76 971.105 1769.05 968.99 1769.05C966.875 1769.05 965.16 1770.76 965.16 1772.88C965.16 1774.99 966.875 1776.71 968.99 1776.71Z" fill="#BDBDBD" fill-opacity="0.25"/>
<path d="M808.13 1776.71C810.245 1776.71 811.96 1774.99 811.96 1772.88C811.96 1770.76 810.245 1769.05 808.13 1769.05C806.015 1769.05 804.3 1770.76 804.3 1772.88C804.3 1774.99 806.015 1776.71 808.13 1776.71Z" fill="#BDBDBD" fill-opacity="0.25"/>
<path d="M647.27 1776.71C649.385 1776.71 651.1 1774.99 651.1 1772.88C651.1 1770.76 649.385 1769.05 647.27 1769.05C645.155 1769.05 643.44 1770.76 643.44 1772.88C643.44 1774.99 645.155 1776.71 647.27 1776.71Z" fill="#BDBDBD" fill-opacity="0.25"/>
<path d="M486.41 1776.71C488.525 1776.71 490.24 1774.99 490.24 1772.88C490.24 1770.76 488.525 1769.05 486.41 1769.05C484.295 1769.05 482.58 1770.76 482.58 1772.88C482.58 1774.99 484.295 1776.71 486.41 1776.71Z" fill="#BDBDBD" fill-opacity="0.25"/>
<path d="M164.69 1776.71C166.805 1776.71 168.52 1774.99 168.52 1772.88C168.52 1770.76 166.805 1769.05 164.69 1769.05C162.575 1769.05 160.86 1770.76 160.86 1772.88C160.86 1774.99 162.575 1776.71 164.69 1776.71Z" fill="#BDBDBD" fill-opacity="0.25"/>
<path d="M2738.45 1615.89C2740.57 1615.89 2742.28 1614.17 2742.28 1612.06C2742.28 1609.94 2740.57 1608.23 2738.45 1608.23C2736.33 1608.23 2734.62 1609.94 2734.62 1612.06C2734.62 1614.17 2736.33 1615.89 2738.45 1615.89Z" fill="#BDBDBD" fill-opacity="0.25"/>
<path d="M2577.59 1615.89C2579.71 1615.89 2581.42 1614.17 2581.42 1612.06C2581.42 1609.94 2579.71 1608.23 2577.59 1608.23C2575.47 1608.23 2573.76 1609.94 2573.76 1612.06C2573.76 1614.17 2575.47 1615.89 2577.59 1615.89Z" fill="#BDBDBD" fill-opacity="0.25"/>
<path d="M2416.73 1615.89C2418.85 1615.89 2420.56 1614.17 2420.56 1612.06C2420.56 1609.94 2418.85 1608.23 2416.73 1608.23C2414.61 1608.23 2412.9 1609.94 2412.9 1612.06C2412.9 1614.17 2414.61 1615.89 2416.73 1615.89Z" fill="#BDBDBD" fill-opacity="0.25"/>
<path d="M2255.87 1615.89C2257.99 1615.89 2259.7 1614.17 2259.7 1612.06C2259.7 1609.94 2257.99 1608.23 2255.87 1608.23C2253.75 1608.23 2252.04 1609.94 2252.04 1612.06C2252.04 1614.17 2253.75 1615.89 2255.87 1615.89Z" fill="#BDBDBD" fill-opacity="0.25"/>
<path d="M2095.01 1615.89C2097.13 1615.89 2098.84 1614.17 2098.84 1612.06C2098.84 1609.94 2097.13 1608.23 2095.01 1608.23C2092.89 1608.23 2091.18 1609.94 2091.18 1612.06C2091.18 1614.17 2092.89 1615.89 2095.01 1615.89Z" fill="#BDBDBD" fill-opacity="0.25"/>
<path d="M1934.15 1615.89C1936.27 1615.89 1937.98 1614.17 1937.98 1612.06C1937.98 1609.94 1936.27 1608.23 1934.15 1608.23C1932.03 1608.23 1930.32 1609.94 1930.32 1612.06C1930.32 1614.17 1932.03 1615.89 1934.15 1615.89Z" fill="#BDBDBD" fill-opacity="0.25"/>
<path d="M1773.29 1615.89C1775.41 1615.89 1777.12 1614.17 1777.12 1612.06C1777.12 1609.94 1775.41 1608.23 1773.29 1608.23C1771.17 1608.23 1769.46 1609.94 1769.46 1612.06C1769.46 1614.17 1771.17 1615.89 1773.29 1615.89Z" fill="#BDBDBD" fill-opacity="0.25"/>
<path d="M1612.43 1615.89C1614.55 1615.89 1616.26 1614.17 1616.26 1612.06C1616.26 1609.94 1614.55 1608.23 1612.43 1608.23C1610.31 1608.23 1608.6 1609.94 1608.6 1612.06C1608.6 1614.17 1610.31 1615.89 1612.43 1615.89Z" fill="#BDBDBD" fill-opacity="0.25"/>
<path d="M1451.57 1615.89C1453.69 1615.89 1455.4 1614.17 1455.4 1612.06C1455.4 1609.94 1453.69 1608.23 1451.57 1608.23C1449.45 1608.23 1447.74 1609.94 1447.74 1612.06C1447.74 1614.17 1449.45 1615.89 1451.57 1615.89Z" fill="#BDBDBD" fill-opacity="0.25"/>
<path d="M1290.71 1615.89C1292.83 1615.89 1294.54 1614.17 1294.54 1612.06C1294.54 1609.94 1292.83 1608.23 1290.71 1608.23C1288.59 1608.23 1286.88 1609.94 1286.88 1612.06C1286.88 1614.17 1288.59 1615.89 1290.71 1615.89Z" fill="#BDBDBD" fill-opacity="0.25"/>
<path d="M1129.85 1615.89C1131.97 1615.89 1133.68 1614.17 1133.68 1612.06C1133.68 1609.94 1131.97 1608.23 1129.85 1608.23C1127.73 1608.23 1126.02 1609.94 1126.02 1612.06C1126.02 1614.17 1127.73 1615.89 1129.85 1615.89Z" fill="#BDBDBD" fill-opacity="0.25"/>
<path d="M968.99 1615.89C971.105 1615.89 972.82 1614.17 972.82 1612.06C972.82 1609.94 971.105 1608.23 968.99 1608.23C966.875 1608.23 965.16 1609.94 965.16 1612.06C965.16 1614.17 966.875 1615.89 968.99 1615.89Z" fill="#BDBDBD" fill-opacity="0.25"/>
<path d="M808.13 1615.89C810.245 1615.89 811.96 1614.17 811.96 1612.06C811.96 1609.94 810.245 1608.23 808.13 1608.23C806.015 1608.23 804.3 1609.94 804.3 1612.06C804.3 1614.17 806.015 1615.89 808.13 1615.89Z" fill="#BDBDBD" fill-opacity="0.25"/>
<path d="M647.27 1615.89C649.385 1615.89 651.1 1614.17 651.1 1612.06C651.1 1609.94 649.385 1608.23 647.27 1608.23C645.155 1608.23 643.44 1609.94 643.44 1612.06C643.44 1614.17 645.155 1615.89 647.27 1615.89Z" fill="#BDBDBD" fill-opacity="0.25"/>
<path d="M486.41 1615.89C488.525 1615.89 490.24 1614.17 490.24 1612.06C490.24 1609.94 488.525 1608.23 486.41 1608.23C484.295 1608.23 482.58 1609.94 482.58 1612.06C482.58 1614.17 484.295 1615.89 486.41 1615.89Z" fill="#BDBDBD" fill-opacity="0.25"/>
<path d="M325.55 1615.89C327.665 1615.89 329.38 1614.17 329.38 1612.06C329.38 1609.94 327.665 1608.23 325.55 1608.23C323.435 1608.23 321.72 1609.94 321.72 1612.06C321.72 1614.17 323.435 1615.89 325.55 1615.89Z" fill="#BDBDBD" fill-opacity="0.25"/>
<path d="M3.83 1615.89C5.94525 1615.89 7.66 1614.17 7.66 1612.06C7.66 1609.94 5.94525 1608.23 3.83 1608.23C1.71475 1608.23 0 1609.94 0 1612.06C0 1614.17 1.71475 1615.89 3.83 1615.89Z" fill="#BDBDBD" fill-opacity="0.25"/>
<path d="M2738.45 1455.06C2740.57 1455.06 2742.28 1453.35 2742.28 1451.23C2742.28 1449.12 2740.57 1447.41 2738.45 1447.41C2736.33 1447.41 2734.62 1449.12 2734.62 1451.23C2734.62 1453.35 2736.33 1455.06 2738.45 1455.06Z" fill="#BDBDBD" fill-opacity="0.25"/>
<path d="M2577.59 1455.06C2579.71 1455.06 2581.42 1453.35 2581.42 1451.23C2581.42 1449.12 2579.71 1447.41 2577.59 1447.41C2575.47 1447.41 2573.76 1449.12 2573.76 1451.23C2573.76 1453.35 2575.47 1455.06 2577.59 1455.06Z" fill="#BDBDBD" fill-opacity="0.25"/>
<path d="M2416.73 1455.06C2418.85 1455.06 2420.56 1453.35 2420.56 1451.23C2420.56 1449.12 2418.85 1447.41 2416.73 1447.41C2414.61 1447.41 2412.9 1449.12 2412.9 1451.23C2412.9 1453.35 2414.61 1455.06 2416.73 1455.06Z" fill="#BDBDBD" fill-opacity="0.25"/>
<path d="M2255.87 1455.06C2257.99 1455.06 2259.7 1453.35 2259.7 1451.23C2259.7 1449.12 2257.99 1447.41 2255.87 1447.41C2253.75 1447.41 2252.04 1449.12 2252.04 1451.23C2252.04 1453.35 2253.75 1455.06 2255.87 1455.06Z" fill="#BDBDBD" fill-opacity="0.25"/>
<path d="M2095.01 1455.06C2097.13 1455.06 2098.84 1453.35 2098.84 1451.23C2098.84 1449.12 2097.13 1447.41 2095.01 1447.41C2092.89 1447.41 2091.18 1449.12 2091.18 1451.23C2091.18 1453.35 2092.89 1455.06 2095.01 1455.06Z" fill="#BDBDBD" fill-opacity="0.25"/>
<path d="M1934.15 1455.06C1936.27 1455.06 1937.98 1453.35 1937.98 1451.23C1937.98 1449.12 1936.27 1447.41 1934.15 1447.41C1932.03 1447.41 1930.32 1449.12 1930.32 1451.23C1930.32 1453.35 1932.03 1455.06 1934.15 1455.06Z" fill="#BDBDBD" fill-opacity="0.25"/>
<path d="M1773.29 1455.06C1775.41 1455.06 1777.12 1453.35 1777.12 1451.23C1777.12 1449.12 1775.41 1447.41 1773.29 1447.41C1771.17 1447.41 1769.46 1449.12 1769.46 1451.23C1769.46 1453.35 1771.17 1455.06 1773.29 1455.06Z" fill="#BDBDBD" fill-opacity="0.25"/>
<path d="M1612.43 1455.06C1614.55 1455.06 1616.26 1453.35 1616.26 1451.23C1616.26 1449.12 1614.55 1447.41 1612.43 1447.41C1610.31 1447.41 1608.6 1449.12 1608.6 1451.23C1608.6 1453.35 1610.31 1455.06 1612.43 1455.06Z" fill="#BDBDBD" fill-opacity="0.25"/>
<path d="M1451.57 1455.06C1453.69 1455.06 1455.4 1453.35 1455.4 1451.23C1455.4 1449.12 1453.69 1447.41 1451.57 1447.41C1449.45 1447.41 1447.74 1449.12 1447.74 1451.23C1447.74 1453.35 1449.45 1455.06 1451.57 1455.06Z" fill="#BDBDBD" fill-opacity="0.25"/>
<path d="M1290.71 1455.06C1292.83 1455.06 1294.54 1453.35 1294.54 1451.23C1294.54 1449.12 1292.83 1447.41 1290.71 1447.41C1288.59 1447.41 1286.88 1449.12 1286.88 1451.23C1286.88 1453.35 1288.59 1455.06 1290.71 1455.06Z" fill="#BDBDBD" fill-opacity="0.25"/>
<path d="M1129.85 1455.06C1131.97 1455.06 1133.68 1453.35 1133.68 1451.23C1133.68 1449.12 1131.97 1447.41 1129.85 1447.41C1127.73 1447.41 1126.02 1449.12 1126.02 1451.23C1126.02 1453.35 1127.73 1455.06 1129.85 1455.06Z" fill="#BDBDBD" fill-opacity="0.25"/>
<path d="M968.99 1455.06C971.105 1455.06 972.82 1453.35 972.82 1451.23C972.82 1449.12 971.105 1447.41 968.99 1447.41C966.875 1447.41 965.16 1449.12 965.16 1451.23C965.16 1453.35 966.875 1455.06 968.99 1455.06Z" fill="#BDBDBD" fill-opacity="0.25"/>
<path d="M808.13 1455.06C810.245 1455.06 811.96 1453.35 811.96 1451.23C811.96 1449.12 810.245 1447.41 808.13 1447.41C806.015 1447.41 804.3 1449.12 804.3 1451.23C804.3 1453.35 806.015 1455.06 808.13 1455.06Z" fill="#BDBDBD" fill-opacity="0.25"/>
<path d="M647.27 1455.06C649.385 1455.06 651.1 1453.35 651.1 1451.23C651.1 1449.12 649.385 1447.41 647.27 1447.41C645.155 1447.41 643.44 1449.12 643.44 1451.23C643.44 1453.35 645.155 1455.06 647.27 1455.06Z" fill="#BDBDBD" fill-opacity="0.25"/>
<path d="M486.41 1455.06C488.525 1455.06 490.24 1453.35 490.24 1451.23C490.24 1449.12 488.525 1447.41 486.41 1447.41C484.295 1447.41 482.58 1449.12 482.58 1451.23C482.58 1453.35 484.295 1455.06 486.41 1455.06Z" fill="#BDBDBD" fill-opacity="0.25"/>
<path d="M325.55 1455.06C327.665 1455.06 329.38 1453.35 329.38 1451.23C329.38 1449.12 327.665 1447.41 325.55 1447.41C323.435 1447.41 321.72 1449.12 321.72 1451.23C321.72 1453.35 323.435 1455.06 325.55 1455.06Z" fill="#BDBDBD" fill-opacity="0.25"/>
<path d="M164.69 1455.06C166.805 1455.06 168.52 1453.35 168.52 1451.23C168.52 1449.12 166.805 1447.41 164.69 1447.41C162.575 1447.41 160.86 1449.12 160.86 1451.23C160.86 1453.35 162.575 1455.06 164.69 1455.06Z" fill="#BDBDBD" fill-opacity="0.25"/>
<path d="M2899.31 1294.24C2901.43 1294.24 2903.14 1292.53 2903.14 1290.41C2903.14 1288.3 2901.43 1286.58 2899.31 1286.58C2897.19 1286.58 2895.48 1288.3 2895.48 1290.41C2895.48 1292.53 2897.19 1294.24 2899.31 1294.24Z" fill="#BDBDBD" fill-opacity="0.25"/>
<path d="M2738.45 1294.24C2740.57 1294.24 2742.28 1292.53 2742.28 1290.41C2742.28 1288.3 2740.57 1286.58 2738.45 1286.58C2736.33 1286.58 2734.62 1288.3 2734.62 1290.41C2734.62 1292.53 2736.33 1294.24 2738.45 1294.24Z" fill="#BDBDBD" fill-opacity="0.25"/>
<path d="M2577.59 1294.24C2579.71 1294.24 2581.42 1292.53 2581.42 1290.41C2581.42 1288.3 2579.71 1286.58 2577.59 1286.58C2575.47 1286.58 2573.76 1288.3 2573.76 1290.41C2573.76 1292.53 2575.47 1294.24 2577.59 1294.24Z" fill="#BDBDBD" fill-opacity="0.25"/>
<path d="M2416.73 1294.24C2418.85 1294.24 2420.56 1292.53 2420.56 1290.41C2420.56 1288.3 2418.85 1286.58 2416.73 1286.58C2414.61 1286.58 2412.9 1288.3 2412.9 1290.41C2412.9 1292.53 2414.61 1294.24 2416.73 1294.24Z" fill="#BDBDBD" fill-opacity="0.25"/>
<path d="M2255.87 1294.24C2257.99 1294.24 2259.7 1292.53 2259.7 1290.41C2259.7 1288.3 2257.99 1286.58 2255.87 1286.58C2253.75 1286.58 2252.04 1288.3 2252.04 1290.41C2252.04 1292.53 2253.75 1294.24 2255.87 1294.24Z" fill="#BDBDBD" fill-opacity="0.25"/>
<path d="M2095.01 1294.24C2097.13 1294.24 2098.84 1292.53 2098.84 1290.41C2098.84 1288.3 2097.13 1286.58 2095.01 1286.58C2092.89 1286.58 2091.18 1288.3 2091.18 1290.41C2091.18 1292.53 2092.89 1294.24 2095.01 1294.24Z" fill="#BDBDBD" fill-opacity="0.25"/>
<path d="M1934.15 1294.24C1936.27 1294.24 1937.98 1292.53 1937.98 1290.41C1937.98 1288.3 1936.27 1286.58 1934.15 1286.58C1932.03 1286.58 1930.32 1288.3 1930.32 1290.41C1930.32 1292.53 1932.03 1294.24 1934.15 1294.24Z" fill="#BDBDBD" fill-opacity="0.25"/>
<path d="M1773.29 1294.24C1775.41 1294.24 1777.12 1292.53 1777.12 1290.41C1777.12 1288.3 1775.41 1286.58 1773.29 1286.58C1771.17 1286.58 1769.46 1288.3 1769.46 1290.41C1769.46 1292.53 1771.17 1294.24 1773.29 1294.24Z" fill="#BDBDBD" fill-opacity="0.25"/>
<path d="M1612.43 1294.24C1614.55 1294.24 1616.26 1292.53 1616.26 1290.41C1616.26 1288.3 1614.55 1286.58 1612.43 1286.58C1610.31 1286.58 1608.6 1288.3 1608.6 1290.41C1608.6 1292.53 1610.31 1294.24 1612.43 1294.24Z" fill="#BDBDBD" fill-opacity="0.25"/>
<path d="M1451.57 1294.24C1453.69 1294.24 1455.4 1292.53 1455.4 1290.41C1455.4 1288.3 1453.69 1286.58 1451.57 1286.58C1449.45 1286.58 1447.74 1288.3 1447.74 1290.41C1447.74 1292.53 1449.45 1294.24 1451.57 1294.24Z" fill="#BDBDBD" fill-opacity="0.25"/>
<path d="M1290.71 1294.24C1292.83 1294.24 1294.54 1292.53 1294.54 1290.41C1294.54 1288.3 1292.83 1286.58 1290.71 1286.58C1288.59 1286.58 1286.88 1288.3 1286.88 1290.41C1286.88 1292.53 1288.59 1294.24 1290.71 1294.24Z" fill="#BDBDBD" fill-opacity="0.25"/>
<path d="M1129.85 1294.24C1131.97 1294.24 1133.68 1292.53 1133.68 1290.41C1133.68 1288.3 1131.97 1286.58 1129.85 1286.58C1127.73 1286.58 1126.02 1288.3 1126.02 1290.41C1126.02 1292.53 1127.73 1294.24 1129.85 1294.24Z" fill="#BDBDBD" fill-opacity="0.25"/>
<path d="M968.99 1294.24C971.105 1294.24 972.82 1292.53 972.82 1290.41C972.82 1288.3 971.105 1286.58 968.99 1286.58C966.875 1286.58 965.16 1288.3 965.16 1290.41C965.16 1292.53 966.875 1294.24 968.99 1294.24Z" fill="#BDBDBD" fill-opacity="0.25"/>
<path d="M808.13 1294.24C810.245 1294.24 811.96 1292.53 811.96 1290.41C811.96 1288.3 810.245 1286.58 808.13 1286.58C806.015 1286.58 804.3 1288.3 804.3 1290.41C804.3 1292.53 806.015 1294.24 808.13 1294.24Z" fill="#BDBDBD" fill-opacity="0.25"/>
<path d="M647.27 1294.24C649.385 1294.24 651.1 1292.53 651.1 1290.41C651.1 1288.3 649.385 1286.58 647.27 1286.58C645.155 1286.58 643.44 1288.3 643.44 1290.41C643.44 1292.53 645.155 1294.24 647.27 1294.24Z" fill="#BDBDBD" fill-opacity="0.25"/>
<path d="M486.41 1294.24C488.525 1294.24 490.24 1292.53 490.24 1290.41C490.24 1288.3 488.525 1286.58 486.41 1286.58C484.295 1286.58 482.58 1288.3 482.58 1290.41C482.58 1292.53 484.295 1294.24 486.41 1294.24Z" fill="#BDBDBD" fill-opacity="0.25"/>
<path d="M325.55 1294.24C327.665 1294.24 329.38 1292.53 329.38 1290.41C329.38 1288.3 327.665 1286.58 325.55 1286.58C323.435 1286.58 321.72 1288.3 321.72 1290.41C321.72 1292.53 323.435 1294.24 325.55 1294.24Z" fill="#BDBDBD" fill-opacity="0.25"/>
<path d="M2738.45 1133.42C2740.57 1133.42 2742.28 1131.7 2742.28 1129.59C2742.28 1127.47 2740.57 1125.76 2738.45 1125.76C2736.33 1125.76 2734.62 1127.47 2734.62 1129.59C2734.62 1131.7 2736.33 1133.42 2738.45 1133.42Z" fill="#BDBDBD" fill-opacity="0.25"/>
<path d="M2577.59 1133.42C2579.71 1133.42 2581.42 1131.7 2581.42 1129.59C2581.42 1127.47 2579.71 1125.76 2577.59 1125.76C2575.47 1125.76 2573.76 1127.47 2573.76 1129.59C2573.76 1131.7 2575.47 1133.42 2577.59 1133.42Z" fill="#BDBDBD" fill-opacity="0.25"/>
<path d="M2416.73 1133.42C2418.85 1133.42 2420.56 1131.7 2420.56 1129.59C2420.56 1127.47 2418.85 1125.76 2416.73 1125.76C2414.61 1125.76 2412.9 1127.47 2412.9 1129.59C2412.9 1131.7 2414.61 1133.42 2416.73 1133.42Z" fill="#BDBDBD" fill-opacity="0.25"/>
<path d="M1773.29 1133.42C1775.41 1133.42 1777.12 1131.7 1777.12 1129.59C1777.12 1127.47 1775.41 1125.76 1773.29 1125.76C1771.17 1125.76 1769.46 1127.47 1769.46 1129.59C1769.46 1131.7 1771.17 1133.42 1773.29 1133.42Z" fill="#BDBDBD" fill-opacity="0.25"/>
<path d="M1612.43 1133.42C1614.55 1133.42 1616.26 1131.7 1616.26 1129.59C1616.26 1127.47 1614.55 1125.76 1612.43 1125.76C1610.31 1125.76 1608.6 1127.47 1608.6 1129.59C1608.6 1131.7 1610.31 1133.42 1612.43 1133.42Z" fill="#BDBDBD" fill-opacity="0.25"/>
<path d="M1451.57 1133.42C1453.69 1133.42 1455.4 1131.7 1455.4 1129.59C1455.4 1127.47 1453.69 1125.76 1451.57 1125.76C1449.45 1125.76 1447.74 1127.47 1447.74 1129.59C1447.74 1131.7 1449.45 1133.42 1451.57 1133.42Z" fill="#BDBDBD" fill-opacity="0.25"/>
<path d="M1290.71 1133.42C1292.83 1133.42 1294.54 1131.7 1294.54 1129.59C1294.54 1127.47 1292.83 1125.76 1290.71 1125.76C1288.59 1125.76 1286.88 1127.47 1286.88 1129.59C1286.88 1131.7 1288.59 1133.42 1290.71 1133.42Z" fill="#BDBDBD" fill-opacity="0.25"/>
<path d="M1129.85 1133.42C1131.97 1133.42 1133.68 1131.7 1133.68 1129.59C1133.68 1127.47 1131.97 1125.76 1129.85 1125.76C1127.73 1125.76 1126.02 1127.47 1126.02 1129.59C1126.02 1131.7 1127.73 1133.42 1129.85 1133.42Z" fill="#BDBDBD" fill-opacity="0.25"/>
<path d="M968.99 1133.42C971.105 1133.42 972.82 1131.7 972.82 1129.59C972.82 1127.47 971.105 1125.76 968.99 1125.76C966.875 1125.76 965.16 1127.47 965.16 1129.59C965.16 1131.7 966.875 1133.42 968.99 1133.42Z" fill="#BDBDBD" fill-opacity="0.25"/>
<path d="M808.13 1133.42C810.245 1133.42 811.96 1131.7 811.96 1129.59C811.96 1127.47 810.245 1125.76 808.13 1125.76C806.015 1125.76 804.3 1127.47 804.3 1129.59C804.3 1131.7 806.015 1133.42 808.13 1133.42Z" fill="#BDBDBD" fill-opacity="0.25"/>
<path d="M486.41 1133.42C488.525 1133.42 490.24 1131.7 490.24 1129.59C490.24 1127.47 488.525 1125.76 486.41 1125.76C484.295 1125.76 482.58 1127.47 482.58 1129.59C482.58 1131.7 484.295 1133.42 486.41 1133.42Z" fill="#BDBDBD" fill-opacity="0.25"/>
<path d="M325.55 1133.42C327.665 1133.42 329.38 1131.7 329.38 1129.59C329.38 1127.47 327.665 1125.76 325.55 1125.76C323.435 1125.76 321.72 1127.47 321.72 1129.59C321.72 1131.7 323.435 1133.42 325.55 1133.42Z" fill="#BDBDBD" fill-opacity="0.25"/>
<path d="M164.69 1133.42C166.805 1133.42 168.52 1131.7 168.52 1129.59C168.52 1127.47 166.805 1125.76 164.69 1125.76C162.575 1125.76 160.86 1127.47 160.86 1129.59C160.86 1131.7 162.575 1133.42 164.69 1133.42Z" fill="#BDBDBD" fill-opacity="0.25"/>
<path d="M3.83 1133.42C5.94525 1133.42 7.66 1131.7 7.66 1129.59C7.66 1127.47 5.94525 1125.76 3.83 1125.76C1.71475 1125.76 0 1127.47 0 1129.59C0 1131.7 1.71475 1133.42 3.83 1133.42Z" fill="#BDBDBD" fill-opacity="0.25"/>
<path d="M3060.17 972.595C3062.29 972.595 3064 970.881 3064 968.766C3064 966.651 3062.29 964.937 3060.17 964.937C3058.05 964.937 3056.34 966.651 3056.34 968.766C3056.34 970.881 3058.05 972.595 3060.17 972.595Z" fill="#BDBDBD" fill-opacity="0.25"/>
<path d="M2899.31 972.595C2901.43 972.595 2903.14 970.881 2903.14 968.766C2903.14 966.651 2901.43 964.937 2899.31 964.937C2897.19 964.937 2895.48 966.651 2895.48 968.766C2895.48 970.881 2897.19 972.595 2899.31 972.595Z" fill="#BDBDBD" fill-opacity="0.25"/>
<path d="M2738.45 972.595C2740.57 972.595 2742.28 970.881 2742.28 968.766C2742.28 966.651 2740.57 964.937 2738.45 964.937C2736.33 964.937 2734.62 966.651 2734.62 968.766C2734.62 970.881 2736.33 972.595 2738.45 972.595Z" fill="#BDBDBD" fill-opacity="0.25"/>
<path d="M2577.59 972.595C2579.71 972.595 2581.42 970.881 2581.42 968.766C2581.42 966.651 2579.71 964.937 2577.59 964.937C2575.47 964.937 2573.76 966.651 2573.76 968.766C2573.76 970.881 2575.47 972.595 2577.59 972.595Z" fill="#BDBDBD" fill-opacity="0.25"/>
<path d="M2416.73 972.595C2418.85 972.595 2420.56 970.881 2420.56 968.766C2420.56 966.651 2418.85 964.937 2416.73 964.937C2414.61 964.937 2412.9 966.651 2412.9 968.766C2412.9 970.881 2414.61 972.595 2416.73 972.595Z" fill="#BDBDBD" fill-opacity="0.25"/>
<path d="M1773.29 972.595C1775.41 972.595 1777.12 970.881 1777.12 968.766C1777.12 966.651 1775.41 964.937 1773.29 964.937C1771.17 964.937 1769.46 966.651 1769.46 968.766C1769.46 970.881 1771.17 972.595 1773.29 972.595Z" fill="#BDBDBD" fill-opacity="0.25"/>
<path d="M1612.43 972.595C1614.55 972.595 1616.26 970.881 1616.26 968.766C1616.26 966.651 1614.55 964.937 1612.43 964.937C1610.31 964.937 1608.6 966.651 1608.6 968.766C1608.6 970.881 1610.31 972.595 1612.43 972.595Z" fill="#BDBDBD" fill-opacity="0.25"/>
<path d="M1451.57 972.595C1453.69 972.595 1455.4 970.881 1455.4 968.766C1455.4 966.651 1453.69 964.937 1451.57 964.937C1449.45 964.937 1447.74 966.651 1447.74 968.766C1447.74 970.881 1449.45 972.595 1451.57 972.595Z" fill="#BDBDBD" fill-opacity="0.25"/>
<path d="M1290.71 972.595C1292.83 972.595 1294.54 970.881 1294.54 968.766C1294.54 966.651 1292.83 964.937 1290.71 964.937C1288.59 964.937 1286.88 966.651 1286.88 968.766C1286.88 970.881 1288.59 972.595 1290.71 972.595Z" fill="#BDBDBD" fill-opacity="0.25"/>
<path d="M1129.85 972.595C1131.97 972.595 1133.68 970.881 1133.68 968.766C1133.68 966.651 1131.97 964.937 1129.85 964.937C1127.73 964.937 1126.02 966.651 1126.02 968.766C1126.02 970.881 1127.73 972.595 1129.85 972.595Z" fill="#BDBDBD" fill-opacity="0.25"/>
<path d="M968.99 972.595C971.105 972.595 972.82 970.881 972.82 968.766C972.82 966.651 971.105 964.937 968.99 964.937C966.875 964.937 965.16 966.651 965.16 968.766C965.16 970.881 966.875 972.595 968.99 972.595Z" fill="#BDBDBD" fill-opacity="0.25"/>
<path d="M808.13 972.595C810.245 972.595 811.96 970.881 811.96 968.766C811.96 966.651 810.245 964.937 808.13 964.937C806.015 964.937 804.3 966.651 804.3 968.766C804.3 970.881 806.015 972.595 808.13 972.595Z" fill="#BDBDBD" fill-opacity="0.25"/>
<path d="M486.41 972.595C488.525 972.595 490.24 970.881 490.24 968.766C490.24 966.651 488.525 964.937 486.41 964.937C484.295 964.937 482.58 966.651 482.58 968.766C482.58 970.881 484.295 972.595 486.41 972.595Z" fill="#BDBDBD" fill-opacity="0.25"/>
<path d="M325.55 972.595C327.665 972.595 329.38 970.881 329.38 968.766C329.38 966.651 327.665 964.937 325.55 964.937C323.435 964.937 321.72 966.651 321.72 968.766C321.72 970.881 323.435 972.595 325.55 972.595Z" fill="#BDBDBD" fill-opacity="0.25"/>
<path d="M164.69 972.595C166.805 972.595 168.52 970.881 168.52 968.766C168.52 966.651 166.805 964.937 164.69 964.937C162.575 964.937 160.86 966.651 160.86 968.766C160.86 970.881 162.575 972.595 164.69 972.595Z" fill="#BDBDBD" fill-opacity="0.25"/>
<path d="M2416.73 811.772C2418.85 811.772 2420.56 810.058 2420.56 807.943C2420.56 805.828 2418.85 804.114 2416.73 804.114C2414.61 804.114 2412.9 805.828 2412.9 807.943C2412.9 810.058 2414.61 811.772 2416.73 811.772Z" fill="#BDBDBD" fill-opacity="0.25"/>
<path d="M2255.87 811.772C2257.99 811.772 2259.7 810.058 2259.7 807.943C2259.7 805.828 2257.99 804.114 2255.87 804.114C2253.75 804.114 2252.04 805.828 2252.04 807.943C2252.04 810.058 2253.75 811.772 2255.87 811.772Z" fill="#BDBDBD" fill-opacity="0.25"/>
<path d="M2095.01 811.772C2097.13 811.772 2098.84 810.058 2098.84 807.943C2098.84 805.828 2097.13 804.114 2095.01 804.114C2092.89 804.114 2091.18 805.828 2091.18 807.943C2091.18 810.058 2092.89 811.772 2095.01 811.772Z" fill="#BDBDBD" fill-opacity="0.25"/>
<path d="M1934.15 811.772C1936.27 811.772 1937.98 810.058 1937.98 807.943C1937.98 805.828 1936.27 804.114 1934.15 804.114C1932.03 804.114 1930.32 805.828 1930.32 807.943C1930.32 810.058 1932.03 811.772 1934.15 811.772Z" fill="#BDBDBD" fill-opacity="0.25"/>
<path d="M1773.29 811.772C1775.41 811.772 1777.12 810.058 1777.12 807.943C1777.12 805.828 1775.41 804.114 1773.29 804.114C1771.17 804.114 1769.46 805.828 1769.46 807.943C1769.46 810.058 1771.17 811.772 1773.29 811.772Z" fill="#BDBDBD" fill-opacity="0.25"/>
<path d="M1612.43 811.772C1614.55 811.772 1616.26 810.058 1616.26 807.943C1616.26 805.828 1614.55 804.114 1612.43 804.114C1610.31 804.114 1608.6 805.828 1608.6 807.943C1608.6 810.058 1610.31 811.772 1612.43 811.772Z" fill="#BDBDBD" fill-opacity="0.25"/>
<path d="M1451.57 811.772C1453.69 811.772 1455.4 810.058 1455.4 807.943C1455.4 805.828 1453.69 804.114 1451.57 804.114C1449.45 804.114 1447.74 805.828 1447.74 807.943C1447.74 810.058 1449.45 811.772 1451.57 811.772Z" fill="#BDBDBD" fill-opacity="0.25"/>
<path d="M1290.71 811.772C1292.83 811.772 1294.54 810.058 1294.54 807.943C1294.54 805.828 1292.83 804.114 1290.71 804.114C1288.59 804.114 1286.88 805.828 1286.88 807.943C1286.88 810.058 1288.59 811.772 1290.71 811.772Z" fill="#BDBDBD" fill-opacity="0.25"/>
<path d="M1129.85 811.772C1131.97 811.772 1133.68 810.058 1133.68 807.943C1133.68 805.828 1131.97 804.114 1129.85 804.114C1127.73 804.114 1126.02 805.828 1126.02 807.943C1126.02 810.058 1127.73 811.772 1129.85 811.772Z" fill="#BDBDBD" fill-opacity="0.25"/>
<path d="M968.99 811.772C971.105 811.772 972.82 810.058 972.82 807.943C972.82 805.828 971.105 804.114 968.99 804.114C966.875 804.114 965.16 805.828 965.16 807.943C965.16 810.058 966.875 811.772 968.99 811.772Z" fill="#BDBDBD" fill-opacity="0.25"/>
<path d="M808.13 811.772C810.245 811.772 811.96 810.058 811.96 807.943C811.96 805.828 810.245 804.114 808.13 804.114C806.015 804.114 804.3 805.828 804.3 807.943C804.3 810.058 806.015 811.772 808.13 811.772Z" fill="#BDBDBD" fill-opacity="0.25"/>
<path d="M647.27 811.772C649.385 811.772 651.1 810.058 651.1 807.943C651.1 805.828 649.385 804.114 647.27 804.114C645.155 804.114 643.44 805.828 643.44 807.943C643.44 810.058 645.155 811.772 647.27 811.772Z" fill="#BDBDBD" fill-opacity="0.25"/>
<path d="M164.69 811.772C166.805 811.772 168.52 810.058 168.52 807.943C168.52 805.828 166.805 804.114 164.69 804.114C162.575 804.114 160.86 805.828 160.86 807.943C160.86 810.058 162.575 811.772 164.69 811.772Z" fill="#BDBDBD" fill-opacity="0.25"/>
<path d="M2577.59 650.949C2579.71 650.949 2581.42 649.235 2581.42 647.12C2581.42 645.006 2579.71 643.291 2577.59 643.291C2575.47 643.291 2573.76 645.006 2573.76 647.12C2573.76 649.235 2575.47 650.949 2577.59 650.949Z" fill="#BDBDBD" fill-opacity="0.25"/>
<path d="M2416.73 650.949C2418.85 650.949 2420.56 649.235 2420.56 647.12C2420.56 645.006 2418.85 643.291 2416.73 643.291C2414.61 643.291 2412.9 645.006 2412.9 647.12C2412.9 649.235 2414.61 650.949 2416.73 650.949Z" fill="#BDBDBD" fill-opacity="0.25"/>
<path d="M2255.87 650.949C2257.99 650.949 2259.7 649.235 2259.7 647.12C2259.7 645.006 2257.99 643.291 2255.87 643.291C2253.75 643.291 2252.04 645.006 2252.04 647.12C2252.04 649.235 2253.75 650.949 2255.87 650.949Z" fill="#BDBDBD" fill-opacity="0.25"/>
<path d="M2095.01 650.949C2097.13 650.949 2098.84 649.235 2098.84 647.12C2098.84 645.006 2097.13 643.291 2095.01 643.291C2092.89 643.291 2091.18 645.006 2091.18 647.12C2091.18 649.235 2092.89 650.949 2095.01 650.949Z" fill="#BDBDBD" fill-opacity="0.25"/>
<path d="M1934.15 650.949C1936.27 650.949 1937.98 649.235 1937.98 647.12C1937.98 645.006 1936.27 643.291 1934.15 643.291C1932.03 643.291 1930.32 645.006 1930.32 647.12C1930.32 649.235 1932.03 650.949 1934.15 650.949Z" fill="#BDBDBD" fill-opacity="0.25"/>
<path d="M1773.29 650.949C1775.41 650.949 1777.12 649.235 1777.12 647.12C1777.12 645.006 1775.41 643.291 1773.29 643.291C1771.17 643.291 1769.46 645.006 1769.46 647.12C1769.46 649.235 1771.17 650.949 1773.29 650.949Z" fill="#BDBDBD" fill-opacity="0.25"/>
<path d="M1612.43 650.949C1614.55 650.949 1616.26 649.235 1616.26 647.12C1616.26 645.006 1614.55 643.291 1612.43 643.291C1610.31 643.291 1608.6 645.006 1608.6 647.12C1608.6 649.235 1610.31 650.949 1612.43 650.949Z" fill="#BDBDBD" fill-opacity="0.25"/>
<path d="M1451.57 650.949C1453.69 650.949 1455.4 649.235 1455.4 647.12C1455.4 645.006 1453.69 643.291 1451.57 643.291C1449.45 643.291 1447.74 645.006 1447.74 647.12C1447.74 649.235 1449.45 650.949 1451.57 650.949Z" fill="#BDBDBD" fill-opacity="0.25"/>
<path d="M1290.71 650.949C1292.83 650.949 1294.54 649.235 1294.54 647.12C1294.54 645.006 1292.83 643.291 1290.71 643.291C1288.59 643.291 1286.88 645.006 1286.88 647.12C1286.88 649.235 1288.59 650.949 1290.71 650.949Z" fill="#BDBDBD" fill-opacity="0.25"/>
<path d="M1129.85 650.949C1131.97 650.949 1133.68 649.235 1133.68 647.12C1133.68 645.006 1131.97 643.291 1129.85 643.291C1127.73 643.291 1126.02 645.006 1126.02 647.12C1126.02 649.235 1127.73 650.949 1129.85 650.949Z" fill="#BDBDBD" fill-opacity="0.25"/>
<path d="M968.99 650.949C971.105 650.949 972.82 649.235 972.82 647.12C972.82 645.006 971.105 643.291 968.99 643.291C966.875 643.291 965.16 645.006 965.16 647.12C965.16 649.235 966.875 650.949 968.99 650.949Z" fill="#BDBDBD" fill-opacity="0.25"/>
<path d="M808.13 650.949C810.245 650.949 811.96 649.235 811.96 647.12C811.96 645.006 810.245 643.291 808.13 643.291C806.015 643.291 804.3 645.006 804.3 647.12C804.3 649.235 806.015 650.949 808.13 650.949Z" fill="#BDBDBD" fill-opacity="0.25"/>
<path d="M647.27 650.949C649.385 650.949 651.1 649.235 651.1 647.12C651.1 645.006 649.385 643.291 647.27 643.291C645.155 643.291 643.44 645.006 643.44 647.12C643.44 649.235 645.155 650.949 647.27 650.949Z" fill="#BDBDBD" fill-opacity="0.25"/>
<path d="M486.41 650.949C488.525 650.949 490.24 649.235 490.24 647.12C490.24 645.006 488.525 643.291 486.41 643.291C484.295 643.291 482.58 645.006 482.58 647.12C482.58 649.235 484.295 650.949 486.41 650.949Z" fill="#BDBDBD" fill-opacity="0.25"/>
<path d="M325.55 650.949C327.665 650.949 329.38 649.235 329.38 647.12C329.38 645.006 327.665 643.291 325.55 643.291C323.435 643.291 321.72 645.006 321.72 647.12C321.72 649.235 323.435 650.949 325.55 650.949Z" fill="#BDBDBD" fill-opacity="0.25"/>
<path d="M3060.17 490.127C3062.29 490.127 3064 488.412 3064 486.298C3064 484.183 3062.29 482.468 3060.17 482.468C3058.05 482.468 3056.34 484.183 3056.34 486.298C3056.34 488.412 3058.05 490.127 3060.17 490.127Z" fill="#BDBDBD" fill-opacity="0.25"/>
<path d="M2899.31 490.127C2901.43 490.127 2903.14 488.412 2903.14 486.298C2903.14 484.183 2901.43 482.468 2899.31 482.468C2897.19 482.468 2895.48 484.183 2895.48 486.298C2895.48 488.412 2897.19 490.127 2899.31 490.127Z" fill="#BDBDBD" fill-opacity="0.25"/>
<path d="M2738.45 490.127C2740.57 490.127 2742.28 488.412 2742.28 486.298C2742.28 484.183 2740.57 482.468 2738.45 482.468C2736.33 482.468 2734.62 484.183 2734.62 486.298C2734.62 488.412 2736.33 490.127 2738.45 490.127Z" fill="#BDBDBD" fill-opacity="0.25"/>
<path d="M2577.59 490.127C2579.71 490.127 2581.42 488.412 2581.42 486.298C2581.42 484.183 2579.71 482.468 2577.59 482.468C2575.47 482.468 2573.76 484.183 2573.76 486.298C2573.76 488.412 2575.47 490.127 2577.59 490.127Z" fill="#BDBDBD" fill-opacity="0.25"/>
<path d="M2416.73 490.127C2418.85 490.127 2420.56 488.412 2420.56 486.298C2420.56 484.183 2418.85 482.468 2416.73 482.468C2414.61 482.468 2412.9 484.183 2412.9 486.298C2412.9 488.412 2414.61 490.127 2416.73 490.127Z" fill="#BDBDBD" fill-opacity="0.25"/>
<path d="M2255.87 490.127C2257.99 490.127 2259.7 488.412 2259.7 486.298C2259.7 484.183 2257.99 482.468 2255.87 482.468C2253.75 482.468 2252.04 484.183 2252.04 486.298C2252.04 488.412 2253.75 490.127 2255.87 490.127Z" fill="#BDBDBD" fill-opacity="0.25"/>
<path d="M2095.01 490.127C2097.13 490.127 2098.84 488.412 2098.84 486.298C2098.84 484.183 2097.13 482.468 2095.01 482.468C2092.89 482.468 2091.18 484.183 2091.18 486.298C2091.18 488.412 2092.89 490.127 2095.01 490.127Z" fill="#BDBDBD" fill-opacity="0.25"/>
<path d="M1934.15 490.127C1936.27 490.127 1937.98 488.412 1937.98 486.298C1937.98 484.183 1936.27 482.468 1934.15 482.468C1932.03 482.468 1930.32 484.183 1930.32 486.298C1930.32 488.412 1932.03 490.127 1934.15 490.127Z" fill="#BDBDBD" fill-opacity="0.25"/>
<path d="M1773.29 490.127C1775.41 490.127 1777.12 488.412 1777.12 486.298C1777.12 484.183 1775.41 482.468 1773.29 482.468C1771.17 482.468 1769.46 484.183 1769.46 486.298C1769.46 488.412 1771.17 490.127 1773.29 490.127Z" fill="#BDBDBD" fill-opacity="0.25"/>
<path d="M1612.43 490.127C1614.55 490.127 1616.26 488.412 1616.26 486.298C1616.26 484.183 1614.55 482.468 1612.43 482.468C1610.31 482.468 1608.6 484.183 1608.6 486.298C1608.6 488.412 1610.31 490.127 1612.43 490.127Z" fill="#BDBDBD" fill-opacity="0.25"/>
<path d="M1451.57 490.127C1453.69 490.127 1455.4 488.412 1455.4 486.298C1455.4 484.183 1453.69 482.468 1451.57 482.468C1449.45 482.468 1447.74 484.183 1447.74 486.298C1447.74 488.412 1449.45 490.127 1451.57 490.127Z" fill="#BDBDBD" fill-opacity="0.25"/>
<path d="M1290.71 490.127C1292.83 490.127 1294.54 488.412 1294.54 486.298C1294.54 484.183 1292.83 482.468 1290.71 482.468C1288.59 482.468 1286.88 484.183 1286.88 486.298C1286.88 488.412 1288.59 490.127 1290.71 490.127Z" fill="#BDBDBD" fill-opacity="0.25"/>
<path d="M1129.85 490.127C1131.97 490.127 1133.68 488.412 1133.68 486.298C1133.68 484.183 1131.97 482.468 1129.85 482.468C1127.73 482.468 1126.02 484.183 1126.02 486.298C1126.02 488.412 1127.73 490.127 1129.85 490.127Z" fill="#BDBDBD" fill-opacity="0.25"/>
<path d="M486.41 490.127C488.525 490.127 490.24 488.412 490.24 486.298C490.24 484.183 488.525 482.468 486.41 482.468C484.295 482.468 482.58 484.183 482.58 486.298C482.58 488.412 484.295 490.127 486.41 490.127Z" fill="#BDBDBD" fill-opacity="0.25"/>
<path d="M2577.59 329.304C2579.71 329.304 2581.42 327.589 2581.42 325.475C2581.42 323.36 2579.71 321.646 2577.59 321.646C2575.47 321.646 2573.76 323.36 2573.76 325.475C2573.76 327.589 2575.47 329.304 2577.59 329.304Z" fill="#BDBDBD" fill-opacity="0.25"/>
<path d="M2416.73 329.304C2418.85 329.304 2420.56 327.589 2420.56 325.475C2420.56 323.36 2418.85 321.646 2416.73 321.646C2414.61 321.646 2412.9 323.36 2412.9 325.475C2412.9 327.589 2414.61 329.304 2416.73 329.304Z" fill="#BDBDBD" fill-opacity="0.25"/>
<path d="M2255.87 329.304C2257.99 329.304 2259.7 327.589 2259.7 325.475C2259.7 323.36 2257.99 321.646 2255.87 321.646C2253.75 321.646 2252.04 323.36 2252.04 325.475C2252.04 327.589 2253.75 329.304 2255.87 329.304Z" fill="#BDBDBD" fill-opacity="0.25"/>
<path d="M2095.01 329.304C2097.13 329.304 2098.84 327.589 2098.84 325.475C2098.84 323.36 2097.13 321.646 2095.01 321.646C2092.89 321.646 2091.18 323.36 2091.18 325.475C2091.18 327.589 2092.89 329.304 2095.01 329.304Z" fill="#BDBDBD" fill-opacity="0.25"/>
<path d="M1934.15 329.304C1936.27 329.304 1937.98 327.589 1937.98 325.475C1937.98 323.36 1936.27 321.646 1934.15 321.646C1932.03 321.646 1930.32 323.36 1930.32 325.475C1930.32 327.589 1932.03 329.304 1934.15 329.304Z" fill="#BDBDBD" fill-opacity="0.25"/>
<path d="M1773.29 329.304C1775.41 329.304 1777.12 327.589 1777.12 325.475C1777.12 323.36 1775.41 321.646 1773.29 321.646C1771.17 321.646 1769.46 323.36 1769.46 325.475C1769.46 327.589 1771.17 329.304 1773.29 329.304Z" fill="#BDBDBD" fill-opacity="0.25"/>
<path d="M1612.43 329.304C1614.55 329.304 1616.26 327.589 1616.26 325.475C1616.26 323.36 1614.55 321.646 1612.43 321.646C1610.31 321.646 1608.6 323.36 1608.6 325.475C1608.6 327.589 1610.31 329.304 1612.43 329.304Z" fill="#BDBDBD" fill-opacity="0.25"/>
<path d="M1451.57 329.304C1453.69 329.304 1455.4 327.589 1455.4 325.475C1455.4 323.36 1453.69 321.646 1451.57 321.646C1449.45 321.646 1447.74 323.36 1447.74 325.475C1447.74 327.589 1449.45 329.304 1451.57 329.304Z" fill="#BDBDBD" fill-opacity="0.25"/>
<path d="M1290.71 329.304C1292.83 329.304 1294.54 327.589 1294.54 325.475C1294.54 323.36 1292.83 321.646 1290.71 321.646C1288.59 321.646 1286.88 323.36 1286.88 325.475C1286.88 327.589 1288.59 329.304 1290.71 329.304Z" fill="#BDBDBD" fill-opacity="0.25"/>
<path d="M1129.85 329.304C1131.97 329.304 1133.68 327.589 1133.68 325.475C1133.68 323.36 1131.97 321.646 1129.85 321.646C1127.73 321.646 1126.02 323.36 1126.02 325.475C1126.02 327.589 1127.73 329.304 1129.85 329.304Z" fill="#BDBDBD" fill-opacity="0.25"/>
<path d="M968.99 329.304C971.105 329.304 972.82 327.589 972.82 325.475C972.82 323.36 971.105 321.646 968.99 321.646C966.875 321.646 965.16 323.36 965.16 325.475C965.16 327.589 966.875 329.304 968.99 329.304Z" fill="#BDBDBD" fill-opacity="0.25"/>
<path d="M808.13 329.304C810.245 329.304 811.96 327.589 811.96 325.475C811.96 323.36 810.245 321.646 808.13 321.646C806.015 321.646 804.3 323.36 804.3 325.475C804.3 327.589 806.015 329.304 808.13 329.304Z" fill="#BDBDBD" fill-opacity="0.25"/>
<path d="M2577.59 168.481C2579.71 168.481 2581.42 166.767 2581.42 164.652C2581.42 162.537 2579.71 160.823 2577.59 160.823C2575.47 160.823 2573.76 162.537 2573.76 164.652C2573.76 166.767 2575.47 168.481 2577.59 168.481Z" fill="#BDBDBD" fill-opacity="0.25"/>
<path d="M2416.73 168.481C2418.85 168.481 2420.56 166.767 2420.56 164.652C2420.56 162.537 2418.85 160.823 2416.73 160.823C2414.61 160.823 2412.9 162.537 2412.9 164.652C2412.9 166.767 2414.61 168.481 2416.73 168.481Z" fill="#BDBDBD" fill-opacity="0.25"/>
<path d="M2255.87 168.481C2257.99 168.481 2259.7 166.767 2259.7 164.652C2259.7 162.537 2257.99 160.823 2255.87 160.823C2253.75 160.823 2252.04 162.537 2252.04 164.652C2252.04 166.767 2253.75 168.481 2255.87 168.481Z" fill="#BDBDBD" fill-opacity="0.25"/>
<path d="M2095.01 168.481C2097.13 168.481 2098.84 166.767 2098.84 164.652C2098.84 162.537 2097.13 160.823 2095.01 160.823C2092.89 160.823 2091.18 162.537 2091.18 164.652C2091.18 166.767 2092.89 168.481 2095.01 168.481Z" fill="#BDBDBD" fill-opacity="0.25"/>
<path d="M1934.15 168.481C1936.27 168.481 1937.98 166.767 1937.98 164.652C1937.98 162.537 1936.27 160.823 1934.15 160.823C1932.03 160.823 1930.32 162.537 1930.32 164.652C1930.32 166.767 1932.03 168.481 1934.15 168.481Z" fill="#BDBDBD" fill-opacity="0.25"/>
<path d="M1451.57 168.481C1453.69 168.481 1455.4 166.767 1455.4 164.652C1455.4 162.537 1453.69 160.823 1451.57 160.823C1449.45 160.823 1447.74 162.537 1447.74 164.652C1447.74 166.767 1449.45 168.481 1451.57 168.481Z" fill="#BDBDBD" fill-opacity="0.25"/>
<path d="M1290.71 168.481C1292.83 168.481 1294.54 166.767 1294.54 164.652C1294.54 162.537 1292.83 160.823 1290.71 160.823C1288.59 160.823 1286.88 162.537 1286.88 164.652C1286.88 166.767 1288.59 168.481 1290.71 168.481Z" fill="#BDBDBD" fill-opacity="0.25"/>
<path d="M1129.85 168.481C1131.97 168.481 1133.68 166.767 1133.68 164.652C1133.68 162.537 1131.97 160.823 1129.85 160.823C1127.73 160.823 1126.02 162.537 1126.02 164.652C1126.02 166.767 1127.73 168.481 1129.85 168.481Z" fill="#BDBDBD" fill-opacity="0.25"/>
<path d="M968.99 168.481C971.105 168.481 972.82 166.767 972.82 164.652C972.82 162.537 971.105 160.823 968.99 160.823C966.875 160.823 965.16 162.537 965.16 164.652C965.16 166.767 966.875 168.481 968.99 168.481Z" fill="#BDBDBD" fill-opacity="0.25"/>
<path d="M2577.59 7.65823C2579.71 7.65823 2581.42 5.94388 2581.42 3.82911C2581.42 1.71435 2579.71 0 2577.59 0C2575.47 0 2573.76 1.71435 2573.76 3.82911C2573.76 5.94388 2575.47 7.65823 2577.59 7.65823Z" fill="#BDBDBD" fill-opacity="0.25"/>
<path d="M2416.73 7.65823C2418.85 7.65823 2420.56 5.94388 2420.56 3.82911C2420.56 1.71435 2418.85 0 2416.73 0C2414.61 0 2412.9 1.71435 2412.9 3.82911C2412.9 5.94388 2414.61 7.65823 2416.73 7.65823Z" fill="#BDBDBD" fill-opacity="0.25"/>
<path d="M2255.87 7.65823C2257.99 7.65823 2259.7 5.94388 2259.7 3.82911C2259.7 1.71435 2257.99 0 2255.87 0C2253.75 0 2252.04 1.71435 2252.04 3.82911C2252.04 5.94388 2253.75 7.65823 2255.87 7.65823Z" fill="#BDBDBD" fill-opacity="0.25"/>
<path d="M2095.01 7.65823C2097.13 7.65823 2098.84 5.94388 2098.84 3.82911C2098.84 1.71435 2097.13 0 2095.01 0C2092.89 0 2091.18 1.71435 2091.18 3.82911C2091.18 5.94388 2092.89 7.65823 2095.01 7.65823Z" fill="#BDBDBD" fill-opacity="0.25"/>
<path d="M1934.15 7.65823C1936.27 7.65823 1937.98 5.94388 1937.98 3.82911C1937.98 1.71435 1936.27 0 1934.15 0C1932.03 0 1930.32 1.71435 1930.32 3.82911C1930.32 5.94388 1932.03 7.65823 1934.15 7.65823Z" fill="#BDBDBD" fill-opacity="0.25"/>
<path d="M1451.57 7.65823C1453.69 7.65823 1455.4 5.94388 1455.4 3.82911C1455.4 1.71435 1453.69 0 1451.57 0C1449.45 0 1447.74 1.71435 1447.74 3.82911C1447.74 5.94388 1449.45 7.65823 1451.57 7.65823Z" fill="#BDBDBD" fill-opacity="0.25"/>
<path d="M1671.71 438.348H1235.09C1228.74 438.348 1223.6 443.491 1223.6 449.835V962.937C1223.6 969.281 1228.74 974.424 1235.09 974.424H1671.71C1678.06 974.424 1683.2 969.281 1683.2 962.937V449.835C1683.2 443.491 1678.06 438.348 1671.71 438.348Z" stroke="#828282" stroke-opacity="0.25" stroke-width="2"/>
<path d="M2599.11 356H2162.49C2156.14 356 2151 361.143 2151 367.487V880.589C2151 886.933 2156.14 892.076 2162.49 892.076H2599.11C2605.46 892.076 2610.6 886.933 2610.6 880.589V367.487C2610.6 361.143 2605.46 356 2599.11 356Z" stroke="#828282" stroke-opacity="0.25" stroke-width="2"/>
<path d="M2567 410H2195.49C2189.14 410 2184 415.143 2184 421.487V444.462C2184 450.806 2189.14 455.949 2195.49 455.949H2567C2573.35 455.949 2578.49 450.806 2578.49 444.462V421.487C2578.49 415.143 2573.35 410 2567 410Z" stroke="#828282" stroke-opacity="0.25"/>
<path d="M2498.06 731.646H2191.66C2187.43 731.646 2184 735.074 2184 739.304V754.62C2184 758.85 2187.43 762.279 2191.66 762.279H2498.06C2502.29 762.279 2505.72 758.85 2505.72 754.62V739.304C2505.72 735.074 2502.29 731.646 2498.06 731.646Z" stroke="#828282" stroke-opacity="0.25"/>
<path d="M2498.06 781.424H2191.66C2187.43 781.424 2184 784.853 2184 789.082V804.399C2184 808.628 2187.43 812.057 2191.66 812.057H2498.06C2502.29 812.057 2505.72 808.628 2505.72 804.399V789.082C2505.72 784.853 2502.29 781.424 2498.06 781.424Z" stroke="#828282" stroke-opacity="0.25"/>
<path d="M2344.86 475.095H2195.49C2189.14 475.095 2184 480.238 2184 486.582V693.354C2184 699.699 2189.14 704.842 2195.49 704.842H2344.86C2351.21 704.842 2356.35 699.699 2356.35 693.354V486.582C2356.35 480.238 2351.21 475.095 2344.86 475.095Z" stroke="#828282" stroke-opacity="0.25"/>
<path d="M2567 475.095H2394.65C2388.3 475.095 2383.16 480.238 2383.16 486.582V693.354C2383.16 699.699 2388.3 704.842 2394.65 704.842H2567C2573.35 704.842 2578.49 699.699 2578.49 693.354V486.582C2578.49 480.238 2573.35 475.095 2567 475.095Z" stroke="#828282" stroke-opacity="0.25"/>
<path d="M1391.11 1524H954.49C948.144 1524 943 1529.14 943 1535.49V2048.59C943 2054.93 948.144 2060.08 954.49 2060.08H1391.11C1397.46 2060.08 1402.6 2054.93 1402.6 2048.59V1535.49C1402.6 1529.14 1397.46 1524 1391.11 1524Z" stroke="#828282" stroke-opacity="0.25" stroke-width="2"/>
<path d="M2200.11 1183H1763.49C1757.14 1183 1752 1188.14 1752 1194.49V1707.59C1752 1713.93 1757.14 1719.08 1763.49 1719.08H2200.11C2206.46 1719.08 2211.6 1713.93 2211.6 1707.59V1194.49C2211.6 1188.14 2206.46 1183 2200.11 1183Z" stroke="#828282" stroke-opacity="0.25" stroke-width="2"/>
<path d="M2030.12 1334.61C2030.12 1305 2006.11 1281 1976.5 1281C1946.89 1281 1922.88 1305 1922.88 1334.61C1922.88 1364.21 1946.89 1388.22 1976.5 1388.22C2006.11 1388.22 2030.12 1364.21 2030.12 1334.61Z" stroke="#828282" stroke-opacity="0.25"/>
<path d="M2168 1445.65H1796.49C1790.14 1445.65 1785 1450.79 1785 1457.14V1610.3C1785 1616.65 1790.14 1621.79 1796.49 1621.79H2168C2174.35 1621.79 2179.49 1616.65 2179.49 1610.3V1457.14C2179.49 1450.79 2174.35 1445.65 2168 1445.65Z" stroke="#828282" stroke-opacity="0.25"/>
<path d="M1356.51 1583.66H1099.9C1097.78 1583.66 1096.07 1585.37 1096.07 1587.49V1606.63C1096.07 1608.75 1097.78 1610.46 1099.9 1610.46H1356.51C1358.63 1610.46 1360.34 1608.75 1360.34 1606.63V1587.49C1360.34 1585.37 1358.63 1583.66 1356.51 1583.66Z" stroke="#828282" stroke-opacity="0.25"/>
<path d="M1356.51 1621.95H1099.9C1097.78 1621.95 1096.07 1623.66 1096.07 1625.78V1644.92C1096.07 1647.04 1097.78 1648.75 1099.9 1648.75H1356.51C1358.63 1648.75 1360.34 1647.04 1360.34 1644.92V1625.78C1360.34 1623.66 1358.63 1621.95 1356.51 1621.95Z" stroke="#828282" stroke-opacity="0.25"/>
<path d="M1050.11 1576H996.49C990.144 1576 985 1581.14 985 1587.49V1641.09C985 1647.44 990.144 1652.58 996.49 1652.58H1050.11C1056.46 1652.58 1061.6 1647.44 1061.6 1641.09V1587.49C1061.6 1581.14 1056.46 1576 1050.11 1576Z" stroke="#828282" stroke-opacity="0.25"/>
<path d="M1356.51 1694.7H1099.9C1097.78 1694.7 1096.07 1696.42 1096.07 1698.53V1717.68C1096.07 1719.79 1097.78 1721.51 1099.9 1721.51H1356.51C1358.63 1721.51 1360.34 1719.79 1360.34 1717.68V1698.53C1360.34 1696.42 1358.63 1694.7 1356.51 1694.7Z" stroke="#828282" stroke-opacity="0.25"/>
<path d="M1356.51 1732.99H1099.9C1097.78 1732.99 1096.07 1734.71 1096.07 1736.82V1755.97C1096.07 1758.08 1097.78 1759.8 1099.9 1759.8H1356.51C1358.63 1759.8 1360.34 1758.08 1360.34 1755.97V1736.82C1360.34 1734.71 1358.63 1732.99 1356.51 1732.99Z" stroke="#828282" stroke-opacity="0.25"/>
<path d="M1050.11 1687.04H996.49C990.144 1687.04 985 1692.19 985 1698.53V1752.14C985 1758.48 990.144 1763.63 996.49 1763.63H1050.11C1056.46 1763.63 1061.6 1758.48 1061.6 1752.14V1698.53C1061.6 1692.19 1056.46 1687.04 1050.11 1687.04Z" stroke="#828282" stroke-opacity="0.25"/>
<path d="M1351.51 1939.77H1094.9C1092.78 1939.77 1091.07 1941.48 1091.07 1943.59V1962.74C1091.07 1964.85 1092.78 1966.57 1094.9 1966.57H1351.51C1353.63 1966.57 1355.34 1964.85 1355.34 1962.74V1943.59C1355.34 1941.48 1353.63 1939.77 1351.51 1939.77Z" stroke="#828282" stroke-opacity="0.25"/>
<path d="M1351.51 1978.06H1094.9C1092.78 1978.06 1091.07 1979.77 1091.07 1981.89V2001.03C1091.07 2003.15 1092.78 2004.86 1094.9 2004.86H1351.51C1353.63 2004.86 1355.34 2003.15 1355.34 2001.03V1981.89C1355.34 1979.77 1353.63 1978.06 1351.51 1978.06Z" stroke="#828282" stroke-opacity="0.25"/>
<path d="M1045.11 1932.11H991.49C985.144 1932.11 980 1937.25 980 1943.59V1997.2C980 2003.55 985.144 2008.69 991.49 2008.69H1045.11C1051.46 2008.69 1056.6 2003.55 1056.6 1997.2V1943.59C1056.6 1937.25 1051.46 1932.11 1045.11 1932.11Z" stroke="#828282" stroke-opacity="0.25"/>
<path d="M1348.85 1801.92H996.49C990.144 1801.92 985 1807.06 985 1813.4V1882.33C985 1888.67 990.144 1893.82 996.49 1893.82H1348.85C1355.2 1893.82 1360.34 1888.67 1360.34 1882.33V1813.4C1360.34 1807.06 1355.2 1801.92 1348.85 1801.92Z" stroke="#828282" stroke-opacity="0.25"/>
<path d="M714.11 914H277.49C271.144 914 266 919.143 266 925.487V1438.59C266 1444.93 271.144 1450.08 277.49 1450.08H714.11C720.456 1450.08 725.6 1444.93 725.6 1438.59V925.487C725.6 919.143 720.456 914 714.11 914Z" stroke="#828282" stroke-opacity="0.25" stroke-width="2"/>
<path d="M1351.75 505H1267.49C1261.14 505 1256 510.143 1256 516.487V600.728C1256 607.072 1261.14 612.215 1267.49 612.215H1351.75C1358.1 612.215 1363.24 607.072 1363.24 600.728V516.487C1363.24 510.143 1358.1 505 1351.75 505Z" stroke="#828282" stroke-opacity="0.25"/>
<path d="M1359.41 627.532H1259.83C1257.71 627.532 1256 629.246 1256 631.361V642.848C1256 644.963 1257.71 646.677 1259.83 646.677H1359.41C1361.53 646.677 1363.24 644.963 1363.24 642.848V631.361C1363.24 629.246 1361.53 627.532 1359.41 627.532Z" stroke="#828282" stroke-opacity="0.25"/>
<path d="M1351.75 708H1267.49C1261.14 708 1256 713.143 1256 719.487V803.728C1256 810.072 1261.14 815.215 1267.49 815.215H1351.75C1358.1 815.215 1363.24 810.072 1363.24 803.728V719.487C1363.24 713.143 1358.1 708 1351.75 708Z" stroke="#828282" stroke-opacity="0.25"/>
<path d="M1359.41 830.532H1259.83C1257.71 830.532 1256 832.246 1256 834.361V845.848C1256 847.963 1257.71 849.677 1259.83 849.677H1359.41C1361.53 849.677 1363.24 847.963 1363.24 845.848V834.361C1363.24 832.246 1361.53 830.532 1359.41 830.532Z" stroke="#828282" stroke-opacity="0.25"/>
<path d="M1497.75 708H1413.49C1407.14 708 1402 713.143 1402 719.487V803.728C1402 810.072 1407.14 815.215 1413.49 815.215H1497.75C1504.1 815.215 1509.24 810.072 1509.24 803.728V719.487C1509.24 713.143 1504.1 708 1497.75 708Z" stroke="#828282" stroke-opacity="0.25"/>
<path d="M1505.41 830.532H1405.83C1403.71 830.532 1402 832.246 1402 834.361V845.848C1402 847.963 1403.71 849.677 1405.83 849.677H1505.41C1507.53 849.677 1509.24 847.963 1509.24 845.848V834.361C1509.24 832.246 1507.53 830.532 1505.41 830.532Z" stroke="#828282" stroke-opacity="0.25"/>
<path d="M1497.75 505H1413.49C1407.14 505 1402 510.143 1402 516.487V600.728C1402 607.072 1407.14 612.215 1413.49 612.215H1497.75C1504.1 612.215 1509.24 607.072 1509.24 600.728V516.487C1509.24 510.143 1504.1 505 1497.75 505Z" stroke="#828282" stroke-opacity="0.25"/>
<path d="M1505.41 627.532H1405.83C1403.71 627.532 1402 629.246 1402 631.361V642.848C1402 644.963 1403.71 646.677 1405.83 646.677H1505.41C1507.53 646.677 1509.24 644.963 1509.24 642.848V631.361C1509.24 629.246 1507.53 627.532 1505.41 627.532Z" stroke="#828282" stroke-opacity="0.25"/>
<path d="M1643.75 506H1559.49C1553.14 506 1548 511.143 1548 517.487V601.728C1548 608.072 1553.14 613.215 1559.49 613.215H1643.75C1650.1 613.215 1655.24 608.072 1655.24 601.728V517.487C1655.24 511.143 1650.1 506 1643.75 506Z" stroke="#828282" stroke-opacity="0.25"/>
<path d="M1651.41 628.532H1551.83C1549.71 628.532 1548 630.246 1548 632.361V643.848C1548 645.963 1549.71 647.677 1551.83 647.677H1651.41C1653.53 647.677 1655.24 645.963 1655.24 643.848V632.361C1655.24 630.246 1653.53 628.532 1651.41 628.532Z" stroke="#828282" stroke-opacity="0.25"/>
<path d="M1643.07 708.386H1558.81C1552.46 708.386 1547.32 713.529 1547.32 719.873V804.114C1547.32 810.458 1552.46 815.601 1558.81 815.601H1643.07C1649.42 815.601 1654.56 810.458 1654.56 804.114V719.873C1654.56 713.529 1649.42 708.386 1643.07 708.386Z" stroke="#828282" stroke-opacity="0.25"/>
<path d="M1650.73 830.918H1551.15C1549.03 830.918 1547.32 832.632 1547.32 834.747V846.234C1547.32 848.349 1549.03 850.063 1551.15 850.063H1650.73C1652.85 850.063 1654.56 848.349 1654.56 846.234V834.747C1654.56 832.632 1652.85 830.918 1650.73 830.918Z" stroke="#828282" stroke-opacity="0.25"/>
<path d="M1683.38 478.753C1703.48 478.753 1719.77 462.467 1719.77 442.377C1719.77 422.286 1703.48 406 1683.38 406C1663.29 406 1647 422.286 1647 442.377C1647 462.467 1663.29 478.753 1683.38 478.753Z" stroke="#828282" stroke-opacity="0.25"/>
<path fill-rule="evenodd" clip-rule="evenodd" d="M1684.17 422.042C1680.68 422.042 1677.83 423.191 1675.72 425.581C1673.65 427.786 1672.59 430.727 1672.55 434.403H1677.56C1677.65 431.738 1678.2 429.762 1679.3 428.383C1680.36 426.959 1681.92 426.27 1683.99 426.27C1685.92 426.27 1687.44 426.729 1688.45 427.648C1689.46 428.567 1689.96 429.946 1689.96 431.784C1689.96 433.714 1689.18 435.506 1687.71 437.16C1686.79 438.125 1685.23 439.365 1683.02 440.928C1679.3 443.501 1676.82 445.477 1675.62 446.901C1673.42 449.382 1672.36 452.231 1672.36 455.494H1694.97V451.082H1678.57C1679.26 449.29 1681.37 447.223 1684.91 444.879C1688.17 442.674 1690.42 440.928 1691.71 439.595C1693.83 437.252 1694.93 434.679 1694.93 431.83C1694.93 428.935 1693.92 426.591 1691.94 424.753C1689.92 422.916 1687.3 422.042 1684.17 422.042Z" fill="#828282" fill-opacity="0.25"/>
<path d="M1677.54 716.044H2146.84" stroke="#828282" stroke-opacity="0.25"/>
<path d="M1221.77 712.215H940.128V1068.32H723.87" stroke="#828282" stroke-opacity="0.25"/>
<path d="M1223.52 723.703C1229.86 723.703 1235.01 718.56 1235.01 712.215C1235.01 705.871 1229.86 700.728 1223.52 700.728C1217.17 700.728 1212.03 705.871 1212.03 712.215C1212.03 718.56 1217.17 723.703 1223.52 723.703Z" fill="#828282" fill-opacity="0.1"/>
<path d="M1683.28 727.532C1689.63 727.532 1694.78 722.389 1694.78 716.044C1694.78 709.7 1689.63 704.557 1683.28 704.557C1676.94 704.557 1671.79 709.7 1671.79 716.044C1671.79 722.389 1676.94 727.532 1683.28 727.532Z" fill="#828282" fill-opacity="0.1"/>
<path d="M2150.55 727.532C2156.89 727.532 2162.04 722.389 2162.04 716.044C2162.04 709.7 2156.89 704.557 2150.55 704.557C2144.2 704.557 2139.06 709.7 2139.06 716.044C2139.06 722.389 2144.2 727.532 2150.55 727.532Z" fill="#828282" fill-opacity="0.1"/>
<path d="M1461.15 985.997C1467.49 985.997 1472.64 980.854 1472.64 974.51C1472.64 968.165 1467.49 963.022 1461.15 963.022C1454.8 963.022 1449.66 968.165 1449.66 974.51C1449.66 980.854 1454.8 985.997 1461.15 985.997Z" fill="#828282" fill-opacity="0.1"/>
<path d="M1168.15 1535.47C1174.5 1535.47 1179.64 1530.33 1179.64 1523.99C1179.64 1517.64 1174.5 1512.5 1168.15 1512.5C1161.8 1512.5 1156.66 1517.64 1156.66 1523.99C1156.66 1530.33 1161.8 1535.47 1168.15 1535.47Z" fill="#828282" fill-opacity="0.1"/>
<path d="M1403.7 1788.2C1410.04 1788.2 1415.19 1783.05 1415.19 1776.71C1415.19 1770.36 1410.04 1765.22 1403.7 1765.22C1397.35 1765.22 1392.21 1770.36 1392.21 1776.71C1392.21 1783.05 1397.35 1788.2 1403.7 1788.2Z" fill="#828282" fill-opacity="0.1"/>
<path d="M1752.23 1521.16C1758.57 1521.16 1763.72 1516.02 1763.72 1509.67C1763.72 1503.33 1758.57 1498.18 1752.23 1498.18C1745.88 1498.18 1740.74 1503.33 1740.74 1509.67C1740.74 1516.02 1745.88 1521.16 1752.23 1521.16Z" fill="#828282" fill-opacity="0.1"/>
<path d="M727.514 1237.97H1581.16V1376.6H1755.41" stroke="#979797" stroke-opacity="0.25" stroke-dasharray="2 2"/>
<path d="M1228.41 851.993H1059.71V1416.33H1753.1" stroke="#979797" stroke-opacity="0.25" stroke-dasharray="2 2"/>
<path d="M2153.98 612.658H1968.62V1181.81" stroke="#B19D6D" stroke-opacity="0.25" stroke-dasharray="2 2"/>
<path d="M1460.84 974.226V1319.43H1168.54V1523.51" stroke="#828282" stroke-opacity="0.25"/>
<path d="M1403.94 1776.4H1551.95V1509.76H1752.14" stroke="#828282" stroke-opacity="0.25"/>
<path d="M725.785 1079.81C732.131 1079.81 737.275 1074.67 737.275 1068.32C737.275 1061.98 732.131 1056.84 725.785 1056.84C719.439 1056.84 714.295 1061.98 714.295 1068.32C714.295 1074.67 719.439 1079.81 725.785 1079.81Z" fill="#828282" fill-opacity="0.1"/>
<path fill-rule="evenodd" clip-rule="evenodd" d="M342.465 178L503.379 612.177C513.419 639.07 524.1 655.351 534.97 665.344C545.793 675.294 556.938 679.136 568.201 680.896L569.893 681.16V702.912H371.782V680.199L373.733 680.151C388.299 679.791 400.039 678.713 409.169 676.519C418.309 674.322 424.612 671.059 428.554 666.5C432.455 661.991 434.277 655.941 433.887 647.641C433.495 639.296 430.871 628.833 426.026 615.735L426.023 615.726L389.701 516.018H204.167L170.004 610.68C164.8 624.856 161.988 636.145 161.452 645.13C160.918 654.085 162.652 660.591 166.373 665.415C170.112 670.263 176.078 673.7 184.59 676.051C193.107 678.402 203.976 679.613 217.276 680.152L219.195 680.23V702.912H55V681.065L56.797 680.882C77.778 678.749 90.956 673.107 101.432 661.592C112.05 649.921 120.055 632.062 130.173 604.961L278.403 204.379L342.465 178ZM202.763 514.018H391.101L427.902 615.042C447.385 667.718 432.232 680.707 373.782 682.15V700.912H567.893V682.872C544.801 679.264 521.71 666.997 501.505 612.877L341.31 180.638L279.974 205.894L132.046 605.661C111.841 659.781 99.574 678.542 57 682.872V700.912H217.195V682.15C163.797 679.986 147.2 666.997 168.126 609.99L202.763 514.018ZM297.5 242C299.457 251 279.5 310.5 255.152 375.439L214.998 486.04H378.872L338.708 374.709L313.104 293.354L297.5 242ZM381.72 488.04H212.144L253.275 374.749C276.366 311.97 295.128 260.736 295.849 238.366H299.457C302.798 257.902 319.271 303.995 340.589 374.027L381.72 488.04ZM924.742 642.598L940.114 651.638L939.654 653.143C933.794 672.559 924.58 686.841 912.545 696.263C900.5 705.693 885.793 710.128 869.189 710.128C850.735 710.128 834.831 704.399 823.638 692.736C812.783 681.424 806.587 664.769 806.559 643.019H805.797C796.975 675.948 762.478 711.571 706.829 711.571C675.848 711.571 650.419 703.735 632.712 688.068C614.967 672.367 605.248 649.041 605.248 618.65C605.248 589.996 614.83 566.697 635.509 548.419C656.096 530.221 687.525 517.138 730.971 508.448L805.131 493.616V472.165C805.131 446.468 799.061 425.916 786.428 411.802C773.831 397.728 754.42 389.738 727.034 389.738C703.147 389.738 684.072 394.906 669.231 404.653C654.401 414.393 643.635 428.814 636.54 447.615L635.883 449.355L612.823 442.522L613.235 440.696C619.073 414.789 631.323 388.761 653.086 369.202C674.878 349.617 706.043 336.669 749.403 336.669C784.038 336.669 814.367 346.334 836.041 367.547C857.726 388.77 870.467 421.279 870.467 466.392V624.422C870.467 635.771 872.604 644.857 876.959 651.054C881.232 657.135 887.802 660.667 897.331 660.667C909.446 660.667 918.235 653.985 923.737 644.357L924.742 642.598ZM807.131 495.256L731.363 510.41C644.771 527.728 607.248 562.365 607.248 618.65C607.248 678.542 645.493 709.571 706.829 709.571C762.392 709.571 796.307 673.491 804.245 641.019H808.574C808.564 641.691 808.559 642.358 808.559 643.019C808.614 686.425 833.651 708.128 869.189 708.128C901.661 708.128 926.195 690.81 937.744 652.565L925.477 645.35L925.474 645.349L925.473 645.35C925.29 645.671 925.102 645.989 924.912 646.304C919.1 655.903 909.907 662.667 897.331 662.667C877.126 662.667 868.467 647.514 868.467 624.422V466.392C868.467 376.914 817.955 338.669 749.403 338.669C663.533 338.669 626.731 389.902 615.186 441.136L634.669 446.909C649.101 408.664 678.686 387.738 727.034 387.738C782.597 387.738 807.131 420.21 807.131 472.165V495.256ZM691.826 652.689C701.03 663.184 714.871 669.326 733.528 669.326C750.767 669.326 765.44 664.063 777.4 653.586C789.341 643.127 798.711 627.355 805.131 606.088V522.187L767.816 528.971C767.814 528.972 767.812 528.972 767.81 528.973C739.444 534.359 716.924 542.754 701.52 555.516C686.216 568.197 677.8 585.301 677.8 608.547C677.8 626.985 682.587 642.155 691.826 652.689ZM767.443 527.006C710.437 537.83 675.8 560.922 675.8 608.547C675.8 646.07 695.283 671.326 733.528 671.326C768.886 671.326 794.142 649.678 807.131 606.382V519.79L767.443 527.006Z" fill="#2159F3" fill-opacity="0.25"/>
<path d="M675.91 961.108H315.89C309.544 961.108 304.4 966.251 304.4 972.595V1022.37C304.4 1028.72 309.544 1033.86 315.89 1033.86H675.91C682.256 1033.86 687.4 1028.72 687.4 1022.37V972.595C687.4 966.251 682.256 961.108 675.91 961.108Z" stroke="#828282" stroke-opacity="0.25"/>
<path d="M557.18 1053.01H315.89C309.544 1053.01 304.4 1058.15 304.4 1064.49V1232.97C304.4 1239.32 309.544 1244.46 315.89 1244.46H557.18C563.526 1244.46 568.67 1239.32 568.67 1232.97V1064.49C568.67 1058.15 563.526 1053.01 557.18 1053.01Z" stroke="#828282" stroke-opacity="0.25"/>
<path d="M561.01 1263.61H312.06C307.83 1263.61 304.4 1267.04 304.4 1271.27V1286.58C304.4 1290.81 307.83 1294.24 312.06 1294.24H561.01C565.241 1294.24 568.67 1290.81 568.67 1286.58V1271.27C568.67 1267.04 565.241 1263.61 561.01 1263.61Z" stroke="#828282" stroke-opacity="0.25"/>
<path d="M652.93 1313.39H312.06C307.83 1313.39 304.4 1316.81 304.4 1321.04V1336.36C304.4 1340.59 307.83 1344.02 312.06 1344.02H652.93C657.161 1344.02 660.59 1340.59 660.59 1336.36V1321.04C660.59 1316.81 657.161 1313.39 652.93 1313.39Z" stroke="#828282" stroke-opacity="0.25"/>
<path d="M1404.7 1558.11C1424.79 1558.11 1441.08 1541.82 1441.08 1521.73C1441.08 1501.64 1424.79 1485.35 1404.7 1485.35C1384.6 1485.35 1368.31 1501.64 1368.31 1521.73C1368.31 1541.82 1384.6 1558.11 1404.7 1558.11Z" stroke="#899199" stroke-opacity="0.25"/>
<path fill-rule="evenodd" clip-rule="evenodd" d="M1404.78 1507.15C1403.68 1508.35 1402.3 1509.41 1400.65 1510.42C1398.99 1511.34 1397.47 1511.98 1396 1512.35V1517.31C1399.04 1516.44 1401.57 1515.06 1403.54 1513.17V1539.96H1408.55V1507.15H1404.78Z" fill="#899199" fill-opacity="0.25"/>
<path fill-rule="evenodd" clip-rule="evenodd" d="M2382.46 1765L2543.38 2199.18C2553.42 2226.07 2564.1 2242.35 2574.97 2252.34C2585.79 2262.29 2596.94 2266.14 2608.2 2267.9L2609.89 2268.16V2289.91H2411.78V2267.2L2413.73 2267.15C2428.3 2266.79 2440.04 2265.71 2449.17 2263.52C2458.31 2261.32 2464.61 2258.06 2468.55 2253.5C2472.45 2248.99 2474.28 2242.94 2473.89 2234.64C2473.49 2226.3 2470.87 2215.83 2466.03 2202.73L2466.02 2202.73L2429.7 2103.02H2244.17L2210 2197.68C2204.8 2211.86 2201.99 2223.15 2201.45 2232.13C2200.92 2241.08 2202.65 2247.59 2206.37 2252.41C2210.11 2257.26 2216.08 2260.7 2224.59 2263.05C2233.11 2265.4 2243.98 2266.61 2257.28 2267.15L2259.2 2267.23V2289.91H2095V2268.07L2096.8 2267.88C2117.78 2265.75 2130.96 2260.11 2141.43 2248.59C2152.05 2236.92 2160.06 2219.06 2170.17 2191.96L2318.4 1791.38L2382.46 1765ZM2242.76 2101.02H2431.1L2467.9 2202.04C2487.39 2254.72 2472.23 2267.71 2413.78 2269.15V2287.91H2607.89V2269.87C2584.8 2266.26 2561.71 2254 2541.51 2199.88L2381.31 1767.64L2319.97 1792.89L2172.05 2192.66C2151.84 2246.78 2139.57 2265.54 2097 2269.87V2287.91H2257.2V2269.15C2203.8 2266.99 2187.2 2254 2208.13 2196.99L2242.76 2101.02ZM2337.5 1829C2339.46 1838 2319.5 1897.5 2295.15 1962.44L2255 2073.04H2418.87L2378.71 1961.71L2353.1 1880.35L2337.5 1829ZM2421.72 2075.04H2252.14L2293.27 1961.75C2316.37 1898.97 2335.13 1847.74 2335.85 1825.37H2339.46C2342.8 1844.9 2359.27 1890.99 2380.59 1961.03L2421.72 2075.04ZM2964.74 2229.6L2980.11 2238.64L2979.65 2240.14C2973.79 2259.56 2964.58 2273.84 2952.54 2283.26C2940.5 2292.69 2925.79 2297.13 2909.19 2297.13C2890.74 2297.13 2874.83 2291.4 2863.64 2279.74C2852.78 2268.42 2846.59 2251.77 2846.56 2230.02H2845.8C2836.97 2262.95 2802.48 2298.57 2746.83 2298.57C2715.85 2298.57 2690.42 2290.73 2672.71 2275.07C2654.97 2259.37 2645.25 2236.04 2645.25 2205.65C2645.25 2177 2654.83 2153.7 2675.51 2135.42C2696.1 2117.22 2727.53 2104.14 2770.97 2095.45L2845.13 2080.62V2059.16C2845.13 2033.47 2839.06 2012.92 2826.43 1998.8C2813.83 1984.73 2794.42 1976.74 2767.03 1976.74C2743.15 1976.74 2724.07 1981.91 2709.23 1991.65C2694.4 2001.39 2683.63 2015.81 2676.54 2034.61L2675.88 2036.35L2652.82 2029.52L2653.23 2027.7C2659.07 2001.79 2671.32 1975.76 2693.09 1956.2C2714.88 1936.62 2746.04 1923.67 2789.4 1923.67C2824.04 1923.67 2854.37 1933.33 2876.04 1954.55C2897.73 1975.77 2910.47 2008.28 2910.47 2053.39V2211.42C2910.47 2222.77 2912.6 2231.86 2916.96 2238.05C2921.23 2244.14 2927.8 2247.67 2937.33 2247.67C2949.45 2247.67 2958.23 2240.98 2963.74 2231.36L2964.74 2229.6ZM2847.13 2082.26L2771.36 2097.41C2684.77 2114.73 2647.25 2149.37 2647.25 2205.65C2647.25 2265.54 2685.49 2296.57 2746.83 2296.57C2802.39 2296.57 2836.31 2260.49 2844.24 2228.02H2848.57C2848.56 2228.69 2848.56 2229.36 2848.56 2230.02C2848.61 2273.42 2873.65 2295.13 2909.19 2295.13C2941.66 2295.13 2966.2 2277.81 2977.74 2239.57L2965.48 2232.35L2965.47 2232.35L2965.47 2232.35C2965.29 2232.67 2965.1 2232.99 2964.91 2233.3C2959.1 2242.9 2949.91 2249.67 2937.33 2249.67C2917.13 2249.67 2908.47 2234.51 2908.47 2211.42V2053.39C2908.47 1963.91 2857.96 1925.67 2789.4 1925.67C2703.53 1925.67 2666.73 1976.9 2655.19 2028.14L2674.67 2033.91C2689.1 1995.66 2718.69 1974.74 2767.03 1974.74C2822.6 1974.74 2847.13 2007.21 2847.13 2059.16V2082.26ZM2731.83 2239.69C2741.03 2250.18 2754.87 2256.33 2773.53 2256.33C2790.77 2256.33 2805.44 2251.06 2817.4 2240.59C2829.34 2230.13 2838.71 2214.36 2845.13 2193.09V2109.19L2807.82 2115.97C2807.81 2115.97 2807.81 2115.97 2807.81 2115.97C2779.44 2121.36 2756.92 2129.75 2741.52 2142.52C2726.22 2155.2 2717.8 2172.3 2717.8 2195.55C2717.8 2213.98 2722.59 2229.15 2731.83 2239.69ZM2807.44 2114.01C2750.44 2124.83 2715.8 2147.92 2715.8 2195.55C2715.8 2233.07 2735.28 2258.33 2773.53 2258.33C2808.89 2258.33 2834.14 2236.68 2847.13 2193.38V2106.79L2807.44 2114.01Z" fill="#2159F3" fill-opacity="0.25"/>
</svg>
