<svg width="555" height="460" fill="none" xmlns="http://www.w3.org/2000/svg"><path d="M194.137 247.235V10.175c0-6.16 4.367-8.735 9.742-5.6l249.379 144.006c5.375 3.136 9.742 10.638 9.742 16.797v237.061L194.137 247.235z" fill="#F2F2F3"/><path d="M444.971 175.568l17.917-10.302v237.061l-17.917 10.414V175.568z" fill="url(#prefix__paint0_linear)"/><path d="M181.595 12.302L199.4 2l253.746 146.469-17.917 10.302-248.818-143.67h-8.399l3.583-2.799z" fill="#F2F2F3"/><path d="M176.22 257.537V20.477c0-6.16 4.367-8.735 9.742-5.6l249.379 144.006c5.375 3.136 9.742 10.638 9.742 16.797v237.061L176.22 257.537z" fill="#E6E7E8"/><path d="M201.044 47.635c1.495-.874 1.467-3.703-.063-6.32-1.529-2.616-3.981-4.028-5.476-3.154-1.494.874-1.466 3.703.063 6.32 1.53 2.616 3.981 4.028 5.476 3.154z" fill="#FA6058"/><path d="M213.691 54.89c1.495-.874 1.467-3.703-.062-6.32-1.529-2.615-3.982-4.028-5.477-3.154-1.494.874-1.467 3.703.063 6.32 1.53 2.616 3.981 4.028 5.476 3.154z" fill="#FCBD2E"/><path d="M226.339 62.145c1.495-.874 1.467-3.703-.063-6.32-1.529-2.616-3.981-4.028-5.476-3.154-1.495.874-1.467 3.703.063 6.32 1.529 2.616 3.981 4.028 5.476 3.154z" fill="#30CA41"/><defs><linearGradient id="prefix__paint0_linear" x1="453.93" y1="165.23" x2="453.93" y2="412.709" gradientUnits="userSpaceOnUse"><stop stop-color="#F2F2F3"/><stop offset="1" stop-color="#CCCDD0"/></linearGradient></defs></svg>
