<svg width="1440" height="900" fill="none" xmlns="http://www.w3.org/2000/svg"><path d="M524.864 403.581V21.696c0-13.404 9.505-19.01 21.203-12.186L1088.8 322.915c11.7 6.824 21.2 23.152 21.2 36.556V696.5l-38.5 23-546.636-315.919z" fill="#333A48"/><path d="M1071.01 381.892l38.99-22.421v336.8l-38.99 22.665V381.892z" fill="url(#prefix__paint0_linear)"/><path d="M497.813 27.3l38.749-22.42L1088.8 323.646l-39 22.421L508.293 33.394h-18.278l7.798-6.093z" fill="url(#prefix__paint1_linear)"/><path d="M486.115 381.16V44.36c0-13.404 9.505-19.009 21.203-12.185L1050.05 345.58c11.7 6.823 21.2 23.151 21.2 36.555v336.801L486.115 381.16z" fill="#333A48"/><path d="M486.115 110.892v405.281l155.971 90.171V201.062l-155.971-90.17z" fill="#333A48"/><path d="M539.655 103.381c3.256-1.899 3.197-8.057-.127-13.753-3.326-5.695-8.659-8.772-11.915-6.872-3.253 1.9-3.197 8.057.13 13.752 3.324 5.696 8.658 8.774 11.912 6.873z" fill="#FA6058"/><path d="M568.899 120.44c3.256-1.901 3.198-8.057-.126-13.755-3.327-5.695-8.659-8.77-11.915-6.87-3.253 1.899-3.197 8.057.129 13.753 3.324 5.695 8.659 8.773 11.912 6.872z" fill="#FCBD2E"/><path d="M595.71 135.062c3.253-1.901 3.195-8.059-.129-13.754-3.324-5.696-8.659-8.771-11.915-6.873-3.253 1.901-3.197 8.059.129 13.755 3.324 5.695 8.659 8.771 11.915 6.872z" fill="#30CA41"/><defs><linearGradient id="prefix__paint0_linear" x1="1090.47" y1="718.814" x2="1090.47" y2="359.412" gradientUnits="userSpaceOnUse"><stop stop-color="#000919"/><stop offset="1" stop-color="#333A48"/></linearGradient><linearGradient id="prefix__paint1_linear" x1="489.905" y1="175.454" x2="1088.74" y2="175.454" gradientUnits="userSpaceOnUse"><stop stop-color="#4D535F"/><stop offset="1" stop-color="#333A48"/></linearGradient></defs></svg>
