<svg width="1440" height="900" fill="none" xmlns="http://www.w3.org/2000/svg"><path d="M574.566 397.699l-21.202-12.185c-1.706-.975-3.168-3.412-3.168-5.362 0-1.95 1.462-2.924 3.168-1.706l21.202 12.185c1.706.975 3.168 3.412 3.168 5.362 0 1.95-1.462 2.681-3.168 1.706zM639.879 457.163l-86.515-49.96c-1.706-.975-3.168-3.412-3.168-5.361 0-1.95 1.462-2.925 3.168-1.706l86.515 49.959c1.706.975 3.168 3.412 3.168 5.362 0 1.95-1.218 2.924-3.168 1.706zM616.727 552.939l-63.363-36.556c-1.706-.975-3.168-3.412-3.168-5.361 0-1.95 1.462-2.925 3.168-1.706l63.363 36.555c1.706.975 3.168 3.412 3.168 5.362 0 1.706-1.462 2.681-3.168 1.706zM606.248 590.226l-35.825-20.715c-1.706-.975-3.168-3.412-3.168-5.362 0-1.949 1.462-2.924 3.168-1.706l35.825 20.715c1.706.975 3.168 3.412 3.168 5.362 0 1.949-1.462 2.924-3.168 1.706zM753.932 675.523l-133.063-76.768c-1.706-.974-3.168-3.411-3.168-5.361 0-1.95 1.462-2.925 3.168-1.706l133.063 76.767c1.706.975 3.168 3.412 3.168 5.362 0 1.949-1.462 2.924-3.168 1.706zM671.561 606.31l-118.197-68.237c-1.706-.975-3.168-3.412-3.168-5.362 0-1.949 1.462-2.924 3.168-1.706l118.197 68.238c1.706.975 3.168 3.412 3.168 5.361 0 1.95-1.462 2.681-3.168 1.706z" fill="#fff"/><path d="M726.395 637.992l-40.212-23.152c-1.706-.975-3.168-3.412-3.168-5.362 0-1.949 1.462-2.924 3.168-1.706l40.212 23.152c1.706.975 3.168 3.412 3.168 5.362 0 1.95-1.219 2.681-3.168 1.706z" fill="#FEAD6F"/><path d="M574.566 615.571l-21.202-12.185c-1.706-.975-3.168-3.412-3.168-5.362 0-1.949 1.462-2.924 3.168-1.706l21.202 12.186c1.706.975 3.168 3.412 3.168 5.361 0 1.95-1.462 2.681-3.168 1.706z" fill="#fff"/><path d="M616.727 639.942l-27.539-15.841c-1.706-.975-3.168-3.412-3.168-5.362 0-1.949 1.462-2.924 3.168-1.706l27.539 15.841c1.706.975 3.168 3.412 3.168 5.362 0 1.949-1.462 2.68-3.168 1.706z" fill="#FC66FD"/><path d="M667.419 669.186l-35.825-20.715c-1.706-.975-3.168-3.412-3.168-5.361 0-1.95 1.462-2.925 3.168-1.706l35.825 20.715c1.706.975 3.168 3.412 3.168 5.361 0 1.95-1.462 2.681-3.168 1.706z" fill="#34C2C8"/><path d="M684.233 678.934l-2.193-1.218c-1.706-.975-3.168-3.412-3.168-5.362 0-1.949 1.462-2.924 3.168-1.706l2.193 1.219c1.706.975 3.168 3.412 3.168 5.361 0 1.95-1.462 2.681-3.168 1.706zM726.394 703.305l-27.538-15.841c-1.706-.975-3.168-3.412-3.168-5.362 0-1.949 1.462-2.924 3.168-1.705l27.538 15.84c1.706.975 3.168 3.412 3.168 5.362 0 1.949-1.218 2.681-3.168 1.706zM677.897 588.276l-46.547-26.807c-1.706-.975-3.168-3.412-3.168-5.362 0-1.95 1.462-2.924 3.168-1.706l46.547 26.808c1.706.974 3.169 3.412 3.169 5.361 0 1.706-1.463 2.681-3.169 1.706zM627.207 515.408l-73.843-42.648c-1.706-.975-3.168-3.412-3.168-5.361 0-1.95 1.462-2.925 3.168-1.706l73.843 42.648c1.705.975 3.168 3.412 3.168 5.361 0 1.95-1.219 2.681-3.168 1.706zM663.275 536.123l-21.203-12.185c-1.705-.975-3.168-3.412-3.168-5.361 0-1.95 1.463-2.925 3.168-1.706l21.203 12.185c1.706.975 3.168 3.412 3.168 5.361 0 1.95-1.462 2.681-3.168 1.706zM715.916 566.586l-38.018-21.933c-1.706-.975-3.169-3.412-3.169-5.362 0-1.949 1.463-2.924 3.169-1.705l38.018 21.933c1.706.975 3.168 3.412 3.168 5.361 0 1.95-1.462 2.681-3.168 1.706zM568.23 437.667l-14.866-8.53c-1.706-.975-3.168-3.412-3.168-5.362 0-1.949 1.462-2.924 3.168-1.706l14.866 8.53c1.706.975 3.168 3.412 3.168 5.362 0 1.949-1.462 2.68-3.168 1.706zM633.543 475.441l-50.69-29.245c-1.706-.975-3.168-3.412-3.168-5.361 0-1.95 1.462-2.925 3.168-1.706l50.69 29.244c1.706.975 3.169 3.412 3.169 5.362 0 1.949-1.219 2.681-3.169 1.706z" fill="#fff"/><path d="M686.427 505.904l-38.018-21.934c-1.706-.974-3.168-3.411-3.168-5.361 0-1.95 1.462-2.924 3.168-1.706l38.018 21.933c1.706.975 3.168 3.412 3.168 5.362 0 1.95-1.462 2.681-3.168 1.706z" fill="#FE7F77"/><path d="M703.243 515.652l-2.193-1.218c-1.706-.975-3.169-3.412-3.169-5.362 0-1.95 1.463-2.924 3.169-1.706l2.193 1.219c1.706.974 3.168 3.411 3.168 5.361 0 1.95-1.462 2.681-3.168 1.706zM608.441 482.508l-38.018-21.933c-1.706-.975-3.168-3.412-3.168-5.362 0-1.949 1.462-2.924 3.168-1.706l38.018 21.934c1.706.975 3.168 3.412 3.168 5.361-.244 1.95-1.462 2.681-3.168 1.706z" fill="#fff"/><path d="M720.059 547.09l-96.995-56.052c-1.706-.975-3.168-3.412-3.168-5.362 0-1.949 1.462-2.924 3.168-1.706l96.995 56.053c1.706.974 3.168 3.411 3.168 5.361 0 1.95-1.219 2.681-3.168 1.706z" fill="#50D9F9"/><path d="M749.79 564.149l-14.866-8.529c-1.706-.975-3.168-3.412-3.168-5.362 0-1.949 1.462-2.924 3.168-1.706l14.866 8.53c1.706.975 3.168 3.412 3.168 5.361 0 1.95-1.462 2.681-3.168 1.706z" fill="#FEAD6F"/><path d="M534.355 374.547l-2.194-1.219c-1.706-.975-3.168-3.412-3.168-5.361 0-1.95 1.462-2.925 3.168-1.706l2.194 1.218c1.706.975 3.168 3.412 3.168 5.362 0 1.95-1.219 2.681-3.168 1.706zM534.355 396.237l-2.194-1.219c-1.706-.975-3.168-3.412-3.168-5.361 0-1.95 1.462-2.925 3.168-1.706l2.194 1.218c1.706.975 3.168 3.412 3.168 5.362 0 1.949-1.219 2.924-3.168 1.706zM534.355 418.17l-2.194-1.218c-1.706-.975-3.168-3.412-3.168-5.362 0-1.95 1.462-2.924 3.168-1.706l2.194 1.219c1.706.974 3.168 3.411 3.168 5.361 0 1.95-1.219 2.681-3.168 1.706zM534.355 439.86l-2.194-1.219c-1.706-.974-3.168-3.412-3.168-5.361 0-1.95 1.462-2.925 3.168-1.706l2.194 1.218c1.706.975 3.168 3.412 3.168 5.362 0 1.95-1.219 2.681-3.168 1.706zM534.355 461.793l-2.194-1.218c-1.706-.975-3.168-3.412-3.168-5.362 0-1.949 1.462-2.924 3.168-1.706l2.194 1.219c1.706.975 3.168 3.412 3.168 5.361 0 1.95-1.219 2.681-3.168 1.706zM534.355 483.483l-2.194-1.219c-1.706-.974-3.168-3.411-3.168-5.361 0-1.95 1.462-2.925 3.168-1.706l2.194 1.218c1.706.975 3.168 3.412 3.168 5.362 0 1.95-1.219 2.681-3.168 1.706zM534.355 505.416l-2.194-1.218c-1.706-.975-3.168-3.412-3.168-5.362 0-1.949 1.462-2.924 3.168-1.706l2.194 1.219c1.706.975 3.168 3.412 3.168 5.362 0 1.705-1.219 2.68-3.168 1.705zM534.355 527.106l-2.194-1.218c-1.706-.975-3.168-3.412-3.168-5.362 0-1.95 1.462-2.924 3.168-1.706l2.194 1.219c1.706.974 3.168 3.412 3.168 5.361 0 1.95-1.219 2.681-3.168 1.706zM534.355 548.796l-2.194-1.219c-1.706-.974-3.168-3.411-3.168-5.361 0-1.95 1.462-2.925 3.168-1.706l2.194 1.218c1.706.975 3.168 3.412 3.168 5.362 0 1.95-1.219 2.925-3.168 1.706zM534.355 570.729l-2.194-1.218c-1.706-.975-3.168-3.412-3.168-5.362 0-1.949 1.462-2.924 3.168-1.706l2.194 1.219c1.706.975 3.168 3.412 3.168 5.361 0 1.95-1.219 2.681-3.168 1.706zM534.355 592.419l-2.194-1.218c-1.706-.975-3.168-3.412-3.168-5.362 0-1.95 1.462-2.924 3.168-1.706l2.194 1.219c1.706.975 3.168 3.412 3.168 5.361 0 1.95-1.219 2.681-3.168 1.706z" fill="#666B76"/></svg>
