<svg width="1440" height="900" fill="none" xmlns="http://www.w3.org/2000/svg"><path d="M503.404 299.242l334.119 192.771c4.631 2.68 8.53 9.26 8.53 14.622v295.614c0 5.362-3.899 7.555-8.53 4.874l-334.119-192.77c-4.631-2.681-8.53-9.261-8.53-14.623V304.116c.244-5.361 3.899-7.555 8.53-4.874z" fill="#666B76"/><path d="M498.53 301.679L832.649 494.45c4.631 2.68 8.53 9.26 8.53 14.622v295.614c0 5.362-3.899 7.555-8.53 4.874L498.53 616.79c-4.631-2.681-8.53-9.261-8.53-14.623V306.553c.244-5.361 3.899-7.555 8.53-4.874z" fill="url(#prefix__paint0_linear)"/><defs><linearGradient id="prefix__paint0_linear" x1="490.207" y1="555.583" x2="841.142" y2="555.583" gradientUnits="userSpaceOnUse"><stop stop-color="#333A48"/><stop offset="1" stop-color="#1A2231"/></linearGradient></defs></svg>
