<svg width="1440" height="900" fill="none" xmlns="http://www.w3.org/2000/svg"><path d="M499.874 181.018v70.675c0 5.361 3.899 11.941 8.53 14.622l139.155 80.423c4.631 2.68 8.53.487 8.53-4.874v-70.675c0-5.361-3.899-11.941-8.53-14.622l-139.155-80.423c-4.874-2.681-8.53-.487-8.53 4.874z" fill="#80848D"/><path d="M495 183.455v70.675c0 5.361 3.899 11.941 8.53 14.622l139.155 80.423c4.631 2.68 8.53.487 8.53-4.874v-70.675c0-5.361-3.899-11.941-8.53-14.622L503.53 178.581c-4.874-2.681-8.53-.487-8.53 4.874z" fill="#4D535F"/><path d="M585.659 262.416l-48.985-28.27c-1.462-.975-2.681-3.168-2.681-5.118 0-1.95 1.219-2.924 2.681-1.95l48.985 28.27c1.462.975 2.68 3.168 2.68 5.118 0 1.95-1.218 2.924-2.68 1.95zM553.977 268.508l-17.303-9.992c-1.462-.974-2.681-3.168-2.681-5.117 0-1.95 1.219-2.925 2.681-1.95l17.303 9.992c1.462.975 2.681 3.168 2.681 5.118 0 1.706-1.219 2.68-2.681 1.949zM596.137 292.879l-27.782-16.085c-1.462-.975-2.681-3.168-2.681-5.118 0-1.949 1.219-2.924 2.681-1.949l27.782 16.084c1.463.975 2.681 3.168 2.681 5.118 0 1.706-1.218 2.681-2.681 1.95zM523.876 227.573c2.094-1.223 2.082-5.135-.024-8.737-2.106-3.602-5.51-5.529-7.601-4.308-2.091 1.223-2.079 5.135.027 8.736 2.105 3.602 5.507 5.533 7.598 4.309z" fill="#fff"/></svg>
