<svg width="1440" height="900" fill="none" xmlns="http://www.w3.org/2000/svg"><path d="M1036.89 433.557c0-5.361-3.9-11.941-8.53-14.622L616.254 181.079c-4.631-2.681-8.53-.488-8.53 4.874v1.218c-2.924 0-4.874 2.194-4.874 6.093v350.448l-35.094 60.682-76.767 44.355 3.9 2.193-8.774 5.118 131.601 76.036c29.245 17.059 60.195 27.782 75.548 27.051 4.143.244 7.312-.487 9.505-1.706 4.874-2.924 11.454-4.387 17.79-4.63 6.58.243 13.161 1.706 18.278 4.63 6.337 3.656 8.774 8.53 8.043 13.16-.732.731-1.706 1.219-2.681 1.95-2.925 1.706-4.387 4.143-4.387 7.067-.244 0-.244.244-.487.244-10.723 6.092-1.706 21.202 19.74 33.631 15.597 9.017 24.37 19.253 24.127 26.564-4.387 2.681-6.824 5.849-7.555 9.261-7.555 6.336-6.58 14.866 2.924 20.471 3.412 1.95 8.53 2.924 14.379 2.681 12.916.243 30.707-4.874 46.304-13.648 14.622-8.286 31.194-13.404 43.867-13.647 4.874 0 9.017.975 11.941 2.68 6.336 3.656 8.774 8.53 8.042 13.161-.731.731-1.706 1.218-2.924 1.949-4.387 2.681-7.067 5.849-7.799 9.261-7.554 6.093-6.58 14.866 3.169 20.471 3.411 1.95 8.529 2.925 14.378 2.681 12.917.244 30.951-4.874 46.548-13.891 21.446-12.429 38.993-22.421 38.993-22.421S1023 843.225 1031.77 811.3c3.17-7.799 5.12-16.816 5.12-27.051V433.557z" fill="#666B76"/><path d="M1023.48 421.372c4.64 2.681 8.53 9.261 8.53 14.622v350.448c0 45.085-38.988 67.506-38.988 67.506s-17.547 9.992-38.993 22.421c-21.446 12.429-47.766 17.547-58.489 11.211-10.723-6.337-10.967-16.329-.244-22.421 10.723-6.093 10.479-16.085-.244-22.421-10.723-6.337-36.799-1.219-58.245 11.21-21.446 12.429-47.523 17.303-58.246 11.211-10.723-6.093-10.723-16.329 0-22.421 10.723-6.337 1.95-21.446-19.496-33.875-21.446-12.429-30.463-27.539-19.74-33.632 10.723-6.092 10.479-16.084-.244-22.42-10.723-6.337-28.026-6.337-38.749-.244-10.723 6.093-47.523-5.362-82.616-25.589l-131.601-76.036 77.986-45.085 38.993-67.507V188.146c0-5.361 3.899-7.555 8.529-4.874l411.857 238.1z" fill="url(#prefix__paint0_linear)"/><path d="M602.363 628.277l390.659 225.671s38.988-22.421 38.988-67.506L603.094 538.594l-.731 89.683z" fill="url(#prefix__paint1_linear)"/><path d="M993.022 853.948l-390.66-225.427-77.498 45.329 92.852 53.615c34.85 20.228 71.893 31.682 82.616 25.589 10.723-6.092 28.026-6.092 38.749.244 10.723 6.336 10.967 16.328.244 22.421s-1.706 21.202 19.74 33.631c21.446 12.429 30.219 27.539 19.496 33.875-10.723 6.093-10.723 16.085-.244 22.421h.244c10.723 6.093 36.8 1.219 58.246-11.21 21.446-12.429 47.522-17.303 58.245-11.211 10.723 6.336 10.967 16.328.244 22.421s-10.479 16.085.244 22.421c10.723 6.336 37.043 1.218 58.489-11.211 21.446-12.916 38.993-22.908 38.993-22.908z" fill="#0B1223"/><path d="M755.41 318.772l-89.44-51.665c-1.462-.975-2.68-3.169-2.68-5.118 0-1.95 1.218-2.925 2.68-1.95l89.44 51.666c1.462.974 2.681 3.168 2.681 5.117 0 1.95-1.219 2.925-2.681 1.95zM708.862 313.898L665.97 289.04c-1.462-.975-2.68-3.168-2.68-5.118 0-1.949 1.218-2.924 2.68-1.949l43.136 24.858c1.462.974 2.681 3.168 2.681 5.117 0 1.706-1.219 2.681-2.925 1.95zM730.065 435.019l-64.095-37.043c-1.462-.975-2.68-3.168-2.68-5.118 0-1.949 1.218-2.924 2.68-1.949l64.095 37.043c1.462.975 2.68 3.168 2.68 5.118 0 1.949-1.218 2.68-2.68 1.949zM719.585 472.55l-36.799-21.203c-1.462-.974-2.681-3.168-2.681-5.117 0-1.95 1.219-2.925 2.681-1.95l36.799 21.202c1.462.975 2.681 3.169 2.681 5.118 0 1.95-1.219 2.681-2.681 1.95zM820.722 531.039l-87.49-50.447c-1.462-.975-2.681-3.168-2.681-5.118 0-1.949 1.219-2.924 2.681-1.949l87.49 50.447c1.462.974 2.681 3.168 2.681 5.117.244 1.95-.975 2.681-2.681 1.95zM784.898 488.391l-119.172-68.725c-1.462-.975-2.681-3.168-2.681-5.118 0-1.95 1.219-2.924 2.681-1.95l119.172 68.725c1.462.975 2.681 3.168 2.681 5.118 0 1.95-1.219 2.924-2.681 1.95z" fill="#fff"/><path d="M858.741 531.039l-59.952-34.606c-1.462-.975-2.681-3.168-2.681-5.118 0-1.95 1.219-2.924 2.681-1.95l59.952 34.607c1.462.974 2.68 3.168 2.68 5.117.244 1.95-.975 2.925-2.68 1.95z" fill="#FC66FD"/><path d="M687.904 475.962l-21.934-12.673c-1.462-.975-2.68-3.168-2.68-5.118 0-1.949 1.218-2.924 2.68-1.949l21.934 12.672c1.462.975 2.68 3.168 2.68 5.118 0 1.95-1.218 2.924-2.68 1.95z" fill="#fff"/><path d="M759.552 517.392l-57.758-33.388c-1.462-.975-2.681-3.168-2.681-5.118 0-1.95 1.219-2.924 2.681-1.949l57.758 33.387c1.462.975 2.681 3.168 2.681 5.118.244 1.949-.975 2.924-2.681 1.95z" fill="#FC66FD"/><path d="M831.445 558.821l-58.002-33.387c-1.462-.975-2.681-3.168-2.681-5.118 0-1.95 1.219-2.924 2.681-1.95l57.758 33.388c1.462.975 2.681 3.168 2.681 5.118.244 1.949-.975 2.924-2.437 1.949z" fill="#50D9F9"/><path d="M848.261 568.57l-2.925-1.706c-1.462-.975-2.681-3.169-2.681-5.118 0-1.95 1.219-2.925 2.681-1.95l2.925 1.706c1.462.975 2.68 3.168 2.68 5.118 0 1.95-1.218 2.924-2.68 1.95zM884.086 589.285l-21.934-12.673c-1.462-.975-2.68-3.168-2.68-5.118 0-1.95 1.218-2.924 2.68-1.95l21.934 12.673c1.462.975 2.681 3.168 2.681 5.118 0 1.949-1.219 2.924-2.681 1.95zM687.904 519.585l-21.934-12.673c-1.462-.974-2.68-3.168-2.68-5.117 0-1.95 1.218-2.925 2.68-1.95l21.934 12.673c1.462.974 2.68 3.168 2.68 5.117 0 1.95-1.218 2.925-2.68 1.95zM787.092 598.789L665.97 528.846c-1.462-.975-2.68-3.168-2.68-5.118 0-1.95 1.218-2.925 2.68-1.95l121.122 69.944c1.462.974 2.68 3.168 2.68 5.117 0 1.706-1.218 2.681-2.68 1.95z" fill="#fff"/><path d="M803.906 586.604l-102.112-58.977c-1.462-.975-2.681-3.168-2.681-5.118 0-1.949 1.219-2.924 2.681-1.949l102.112 58.976c1.463.975 2.681 3.169 2.681 5.118 0 1.95-1.218 2.925-2.681 1.95z" fill="#FC66FD"/><path d="M844.118 609.756l-26.321-15.11c-1.462-.975-2.68-3.168-2.68-5.118 0-1.949 1.218-2.924 2.68-1.949l26.321 15.109c1.462.975 2.68 3.169 2.68 5.118 0 1.95-1.218 2.925-2.68 1.95z" fill="#50D9F9"/><path d="M860.934 619.504l-2.925-1.706c-1.462-.975-2.68-3.168-2.68-5.118 0-1.949 1.218-2.924 2.68-1.949l2.925 1.706c1.462.974 2.681 3.168 2.681 5.117 0 1.95-1.219 2.925-2.681 1.95zM909.43 647.53l-34.606-19.984c-1.462-.975-2.68-3.168-2.68-5.118 0-1.949 1.218-2.924 2.68-1.949l34.606 19.984c1.463.975 2.681 3.168 2.681 5.117 0 1.95-1.218 2.925-2.681 1.95zM791.234 470.356l-47.278-27.295c-1.463-.974-2.681-3.168-2.681-5.117 0-1.95 1.218-2.925 2.681-1.95l47.278 27.295c1.463.975 2.681 3.168 2.681 5.118 0 1.949-1.218 2.68-2.681 1.949z" fill="#fff"/><path d="M867.27 405.287L722.753 321.94c-1.462-.975-2.681-3.168-2.681-5.118 0-1.949 1.219-2.924 2.681-1.949L867.27 398.22c1.462.975 2.681 3.168 2.681 5.118 0 1.706-1.219 2.68-2.681 1.949z" fill="#FF757A"/><path d="M778.562 419.422l-112.836-65.069c-1.462-.975-2.681-3.168-2.681-5.118 0-1.95 1.219-2.924 2.681-1.95l112.836 65.07c1.462.975 2.68 3.168 2.68 5.117 0 1.95-1.218 2.925-2.68 1.95zM772.225 372.143l-89.439-51.665c-1.462-.975-2.681-3.168-2.681-5.118 0-1.949 1.219-2.924 2.681-1.949l89.439 51.665c1.463.975 2.681 3.168 2.681 5.118 0 1.949-1.218 2.924-2.681 1.949z" fill="#fff"/><path d="M875.8 431.851l-89.44-51.665c-1.462-.975-2.681-3.168-2.681-5.118 0-1.95 1.219-2.924 2.681-1.95l89.44 51.666c1.462.975 2.68 3.168 2.68 5.118 0 1.949-1.218 2.924-2.68 1.949z" fill="#FC66FD"/><path d="M907.481 450.129l-15.597-9.017c-1.462-.975-2.681-3.168-2.681-5.118 0-1.949 1.219-2.924 2.681-1.949l15.597 9.017c1.462.974 2.681 3.168 2.681 5.117 0 1.95-1.219 2.925-2.681 1.95z" fill="#FEAD6F"/><path d="M974.988 489.122l-53.615-30.951c-1.463-.975-2.681-3.168-2.681-5.117 0-1.95 1.218-2.925 2.681-1.95l53.615 30.95c1.462.975 2.681 3.169 2.681 5.118 0 1.95-1.219 2.925-2.681 1.95zM772.225 394.077l-89.439-51.666c-1.462-.974-2.681-3.168-2.681-5.117 0-1.95 1.219-2.925 2.681-1.95l89.439 51.665c1.463.975 2.681 3.169 2.681 5.118 0 1.706-1.218 2.681-2.681 1.95z" fill="#fff"/><path d="M875.8 453.785l-89.44-51.666c-1.462-.975-2.681-3.168-2.681-5.118 0-1.949 1.219-2.924 2.681-1.949l89.44 51.665c1.462.975 2.68 3.168 2.68 5.118 0 1.706-1.218 2.681-2.68 1.95z" fill="#FC66FD"/><path d="M907.481 472.062l-15.597-9.017c-1.462-.974-2.681-3.168-2.681-5.117 0-1.95 1.219-2.925 2.681-1.95l15.597 9.017c1.462.975 2.681 3.168 2.681 5.118 0 1.706-1.219 2.681-2.681 1.949z" fill="#FEAD6F"/><path d="M974.988 511.055l-53.615-30.95c-1.463-.975-2.681-3.168-2.681-5.118 0-1.95 1.218-2.924 2.681-1.95l53.615 30.951c1.462.975 2.681 3.168 2.681 5.118 0 1.706-1.219 2.68-2.681 1.949z" fill="#fff"/><path d="M647.692 256.627l-2.925-1.706c-1.462-.974-2.681-3.168-2.681-5.117 0-1.95 1.219-2.925 2.681-1.95l2.925 1.706c1.462.975 2.68 3.168 2.68 5.118.244 1.949-.974 2.924-2.68 1.949zM647.692 278.561l-2.925-1.706c-1.462-.975-2.681-3.168-2.681-5.118 0-1.95 1.219-2.924 2.681-1.95l2.925 1.706c1.462.975 2.68 3.168 2.68 5.118.244 1.706-.974 2.681-2.68 1.95zM647.692 300.25l-2.925-1.705c-1.462-.975-2.681-3.169-2.681-5.118 0-1.95 1.219-2.925 2.681-1.95l2.925 1.706c1.462.975 2.68 3.168 2.68 5.118.244 1.949-.974 2.924-2.68 1.949zM647.692 322.184l-2.925-1.706c-1.462-.975-2.681-3.168-2.681-5.118 0-1.949 1.219-2.924 2.681-1.949l2.925 1.705c1.462.975 2.68 3.169 2.68 5.118.244 1.706-.974 2.681-2.68 1.95zM647.692 343.874l-2.925-1.706c-1.462-.975-2.681-3.169-2.681-5.118 0-1.95 1.219-2.925 2.681-1.95l2.925 1.706c1.462.975 2.68 3.168 2.68 5.118.244 1.95-.974 2.924-2.68 1.95zM647.692 365.563l-2.925-1.706c-1.462-.974-2.681-3.168-2.681-5.117 0-1.95 1.219-2.925 2.681-1.95l2.925 1.706c1.462.975 2.68 3.168 2.68 5.118.244 1.949-.974 2.924-2.68 1.949zM647.692 387.497l-2.925-1.706c-1.462-.975-2.681-3.168-2.681-5.118 0-1.95 1.219-2.925 2.681-1.95l2.925 1.706c1.462.975 2.68 3.168 2.68 5.118.244 1.95-.974 2.681-2.68 1.95zM647.692 409.187l-2.925-1.706c-1.462-.975-2.681-3.169-2.681-5.118 0-1.95 1.219-2.925 2.681-1.95l2.925 1.706c1.462.975 2.68 3.168 2.68 5.118.244 1.95-.974 2.924-2.68 1.95zM647.692 431.12l-2.925-1.706c-1.462-.975-2.681-3.168-2.681-5.118 0-1.949 1.219-2.924 2.681-1.949l2.925 1.705c1.462.975 2.68 3.169 2.68 5.118.244 1.95-.974 2.681-2.68 1.95zM647.692 452.81l-2.925-1.706c-1.462-.975-2.681-3.168-2.681-5.118 0-1.95 1.219-2.924 2.681-1.95l2.925 1.706c1.462.975 2.68 3.168 2.68 5.118.244 1.95-.974 2.925-2.68 1.95zM647.692 474.743l-2.925-1.706c-1.462-.975-2.681-3.168-2.681-5.118 0-1.949 1.219-2.924 2.681-1.949l2.925 1.706c1.462.975 2.68 3.168 2.68 5.118.244 1.705-.974 2.68-2.68 1.949zM647.692 496.433l-2.925-1.706c-1.462-.975-2.681-3.168-2.681-5.118 0-1.949 1.219-2.924 2.681-1.949l2.925 1.706c1.462.974 2.68 3.168 2.68 5.117.244 1.95-.974 2.925-2.68 1.95zM647.692 518.367l-2.925-1.706c-1.462-.975-2.681-3.169-2.681-5.118 0-1.95 1.219-2.925 2.681-1.95l2.925 1.706c1.462.975 2.68 3.168 2.68 5.118.244 1.706-.974 2.681-2.68 1.95z" fill="#333A48"/><path d="M708.862 575.393l-43.136-24.858c-1.462-.974-2.681-3.168-2.681-5.117 0-1.95 1.219-2.925 2.681-1.95l43.136 24.858c1.462.975 2.681 3.168 2.681 5.118.243 1.949-.975 2.924-2.681 1.949z" fill="#fff"/><path d="M867.27 666.783l-144.517-83.347c-1.462-.975-2.681-3.169-2.681-5.118 0-1.95 1.219-2.925 2.681-1.95l144.517 83.347c1.462.975 2.681 3.168 2.681 5.118 0 1.95-1.219 2.925-2.681 1.95z" fill="#FF757A"/><path d="M772.225 633.639l-89.439-51.666c-1.462-.975-2.681-3.168-2.681-5.118 0-1.949 1.219-2.924 2.681-1.949l89.439 51.665c1.463.975 2.681 3.168 2.681 5.118 0 1.95-1.218 2.924-2.681 1.95z" fill="#fff"/><path d="M875.8 693.346l-89.44-51.665c-1.462-.975-2.681-3.168-2.681-5.118 0-1.949 1.219-2.924 2.681-1.949l89.44 51.665c1.462.975 2.68 3.168 2.68 5.118 0 1.95-1.218 2.924-2.68 1.949z" fill="#FC66FD"/><path d="M907.481 711.624l-15.597-9.017c-1.462-.975-2.681-3.168-2.681-5.118 0-1.949 1.219-2.924 2.681-1.949l15.597 9.017c1.462.975 2.681 3.168 2.681 5.118 0 1.949-1.219 2.924-2.681 1.949z" fill="#FEAD6F"/><path d="M974.988 750.617l-53.615-30.95c-1.463-.975-2.681-3.168-2.681-5.118 0-1.95 1.218-2.925 2.681-1.95l53.615 30.951c1.462.975 2.681 3.168 2.681 5.118 0 1.949-1.219 2.924-2.681 1.949zM771.251 654.841l-89.44-51.665c-1.462-.975-2.681-3.168-2.681-5.118 0-1.95 1.219-2.924 2.681-1.95l89.44 51.666c1.462.975 2.681 3.168 2.681 5.118 0 1.949-1.219 2.924-2.681 1.949z" fill="#fff"/><path d="M874.581 714.549l-89.439-51.666c-1.463-.974-2.681-3.168-2.681-5.117 0-1.95 1.218-2.925 2.681-1.95l89.439 51.666c1.463.974 2.681 3.168 2.681 5.117.244 1.95-1.218 2.925-2.681 1.95z" fill="#FC66FD"/><path d="M906.262 732.827l-15.597-9.017c-1.462-.975-2.681-3.168-2.681-5.118 0-1.95 1.219-2.925 2.681-1.95l15.597 9.017c1.462.975 2.681 3.169 2.681 5.118 0 1.95-1.219 2.925-2.681 1.95z" fill="#FEAD6F"/><path d="M973.769 771.82l-53.615-30.951c-1.462-.975-2.681-3.168-2.681-5.118 0-1.949 1.219-2.924 2.681-1.949l53.615 30.95c1.462.975 2.681 3.168 2.681 5.118.243 1.95-.975 2.924-2.681 1.95z" fill="#fff"/><path d="M647.692 518.367l-2.925-1.706c-1.462-.975-2.681-3.169-2.681-5.118 0-1.95 1.219-2.925 2.681-1.95l2.925 1.706c1.462.975 2.68 3.168 2.68 5.118 0 1.706-1.218 2.681-2.68 1.95zM647.692 540.056l-2.925-1.706c-1.462-.975-2.681-3.168-2.681-5.118 0-1.949 1.219-2.924 2.681-1.949l2.925 1.706c1.462.975 2.68 3.168 2.68 5.118 0 1.949-1.218 2.924-2.68 1.949zM647.692 561.746l-2.925-1.706c-1.462-.975-2.681-3.168-2.681-5.118 0-1.95 1.219-2.924 2.681-1.95l2.925 1.706c1.462.975 2.68 3.169 2.68 5.118 0 1.95-1.218 2.925-2.68 1.95zM646.717 582.948l-2.924-1.706c-1.463-.975-2.681-3.168-2.681-5.118 0-1.949 1.218-2.924 2.681-1.949l2.924 1.706c1.462.975 2.681 3.168 2.681 5.118 0 1.949-1.219 2.924-2.681 1.949z" fill="#333A48"/><path d="M747.689 824.708c.046-8.749-12.244-15.906-27.454-15.989-15.209-.083-27.577 6.943-27.624 15.692-.048 8.749 12.244 15.907 27.454 15.99 15.207.082 27.575-6.944 27.624-15.693z" fill="#666B76"/><path d="M747.664 820.102c.049-8.749-12.244-15.909-27.453-15.989-15.208-.083-27.576 6.94-27.624 15.689-.047 8.749 12.243 15.91 27.453 15.992 15.21.081 27.578-6.943 27.624-15.692z" fill="#0B1223"/><path d="M559.714 235.181l-31.925-18.521c-1.462-.975-2.681-3.169-2.681-5.118 0-1.95 1.219-2.925 2.681-1.95l31.925 18.522c1.463.975 2.681 3.168 2.681 5.118 0 1.949-1.218 2.924-2.681 1.949zM547.042 251.997l-19.253-11.211c-1.462-.974-2.681-3.168-2.681-5.117 0-1.95 1.219-2.925 2.681-1.95l19.253 11.21c1.462.975 2.681 3.169 2.681 5.118 0 1.95-1.219 2.925-2.681 1.95zM580.916 271.493l-19.252-11.21c-1.463-.975-2.681-3.168-2.681-5.118 0-1.95 1.218-2.924 2.681-1.95l19.252 11.211c1.463.975 2.681 3.168 2.681 5.118 0 1.949-1.218 2.924-2.681 1.949zM515.014 210.063c2.091-1.224 2.079-5.135-.027-8.737-2.105-3.602-5.507-5.532-7.598-4.309-2.094 1.223-2.082 5.135.024 8.737 2.106 3.602 5.508 5.53 7.601 4.309zM563.857 417.473l-36.312-20.959c-1.462-.975-2.681-3.168-2.681-5.118 0-1.95 1.219-2.924 2.681-1.95l36.312 20.959c1.462.975 2.681 3.168 2.681 5.118 0 1.95-1.219 2.924-2.681 1.95zM582.866 452.81l-55.321-31.926c-1.462-.974-2.681-3.168-2.681-5.117 0-1.95 1.219-2.925 2.681-1.95l55.321 31.925c1.462.975 2.681 3.168 2.681 5.118 0 1.706-1.219 2.681-2.681 1.95zM515.084 390.112c2.091-1.224 2.079-5.135-.027-8.737-2.105-3.602-5.507-5.532-7.598-4.309-2.091 1.224-2.082 5.135.024 8.737 2.108 3.602 5.51 5.53 7.601 4.309zM585.303 339.487l-57.271-33.144c-1.462-.975-2.68-3.168-2.68-5.118 0-1.949 1.218-2.924 2.68-1.949l57.271 33.144c1.462.974 2.681 3.168 2.681 5.117 0 1.95-1.219 2.925-2.681 1.95zM547.285 341.924l-19.253-11.21c-1.462-.975-2.68-3.169-2.68-5.118 0-1.95 1.218-2.925 2.68-1.95l19.253 11.211c1.462.974 2.681 3.168 2.681 5.117 0 1.706-1.219 2.681-2.681 1.95zM568.488 354.109l-6.58-3.899c-1.462-.975-2.681-3.168-2.681-5.118 0-1.949 1.219-2.924 2.681-1.949l6.58 3.899c1.462.975 2.681 3.168 2.681 5.118 0 1.706-1.219 2.68-2.681 1.949zM515.342 299.975c2.091-1.223 2.081-5.135-.027-8.737-2.105-3.602-5.507-5.529-7.598-4.308-2.091 1.223-2.082 5.134.026 8.736 2.106 3.602 5.508 5.532 7.599 4.309z" fill="#666B76"/><defs><linearGradient id="prefix__paint0_linear" x1="759.028" y1="890.319" x2="759.028" y2="182.241" gradientUnits="userSpaceOnUse"><stop/><stop offset="1" stop-color="#000919"/></linearGradient><linearGradient id="prefix__paint1_linear" x1="821.858" y1="665.033" x2="782.865" y2="732.568" gradientUnits="userSpaceOnUse"><stop/><stop offset="1" stop-color="#070E20"/></linearGradient></defs></svg>
