<svg width="1440" height="900" fill="none" xmlns="http://www.w3.org/2000/svg"><path d="M993.021 583.679l-77.985 45.086v135.012l116.974 67.507 77.99-45.086V651.186l-116.979-67.507z" fill="#F7DF1E"/><path d="M993.021 583.679L1110 651.186l-77.99 45.085-116.974-67.506 77.985-45.086z" fill="url(#prefix__paint0_linear)"/><path d="M915.036 763.777V628.765l116.974 67.506v135.013l-116.974-67.507z" fill="#F7DF1E"/><path d="M1110 651.186v135.012l-77.99 45.086V696.271l77.99-45.085z" fill="url(#prefix__paint1_linear)"/><path d="M945.742 758.659l9.017-.974c1.706 4.63 3.412 8.286 7.068 10.479 3.655 2.193 5.849 1.706 5.849-4.63v-42.893l10.966 6.337v43.135c0 13.161-6.58 15.11-16.328 9.505-8.773-4.874-13.891-13.16-16.572-20.959zm38.993 21.203l9.017-.731c2.437 5.849 5.362 10.723 10.728 13.891 4.63 2.681 7.55 1.706 7.55-1.95 0-4.387-2.92-7.555-8.04-12.916l-2.68-2.925c-8.045-8.529-13.163-16.328-13.163-26.564 0-9.504 6.336-13.16 16.083-7.311 7.07 4.143 11.94 9.749 15.6 19.009l-8.53 1.463c-1.95-4.875-3.9-7.555-7.07-9.505-3.17-1.95-5.36-.731-5.36 2.437 0 3.899 1.95 6.58 6.82 11.454l2.68 2.925c9.27 9.992 14.63 17.79 14.63 28.269 0 11.455-7.8 13.161-18.28 7.068-10.237-6.093-16.817-15.597-19.985-24.614z" fill="#000"/><defs><linearGradient id="prefix__paint0_linear" x1="934.52" y1="594.956" x2="1090.44" y2="684.978" gradientUnits="userSpaceOnUse"><stop stop-color="#F2FF12"/><stop offset="1" stop-color="#F7DF1E"/></linearGradient><linearGradient id="prefix__paint1_linear" x1="1100.22" y1="791.862" x2="1041.74" y2="690.556" gradientUnits="userSpaceOnUse"><stop stop-color="#F7DF1E"/><stop offset="1" stop-color="#FEAD6F"/></linearGradient></defs></svg>
