<svg width="555" height="460" fill="none" xmlns="http://www.w3.org/2000/svg"><path opacity=".6" d="M401.649 431.571c-.336 0-.784-.112-1.12-.336L175.338 301.227c-1.792-1.008-3.359-3.695-3.359-5.711V118.364c0-.672.111-1.679 1.007-1.679.336 0 .784.112 1.12.336l225.191 130.12c1.792 1.008 3.359 3.695 3.359 5.711v177.04c0 .671-.111 1.679-1.007 1.679z" fill="#000" fill-opacity=".15"/><path d="M296.164 301.503c-3.023 0-6.271-1.008-9.63-2.912-11.422-6.607-20.716-22.62-20.716-35.721 0-6.607 2.239-11.534 6.383-13.886 4.143-2.463 9.63-1.904 15.453 1.456 11.422 6.607 20.716 22.62 20.716 35.721 0 6.607-2.239 11.534-6.383 13.886-1.791.896-3.695 1.456-5.823 1.456zm-18.14-51.847c-1.68 0-3.36.448-4.703 1.232-3.472 2.015-5.264 6.271-5.264 11.982 0 12.429 8.847 27.547 19.597 33.817 5.039 2.912 9.742 3.472 13.213 1.456 3.472-2.015 5.264-6.271 5.264-11.982 0-12.429-8.847-27.547-19.597-33.817-3.023-1.904-5.935-2.688-8.51-2.688z" fill="#000" fill-opacity=".05"/><path d="M281.719 264.101c0-1.12.896-1.12 1.903.112l10.862 13.438c.896 1.12.896 2.127 0 2.127l-10.862.784c-.895.112-1.903-.896-1.903-2.015v-14.446z" fill="#000" fill-opacity=".05"/></svg>
