<svg width="555" height="460" fill="none" xmlns="http://www.w3.org/2000/svg"><path opacity=".6" d="M353.26 424.935c-.336 0-.784-.112-1.12-.336L126.949 294.591c-1.791-1.008-3.359-3.696-3.359-5.711V111.728c0-.672.112-1.68 1.008-1.68.336 0 .784.112 1.119.336l225.191 130.121c1.792 1.007 3.36 3.695 3.36 5.711v177.039c0 .672-.112 1.68-1.008 1.68z" fill="#33A2F8" fill-opacity=".8"/><path d="M124.71 111.28c.112 0 .224.112.448.224l225.191 130.008c1.455.784 2.799 3.136 2.799 4.815v177.6c-.112 0-.224-.112-.448-.224l-225.191-130.12c-1.455-.784-2.799-3.136-2.799-4.815v-177.04-.448zm-.112-2.352c-1.232 0-2.128 1.008-2.128 2.8v177.04c0 2.463 1.792 5.487 3.92 6.718l225.19 130.009c.672.336 1.232.56 1.68.56 1.232 0 2.128-1.008 2.128-2.8v-177.04c0-2.463-1.792-5.487-3.919-6.718L126.39 109.488c-.672-.336-1.232-.56-1.792-.56z" fill="#33A2F8"/><path d="M247.775 294.866c-3.023 0-6.271-1.008-9.63-2.911-11.422-6.607-20.716-22.62-20.716-35.722 0-6.607 2.239-11.534 6.383-13.885 4.143-2.464 9.63-1.904 15.453 1.455 11.422 6.607 20.716 22.62 20.716 35.722 0 6.607-2.24 11.534-6.383 13.885-1.792.896-3.695 1.456-5.823 1.456zm-18.141-51.846c-1.679 0-3.359.447-4.703 1.231-3.471 2.016-5.263 6.271-5.263 11.982 0 12.43 8.847 27.547 19.597 33.818 5.039 2.911 9.742 3.471 13.213 1.456 3.472-2.016 5.263-6.271 5.263-11.982 0-12.43-8.846-27.547-19.596-33.818-3.024-1.904-5.935-2.687-8.511-2.687z" fill="#fff"/><path d="M233.33 257.465c0-1.12.896-1.12 1.904.112l10.862 13.438c.896 1.119.896 2.127 0 2.127l-10.862.784c-.896.112-1.904-.896-1.904-2.016v-14.445z" fill="#fff"/></svg>
