<svg width="355" height="300" viewBox="0 0 355 300" fill="none" xmlns="http://www.w3.org/2000/svg">
  <path fill-rule="evenodd" clip-rule="evenodd" d="M247.76 30.739C246.688 29.0569 244.841 26.5013 241.975 23.5862C237.285 18.8043 228.842 11.9431 215.189 6.74559C199.554 0.820313 181.837 1.44404 166.618 8.40878L166.098 8.61676L165.577 8.40878C150.078 2.87759 141.228 6.40383 137.526 8.72233C142.601 10.4778 152.008 16.0814 155.571 28.4718L153.069 29.1997C149.526 16.7252 139.207 11.7356 135.454 10.7999L140.458 29.0957L140.144 29.6154C140.083 29.6777 136.515 34.649 133.66 41.7044C133.771 41.6216 133.882 41.5422 133.997 41.4662C135.873 40.2185 138.164 39.9068 140.562 40.7383C145.875 42.505 149.73 48.3222 153.795 54.4528L153.8 54.4605C157.761 60.4895 161.824 66.6228 166.93 67.9742C170.491 68.8869 177.62 68.0191 185.898 67.0112L186.527 66.9347L186.708 66.9124C202.832 64.9411 222.833 62.4958 232.283 70.6771C239.265 76.6024 245.937 87.1017 237.808 103.111C235.991 106.732 231.41 114.217 229.084 118.012C228.74 118.574 228.446 119.055 228.218 119.431C229.261 120.679 230.824 123.278 230.093 126.5C229.881 127.485 229.48 128.428 228.887 129.328C231.521 128.015 234.057 126.572 236.469 125.01C236.659 124.661 237.016 124.45 237.405 124.396C237.613 124.256 237.821 124.115 238.03 123.973L237.912 123.797C237.998 123.746 238.226 123.677 238.575 123.597C238.946 123.338 239.312 123.075 239.679 122.81C238.048 122.294 236.622 121.951 235.514 121.822L235.826 119.223C237.459 119.419 239.663 120.013 242.183 120.903C246.289 117.623 249.891 113.956 252.814 109.972C261.581 98.065 261.635 80.2592 260.965 71.2449C260.235 72.9674 259.531 74.2516 258.965 74.9392L256.88 73.2757C258.757 70.8848 263.549 57.9948 262.196 46.456C261.468 40.6345 259.382 36.2687 255.732 33.3578C242.941 30.8254 227.953 42.7107 225.942 44.306L225.94 44.3065C225.806 44.4136 225.729 44.4741 225.716 44.4806L224.05 42.5057C224.636 42.0035 235.693 32.6756 247.76 30.739ZM240.24 125.838C241.471 125.614 243.457 125.352 245.756 125.111C248.235 126.175 250.864 127.436 253.434 128.807C251.475 129.64 249.278 130.534 246.93 131.461C244.602 129.227 242.262 127.27 240.24 125.838ZM244.283 132.494C241.921 130.301 239.6 128.452 237.717 127.261C228.439 133.225 217.449 137.497 206.101 139.522C212.218 139.643 219.953 139.381 228.858 138.187L228.842 138.143C234.061 136.332 239.416 134.371 244.283 132.494ZM244.633 135.122C245.192 134.903 245.753 134.681 246.317 134.456C246.373 134.512 246.427 134.568 246.484 134.624C245.864 134.795 245.247 134.961 244.633 135.122ZM248.905 133.426C251.864 132.235 254.267 131.22 256.217 130.349C256.683 130.617 257.142 130.887 257.599 131.16C254.837 132.109 252.052 133.006 249.287 133.822C249.16 133.69 249.034 133.557 248.905 133.426ZM259.122 129.003C259.687 129.344 260.246 129.689 260.796 130.037C267.182 127.742 273.372 125.227 278.852 122.86C277.137 123.084 275.7 123.174 274.494 123.174C270.117 123.174 268.657 121.926 268.241 121.095C267.929 120.471 268.033 119.639 268.553 118.807C270.786 114.964 283.668 105.808 293.58 105.314C297.263 99.7294 306.683 88.6753 333.384 85.5423L333.696 88.1412C307.744 91.1558 298.989 101.239 294.611 108.516C293.672 110.075 293.672 111.011 293.88 111.219C294.403 111.843 296.695 111.739 298.781 110.803L300.446 109.972L300.654 111.843C301.803 125.772 316.497 125.045 317.122 124.941C331.196 124.941 340.886 115.689 345.37 110.18C350.58 103.838 356 87.6214 349.121 80.2407C342.786 73.3015 330.967 76.9906 317.377 81.233L317.226 81.2802C315.977 81.6959 314.624 82.1114 313.269 82.527L313.267 82.5276C299.111 86.9097 261.357 106.799 256.294 109.468C255.855 110.17 255.391 110.858 254.9 111.531C252.124 115.297 248.769 118.79 244.97 121.954C245.364 122.112 245.76 122.275 246.163 122.443C253.115 121.636 262.228 121.095 264.282 122.758C265.01 123.278 265.219 124.213 264.906 124.941C264.701 125.556 264.316 126.486 259.122 129.003ZM256.486 127.475C259.101 126.298 261.038 125.311 261.988 124.629C260.115 124.198 255.592 124.318 251.043 124.645C252.862 125.524 254.696 126.476 256.486 127.475ZM260.411 132.928C257.373 133.998 254.294 135.014 251.23 135.937C254.425 139.554 257.162 143.424 258.443 146.771C258.653 147.395 258.339 148.226 257.714 148.434C257.61 148.538 257.402 148.538 257.296 148.538C256.775 148.538 256.255 148.226 256.047 147.707C254.757 144.375 251.83 140.388 248.495 136.736C244.529 137.86 240.615 138.807 236.867 139.494C225.82 141.573 216.232 142.197 208.623 142.197C200.176 142.197 194.289 141.407 191.798 140.989L198.397 150.906C203.013 149.755 207.354 148.764 211.126 148.226C218.942 147.083 226.654 149.266 232.283 154.256C238.328 159.661 241.559 167.666 241.351 176.917C240.83 195.212 229.885 202.178 224.571 205.295C224.492 207.181 224.234 209.245 223.256 210.905C223.453 211.316 223.759 211.959 224.161 212.803C227.317 219.455 236.301 238.385 243.023 250.828C249.794 242.229 266.9 243.4 270.847 244.384C270.899 244.384 270.951 244.356 271.003 244.332C271.055 244.305 271.108 244.28 271.16 244.28C273.035 243.553 277.098 241.992 279.913 246.463C283.041 251.453 275.121 264.029 272.098 267.981C262.821 280.246 241.247 288.044 229.261 288.98C228.946 289.084 228.634 289.084 228.218 289.084C217.168 289.084 210.709 275.674 210.501 275.049L210.395 274.841L200.597 241.704C200.56 241.631 200.526 241.557 200.495 241.474L200.526 241.465L188.316 200.179C187.384 200.265 186.448 200.337 185.516 200.396C180.851 213.822 174.487 226.64 166.618 238.46C155.469 254.92 140.474 264.672 135.585 267.584C140.891 273.413 141.827 281.647 141.354 285.678C143.406 285.107 144.524 285.134 145.252 285.757C145.981 286.382 146.295 287.108 146.295 288.044C146.189 289.499 145.044 291.89 137.02 296.463C132.954 298.958 126.074 300 118.778 300C109.503 300 99.7042 298.231 93.8696 295.321C85.2183 290.954 79.5896 284.509 76.9856 276.298C74.0671 266.732 76.2526 257.273 78.4425 253.116C80.2162 249.892 92.6163 242.719 109.919 232.949C114.923 230.143 119.717 227.44 122.74 225.568C132.099 219.845 147.368 202.036 151.942 196.597C146.965 195.045 142.877 193.159 140.144 191.158C131.755 184.955 128.785 179.2 130.995 171.292C119.283 177.432 81.6302 197.005 67.2914 203.321C59.9952 206.441 23.2047 221.097 7.46546 221.097C5.37957 221.097 3.60816 220.786 2.46114 220.267C0.89785 219.538 0.377506 218.498 0.169369 217.668C-0.350974 215.796 -1.60433 210.806 30.2904 190.847C47.1744 180.245 67.9158 169.017 80.9447 162.572C103.073 151.627 148.641 138.084 160.446 134.683C148.309 129.587 137.943 120.77 130.975 109.556C126.837 103.2 125.129 95.6653 126.113 88.2519C122.527 82.9023 113.536 79.5112 108.355 79.2012C107.627 79.2012 107.107 78.5775 107.107 77.85C107.107 77.1223 107.731 76.6024 108.46 76.6024C113.36 76.9714 121.952 79.7945 126.739 84.9271C126.884 84.3478 127.043 83.7708 127.219 83.196L127.21 83.1847C126.169 81.5843 118.29 69.4526 107.939 65.1675C107.315 64.8558 107.003 64.1281 107.211 63.5044C107.523 62.8804 108.251 62.5687 108.878 62.7766C117.964 66.5129 124.977 75.4769 127.961 79.721C128.101 77.9664 128.013 75.8593 127.896 73.0984C127.88 72.7195 127.864 72.3285 127.848 71.9245C127.64 68.2862 127.429 63.8161 127.429 57.7868L127.432 57.5791H127.429L127.432 57.5416C127.529 43.9128 135.676 31.2626 137.54 28.576L132.85 11.2157C132.744 10.9039 132.744 10.4879 132.85 10.1762C132.943 9.61585 133.289 9.1392 133.737 8.74647L133.475 8.51277L133.504 8.4839C134.214 7.76047 143.755 -1.95949 165.89 5.70612C181.629 -1.36284 199.868 -1.88235 216.024 4.25091C239.26 13.0086 248.235 26.2827 250.583 30.4293C252.586 30.3156 254.595 30.4361 256.567 30.8629L256.88 30.9669L257.088 31.1746C261.364 34.5012 263.968 39.491 264.698 46.144C265.547 52.8167 264.488 59.889 262.954 65.4202L262.988 65.6636C263.237 67.4416 264.119 73.7186 263.757 81.6961C263.513 88.4822 262.3 97.3901 258.549 105.335C269.576 99.5588 299.769 83.991 312.538 80.033C313.215 79.8252 313.864 79.6174 314.515 79.4099L314.518 79.409L314.522 79.4083C315.172 79.2006 315.821 78.993 316.497 78.7855L316.708 78.7199C330.594 74.3782 343.634 70.3017 351.1 78.3695C359.231 87.2057 352.978 105.086 347.453 111.738C342.659 117.56 332.341 127.436 317.226 127.436C317.226 127.644 317.018 127.644 316.601 127.644C313.792 127.644 302.242 127.014 298.876 116.4C294.186 118.777 279.646 125.901 263.479 131.826C264.56 132.585 265.576 133.35 266.504 134.113C266.635 134.155 266.764 134.216 266.886 134.297C268.241 135.44 269.388 136.584 270.429 137.935C270.847 138.455 270.743 139.286 270.221 139.806C270.013 140.118 269.7 140.222 269.388 140.222C268.97 140.222 268.657 140.014 268.345 139.702C268.237 139.557 268.126 139.415 268.015 139.276C266.386 137.266 263.653 135.068 260.411 132.928ZM203.854 243.468L212.895 274.011C213.021 274.286 213.483 275.195 214.243 276.404C215.236 275.177 215.908 268.933 212.27 256.441C209.725 247.794 206.209 244.717 203.854 243.468ZM215.732 278.577C215.8 278.514 215.863 278.446 215.919 278.376C218.63 275.881 218.107 267.149 214.772 255.714C211.078 243.224 205.056 241.018 202.981 240.258L202.893 240.226L199.572 229.015C200.004 229.2 200.454 229.31 200.911 229.31C201.223 229.31 201.431 229.31 201.535 229.414C202.16 229.207 202.578 228.789 202.891 228.167C204.454 225.153 204.558 214.445 202.474 208.104C201.23 204.384 199.515 201.235 197.943 199.245L211.646 197.914C212.27 198.228 212.687 198.749 212.895 199.475C212.895 199.683 212.791 200.305 212.687 200.725C212.062 203.739 211.126 208.729 213.105 211.639C213.94 212.782 214.981 213.405 216.44 213.612C217.064 213.716 217.587 213.716 218.107 213.716C219.401 213.716 220.471 213.441 221.281 212.967C224.548 219.92 238.468 249.33 245.312 260.082L247.5 258.624C246.593 257.192 245.552 255.41 244.421 253.377C249.837 244.519 268.366 246.159 270.533 246.982L270.951 247.19L271.368 246.982C271.472 246.93 271.603 246.878 271.732 246.827H271.734C271.863 246.775 271.994 246.723 272.098 246.671C274.494 245.735 276.162 245.317 277.727 247.812C279.392 250.517 275.017 259.77 270.013 266.42C261.364 277.959 240.308 285.547 229.05 286.382C223.166 286.837 218.512 282.301 215.732 278.577ZM298.122 113.858C296.767 114.55 294.197 115.834 290.756 117.466L290.754 117.456C281.478 120.159 272.411 121.302 270.741 120.055C272.078 117.677 282.833 109.471 291.917 108.09C290.677 110.64 291.258 112.147 292.005 112.986C293.231 114.414 295.763 114.541 298.122 113.858ZM215.293 134.608L215.318 134.683C207.608 136.992 199.511 138.247 191.529 138.247C188.927 138.247 186.326 138.143 183.83 137.833C182.174 134.912 179.226 131.942 174.541 131.594C172.068 131.41 168.978 132.266 165.607 133.855C152.223 129.34 140.805 120.252 133.37 108.308C128.472 100.927 127.325 91.8835 130.033 83.4633C131.067 80.5816 130.875 77.2922 130.567 72.082L130.558 71.9245C130.35 68.2862 130.138 63.9201 130.138 57.8908C130.138 57.3643 130.153 56.8387 130.18 56.3143C130.642 52.5437 132.101 45.8048 135.454 43.5451C136.705 42.7137 138.06 42.6094 139.728 43.1294C144.089 44.4443 147.761 49.9917 151.315 55.3655L151.612 55.8117L151.938 56.3061C156.103 62.5937 160.315 68.9496 166.306 70.4691C170.261 71.4808 177.575 70.6218 186.129 69.6171L186.839 69.5334L187.16 69.4953C202.739 67.6302 222.023 65.3218 230.614 72.6522C239.785 80.4487 241.455 90.3243 235.514 101.967C233.116 106.749 225.611 118.807 225.507 118.911L224.987 119.847L225.716 120.575C225.716 120.575 228.218 123.07 227.593 125.98C227.071 128.267 224.571 131.594 215.293 134.608ZM188.545 140.801C187.371 140.762 186.21 140.695 185.052 140.591C185.192 141.016 185.301 141.417 185.38 141.781L182.878 142.301C182.875 142.293 182.871 142.279 182.866 142.261L182.851 142.2C182.59 141.255 180.767 134.587 174.437 134.193C170.901 133.921 164.184 136.992 157.132 142.178L157.137 142.197L157.098 142.203C155.27 143.548 153.419 145.036 151.598 146.644L151.612 146.667L151.519 146.715C146.942 150.765 142.54 155.575 139.103 160.805C137.04 163.988 135.479 166.775 134.434 169.278L134.517 169.433C134.502 169.443 134.436 169.478 134.327 169.537C130.986 177.752 133.291 182.904 141.71 189.081C149.318 194.693 169.537 199.475 188.819 197.499L211.958 195.212L212.27 195.316C213.94 195.941 215.085 197.395 215.397 199.06V199.268C215.397 199.683 215.293 200.202 215.085 201.14C215.048 201.339 215.008 201.553 214.965 201.783V201.785C214.505 204.203 213.752 208.171 215.085 209.974C215.397 210.495 215.92 210.806 216.648 210.91C218.315 211.117 219.566 210.91 220.295 210.287C221.652 209.04 221.86 206.441 221.86 204.465V203.739L222.589 203.321C227.593 200.409 238.12 194.278 238.536 176.814C238.744 168.393 235.826 161.117 230.405 156.231C225.299 151.657 218.526 149.786 211.334 150.825C206.92 151.467 201.701 152.755 196.169 154.119L196.165 154.12C195.425 154.303 194.678 154.487 193.927 154.671C180.794 157.998 165.994 161.74 156.195 159.557L156.82 157.062C160.096 157.805 164.05 157.818 168.367 157.377C169.154 150.924 175.444 143.14 176.487 141.849C176.559 141.76 176.606 141.702 176.625 141.677L178.606 143.34C178.509 143.436 172.168 150.989 171.057 157.052C175.996 156.369 181.308 155.196 186.559 153.908L184.844 145.351L187.398 144.841L189.09 153.278C190.543 152.913 191.984 152.543 193.404 152.177C194.183 151.977 194.954 151.778 195.721 151.583L188.545 140.801ZM150.012 144.61C150.533 144.152 151.053 143.7 151.578 143.256C147.657 144.126 143.802 145.252 140.04 146.667C133.162 149.162 128.16 151.553 125.658 153.008C128.472 152.592 133.893 151.137 140.771 148.642C142.723 147.96 147.607 145.818 150.012 144.61ZM156.064 139.704C150.343 140.649 144.63 142.169 139.207 144.172C134.413 145.835 130.033 147.707 126.805 149.37C122.427 151.657 121.072 153.008 121.593 154.464C121.801 155.295 122.636 155.711 124.095 155.711C125.242 155.711 126.699 155.503 128.785 154.983C132.223 154.152 136.809 152.8 141.605 151.033C142.325 150.76 143.393 150.329 144.592 149.829C141.578 152.982 138.922 156.244 136.916 159.349C134.943 162.372 133.407 165.111 132.314 167.632C131.558 168.024 130.377 168.637 128.852 169.43L128.794 169.461C116.136 176.042 80.1144 194.777 66.1444 200.933C48.8418 208.519 11.1124 221.512 3.60817 217.876C2.96792 217.603 2.80727 217.249 2.70773 217.023C2.69415 216.992 2.68058 216.964 2.66927 216.94C2.46113 216.107 2.8774 211.014 31.6456 193.031C48.5296 182.428 69.1669 171.304 82.0917 164.859C102.609 154.711 143.612 142.363 158.474 137.997C157.673 138.541 156.867 139.111 156.064 139.704ZM194.791 199.55L195.07 199.523L195.074 199.579C194.966 199.579 194.868 199.568 194.791 199.55ZM190.959 199.922L194.68 199.561C195.386 200.105 198.038 202.947 199.972 208.832C202.16 215.277 201.639 224.842 200.703 226.712C200.205 226.513 199.146 225.658 198.237 224.506L190.959 199.922ZM182.665 200.529C172.532 200.854 162.659 199.548 154.655 197.384L154.643 197.398C151.175 201.542 134.465 221.496 124.095 227.855C120.968 229.725 116.172 232.428 111.17 235.234C99.6002 241.785 82.1958 251.661 80.6325 254.363C78.6507 258.106 76.5648 266.732 79.3814 275.466C81.6732 282.948 86.8857 288.773 94.9103 292.93C97.7247 294.385 101.582 295.529 105.853 296.255C112.005 297.088 123.47 292.513 131.807 289.188C134.588 288.092 136.793 287.225 138.563 286.589C139.212 284.573 139.137 274.178 132.432 268.189C123.364 260.082 101.478 262.784 99.7042 263.51C99.7042 263.51 99.8083 263.407 100.019 263.303L98.1432 261.431C99.6748 259.901 123.004 257.068 133.624 265.717C137.474 263.458 153.182 253.585 164.326 237.003C171.898 225.575 178.043 213.387 182.665 200.529ZM139.832 288.98L139.816 288.931C137.723 289.675 135.189 290.688 132.954 291.577V291.579C128.056 293.657 122.427 295.944 117.113 297.399C124.511 297.609 131.703 296.67 135.873 294.178C143.166 290.018 143.795 288.148 143.795 287.835C143.169 287.835 141.863 288.216 140.246 288.78C140.121 288.861 139.986 288.929 139.832 288.98ZM253.233 65.5833L250.629 65.1675C251.982 56.5394 252.398 41.3622 250.208 38.9713C249.271 37.9318 243.122 40.1148 237.287 43.5451L235.93 41.3622C247.5 34.5012 251.045 36.1644 252.086 37.2039C256.047 41.2582 253.753 61.9449 253.233 65.5833ZM157.969 118.08C159.949 119.223 162.24 119.951 164.014 119.951C165.369 119.951 166.514 119.535 167.141 118.704C168.496 116.313 165.681 112.986 162.136 111.011C160.367 109.972 158.594 109.348 157.032 109.14C154.426 108.724 153.381 109.868 152.965 110.491C152.548 111.115 152.236 112.57 153.8 114.649C154.738 115.897 156.195 117.04 157.969 118.08ZM159.218 115.897C156.195 114.129 155.051 112.154 155.155 111.739C155.571 111.427 157.761 111.427 160.783 113.298C163.91 115.065 164.953 116.936 164.847 117.352C164.534 117.664 162.347 117.664 159.218 115.897ZM17.5737 207.375C17.9922 208.104 18.8248 208.519 20.18 208.519C21.6392 208.519 23.7251 208 26.4354 207.064C30.7067 205.505 35.9169 203.008 41.3375 199.89C46.7582 196.773 51.5521 193.549 54.9909 190.639C59.1604 187.105 60.6197 184.819 59.6808 183.155C58.7442 181.49 56.0339 181.594 50.8236 183.466C46.55 185.027 41.3376 187.522 35.9169 190.639C30.4986 193.759 25.7024 196.98 22.2636 199.89C18.0963 203.427 16.6371 205.713 17.5737 207.375ZM39.9847 197.603C28.9353 203.946 21.8473 206.026 19.9718 205.92C20.7025 204.258 26.1209 199.06 37.1703 192.719C48.2174 186.376 55.3054 184.298 57.1809 184.402C56.4501 186.168 51.0318 191.264 39.9847 197.603ZM73.9608 176.396C72.6057 176.396 71.8772 175.981 71.565 175.255C70.8342 173.694 72.2934 172.031 76.6734 169.121C80.0081 166.938 84.698 164.443 89.6978 162.052C94.8062 159.661 99.7042 157.79 103.46 156.647C108.46 155.191 110.65 155.191 111.378 156.75C112.109 158.31 110.65 159.973 106.272 162.884C102.935 165.067 98.2473 167.562 93.2429 169.953C88.1368 172.343 83.2365 174.215 79.4855 175.359C76.9856 176.085 75.2119 176.396 73.9608 176.396ZM108.251 158.31C105.749 158.622 99.7042 160.389 90.8471 164.547C81.8813 168.705 76.6734 172.135 74.7956 173.798C77.2978 173.486 83.3428 171.72 92.2 167.562C101.062 163.403 106.376 159.973 108.251 158.31Z" fill="#3178C6"/>
</svg>
