<svg width="555" height="460" fill="none" xmlns="http://www.w3.org/2000/svg"><path d="M429.294 203.439c0-2.463-1.791-5.487-3.919-6.719l-22.284-12.877c-5.375-3.136-9.742-10.19-9.742-15.901s-4.031-12.654-8.959-15.453c-4.143-2.464-7.726-1.12-8.622 2.799-1.568 1.008-2.575 2.911-2.575 5.711 0 .896-.112 1.68-.336 2.352-1.68 1.007-3.92.895-6.383-.56-4.927-2.8-8.959-10.19-8.959-16.349v-18.925c0-6.159-4.031-13.549-8.958-16.349-4.031-2.352-7.503-1.008-8.622 3.024-1.68 1.119-2.576 3.359-2.576 6.382v19.037c0 1.12-.112 2.127-.448 3.023-1.568 1.12-3.807 1.008-6.271-.336-4.927-2.799-8.958-9.742-8.958-15.565 0-5.823-4.031-12.653-8.958-15.565-4.144-2.463-7.727-1.12-8.623 2.8-1.568 1.007-2.575 2.911-2.575 5.711 0 .783-.112 1.455-.224 2.127-1.792 1.12-4.368.896-7.279-.672L165.246 46.78c-2.463-1.792-4.703-.56-4.703 2.575-1.344.224-2.239 1.456-2.239 3.472v201.227s0 9.406-5.487 18.701c-2.464 3.359-5.823 6.494-10.19 8.958l-44.009 25.419c-2.351 1.344-3.695 3.024-4.143 4.704-3.471 3.023-3.135 6.942 1.12 9.406a436.05 436.05 0 008.958 5.151l8.959 5.151c2.799 1.568 3.919 3.919 3.359 6.047-.56.448-1.12.896-1.903 1.344l-16.35 9.518c-2.351 1.344-3.695 3.023-4.143 4.703-3.471 3.023-3.135 6.943 1.12 9.406a430.51 430.51 0 008.958 5.151l8.959 5.151c2.799 1.568 3.919 3.92 3.359 6.047-.56.448-1.12.896-1.903 1.344l-16.462 9.518c-2.351 1.344-3.695 3.024-4.143 4.703-3.471 3.024-3.135 6.943 1.12 9.407 2.576 1.455 6.047 2.239 9.518 2.127 3.472.112 6.943-.56 9.519-2.127 2.351-1.344 5.375-2.016 8.398-2.128 3.024.112 6.047.784 8.399 2.128 2.911 1.679 4.031 3.919 3.583 6.047l-1.344 1.007c-2.127 1.232-3.359 2.8-3.583 4.368-3.472 2.911-3.024 6.83 1.344 9.406 2.463 1.456 5.823 2.128 9.182 2.016 3.695.112 7.503-.784 10.526-2.464l34.49-19.82c2.687-1.568 6.047-2.352 9.406-2.464 3.023.112 5.935.784 8.174 2.016 2.8 1.567 3.92 3.919 3.36 6.047-.56.448-1.12.895-1.904 1.343l-16.461 9.519c-2.351 1.343-3.695 3.023-4.143 4.703-3.471 3.023-3.135 6.943 1.12 9.406 2.463 1.456 5.823 2.128 9.294 2.016 3.695.112 7.615-.784 10.526-2.464l16.461-9.518c2.688-1.568 6.047-2.352 9.406-2.464 3.024.112 5.935.784 8.175 2.016 2.576 1.568 6.159 2.24 9.518 2.128 3.472.112 6.831-.56 9.519-2.128 2.239-1.232 5.151-1.904 8.174-2.016 3.359.112 6.719.896 9.406 2.464l34.378 19.82c2.8 1.68 6.607 2.352 10.302 2.352 3.696.112 7.391-.672 10.302-2.352l16.461-9.518c2.688-1.568 6.047-2.352 9.407-2.464 3.023.112 5.935.784 8.174 2.016 2.8 1.68 4.031 3.919 3.583 6.047-.447.336-.895.672-1.343.896-2.128 1.232-3.248 2.687-3.584 4.255-3.471 2.912-3.023 6.831 1.344 9.406 2.464 1.456 5.823 2.128 9.294 2.016 3.696.112 7.503-.784 10.526-2.464l16.461-9.518c5.376-3.135 14.222-7.95 18.365-12.542a37.533 37.533 0 007.951-14.445c2.463-6.271 2.463-11.31 2.463-11.31V203.439h-.336z" fill="#fff"/><path d="M427.055 408.586s0 12.205-9.183 22.396c-4.143 4.591-12.989 9.518-18.364 12.541l-16.461 9.519c-5.375 3.135-13.662 3.247-18.701.447-5.039-2.799-4.927-7.502 0-10.302 4.927-2.799 4.927-7.502 0-10.302-4.927-2.911-13.326-2.687-18.701.448l-16.461 9.518c-5.375 3.136-13.997 3.136-19.372 0l-34.378-19.82c-5.375-3.135-13.661-3.247-18.7-.448-4.927 2.912-12.99 2.8-17.917 0-4.927-2.911-13.326-2.687-18.701.448l-16.461 9.518c-5.375 3.136-13.661 3.248-18.7.448-4.927-2.911-4.592-7.726.784-10.75l16.461-9.518c5.375-3.136 5.711-7.951.783-10.75-4.927-2.8-13.325-2.688-18.7.448l-34.266 19.596c-5.375 3.136-13.662 3.248-18.589.448-4.927-2.799-4.927-7.502.112-10.302 5.039-2.799 4.927-7.503 0-10.302-4.927-2.8-12.989-2.8-17.916 0-4.927 2.799-12.99 2.799-17.917 0-4.927-2.8-4.591-7.727.784-10.75l16.461-9.518c5.375-3.136 5.711-7.951.784-10.75l-8.959-5.152s-4.031-2.351-8.958-5.151c-4.927-2.911-4.591-7.726.784-10.75l16.349-9.518c5.375-3.135 5.711-7.95.784-10.75l-8.959-5.151s-4.031-2.352-8.958-5.151c-4.927-2.912-4.591-7.727.784-10.75l43.784-25.643c17.916-10.303 17.916-31.019 17.916-31.019V50.474c0-3.134 2.128-4.366 4.816-2.799l128.776 74.355c5.375 3.135 9.742 1.008 9.742-4.703s4.032-8.063 8.959-5.151c4.927 2.911 8.958 9.854 8.958 15.565s4.031 12.654 8.959 15.565c4.927 2.799 8.958.112 8.958-6.047v-19.036c0-6.159 4.031-8.847 8.958-6.047 4.927 2.911 8.959 10.19 8.959 16.349v18.924c0 6.159 4.031 13.55 8.958 16.349 4.927 2.8 8.958.56 8.958-5.151s4.032-8.062 8.959-5.151c4.927 2.912 8.958 9.742 8.958 15.453 0 5.711 4.367 12.878 9.742 15.901l22.284 12.878c2.128 1.232 3.92 4.255 3.92 6.719v204.139h-.112z" fill="url(#prefix__paint0_linear)"/><path d="M178.124 77.126l13.997 8.063c1.12.672 1.904 2.127 1.904 3.36v15.9c0 1.232-.896 1.792-1.904 1.12l-13.997-7.95c-1.12-.56-1.904-2.128-1.904-3.36V78.246c0-1.232.896-1.68 1.904-1.12z" fill="#999CA1"/><path d="M194.137 86.309v20.604l-18.029-10.302 18.029-10.302zM200.744 99.746v2.24c0 1.231.896 2.687 1.904 3.359l31.13 18.029c1.12.672 1.904.112 1.904-1.12v-2.352c0-1.231-.896-2.687-1.904-3.359l-31.13-18.029c-1.008-.448-1.904 0-1.904 1.232zM407.458 222.924l-10.19-5.935c-.896-.56-1.68-2.016-1.68-3.136 0-1.231.784-1.791 1.68-1.231l10.19 5.935c.896.559 1.68 2.015 1.68 3.135 0 1.12-.784 1.68-1.68 1.232zM389.542 212.51l-10.19-5.935c-.896-.56-1.68-2.016-1.68-3.136 0-1.231.784-1.791 1.68-1.231l10.19 5.934c.896.56 1.679 2.016 1.679 3.136 0 1.232-.783 1.792-1.679 1.232zM371.625 202.207l-10.19-5.935c-.896-.559-1.68-2.015-1.68-3.135 0-1.232.784-1.792 1.68-1.232l10.19 5.935c.896.56 1.679 2.016 1.679 3.136 0 1.231-.783 1.791-1.679 1.231z" fill="#B3B5B9"/><path d="M309.812 442.74c5.375 3.135 13.998 3.135 19.373 0l16.461-9.519c5.375-3.135 13.661-3.247 18.588-.448l-58.789-33.929c-2.128-1.232-5.599-1.232-7.727 0l-40.872 23.627c4.927-2.911 13.325-2.687 18.7.448l34.266 19.821z" fill="#CCCDD0"/><path d="M369.385 435.797l-5.039-2.912c4.927 2.912 4.815 7.503-.112 10.302 0 0-.112 0-.112.112l5.151-3.023c2.352-1.344 2.352-3.247.112-4.479z" fill="#E6E7E8"/><path d="M208.135 342.63l-63.941-36.953c-2.127-1.232-5.599-1.232-7.726 0l-31.914 18.476 8.958 5.151c4.927 2.912 4.591 7.727-.784 10.75l-16.349 9.519c-5.375 3.135-5.71 7.95-.784 10.75a434.216 434.216 0 008.959 5.151l8.958 5.151c4.927 2.911 4.591 7.726-.784 10.75l-16.46 9.518c-5.376 3.136-5.712 7.951-.785 10.75 4.927 2.8 12.766 2.8 17.693.112l94.959-54.758c2.239-1.12 2.239-3.135 0-4.367z" fill="#CCCDD0"/><path d="M158.303 251.814l268.752 155.204s0 20.716-17.917 31.019L140.387 282.833c17.916-10.414 17.916-31.019 17.916-31.019z" fill="url(#prefix__paint1_linear)"/><defs><linearGradient id="prefix__paint0_linear" x1="92.09" y1="251.28" x2="427.055" y2="251.28" gradientUnits="userSpaceOnUse"><stop stop-color="#FAFAFA"/><stop offset="1" stop-color="#E6E7E8"/></linearGradient><linearGradient id="prefix__paint1_linear" x1="294.67" y1="330.51" x2="276.753" y2="361.543" gradientUnits="userSpaceOnUse"><stop stop-color="#000714" stop-opacity="0"/><stop offset="1" stop-color="#000714" stop-opacity=".05"/></linearGradient></defs></svg>
