<svg width="220" height="213" viewBox="0 0 220 213" fill="none" xmlns="http://www.w3.org/2000/svg">
  <path d="M139.171 94.7694V3.99695C139.171 0.810939 136.91 -0.521394 134.128 1.10058L5.04284 75.5954C2.26058 77.2173 0 81.0985 0 84.2845V175.057L139.171 94.7694Z" fill="#333A48"/>
  <path d="M9.27419 90.7597L0 84.9217V195.518L9.27419 201.935V90.7597Z" fill="url(#paint0_linear)"/>
  <path d="M145.605 5.32933L136.389 0L5.04297 75.7692L14.3172 81.0985L143.112 6.77752H147.46L145.605 5.32933Z" fill="url(#paint1_linear)"/>
  <path d="M148.387 121.532V9.38422C148.387 6.19821 146.126 4.86587 143.344 6.48784L14.3168 80.9826C11.5345 82.6046 9.27393 86.4857 9.27393 89.6718V201.819L148.387 121.532Z" fill="#333A48"/>
  <path d="M53.0368 84.1687L37.7924 92.9736C37.4446 93.2053 37.1548 92.9736 37.1548 92.5102C37.1548 92.0468 37.4446 91.4675 37.7924 91.2937L53.0368 82.4888C53.3846 82.257 53.6744 82.4888 53.6744 82.9522C53.6744 83.3577 53.3846 83.9369 53.0368 84.1687Z" fill="#B3B6BB"/>
  <path d="M47.4722 92.4523L37.7343 98.1292C37.3865 98.3609 37.0967 98.1292 37.0967 97.6658C37.0967 97.2023 37.3865 96.6231 37.7343 96.4493L47.4722 90.7724C47.8199 90.5407 48.1098 90.7724 48.1098 91.2358C48.1098 91.6992 47.8199 92.2206 47.4722 92.4523Z" fill="#B3B6BB"/>
  <path d="M98.4221 57.7538L75.0628 71.3667C74.5991 71.6564 74.1934 71.3667 74.1934 70.7295C74.1934 70.0923 74.5991 69.3393 75.0628 69.1075L98.4221 55.4946C98.8859 55.205 99.2916 55.4946 99.2916 56.1318C99.2916 56.7111 98.8859 57.4641 98.4221 57.7538Z" fill="#666B76"/>
  <path d="M91.1769 67.4276L74.8891 76.8118C74.5413 77.0435 74.2515 76.8118 74.2515 76.3484C74.2515 75.885 74.5413 75.3057 74.8891 75.1319L91.1769 65.6897C91.5247 65.458 91.8145 65.6897 91.8145 66.1532C91.8145 66.6745 91.5247 67.1958 91.1769 67.4276Z" fill="#666B76"/>
  <path d="M24.6847 122.007C25.5408 120.544 25.5629 118.964 24.734 118.48C23.9045 117.995 22.5383 118.789 21.6822 120.253C20.8261 121.717 20.804 123.296 21.6329 123.781C22.4618 124.265 23.828 123.471 24.6847 122.007Z" fill="#666B76"/>
  <path d="M23.823 107.745L22.5478 108.498C20.3452 109.773 18.5483 108.44 18.5483 105.486C18.5483 102.532 20.3452 99.114 22.5478 97.8396L23.823 97.0865C26.0257 95.8121 27.8225 97.1444 27.8225 100.099C27.8225 103.053 26.0257 106.471 23.823 107.745Z" fill="#B3B6BB"/>
  <path d="M24.6735 132.788C25.5296 131.325 25.5516 129.745 24.7227 129.261C23.8933 128.776 22.5271 129.571 21.671 131.034C20.8148 132.498 20.7928 134.077 21.6217 134.562C22.4506 135.046 23.8168 134.252 24.6735 132.788Z" fill="#B3B6BB"/>
  <path d="M24.6984 143.375C25.5545 141.911 25.5765 140.332 24.7476 139.847C23.9188 139.363 22.552 140.157 21.6959 141.621C20.8397 143.084 20.8177 144.663 21.6466 145.148C22.4755 145.633 23.8423 144.838 24.6984 143.375Z" fill="#666B76"/>
  <path d="M24.6691 181.508C25.5252 180.045 25.5472 178.465 24.7183 177.981C23.8895 177.496 22.5227 178.29 21.6666 179.754C20.8104 181.218 20.7884 182.797 21.6173 183.282C22.4462 183.766 23.813 182.972 24.6691 181.508Z" fill="#666B76"/>
  <path d="M24.6871 154.156C25.5433 152.692 25.5653 151.113 24.7364 150.628C23.9075 150.143 22.5407 150.938 21.6846 152.401C20.8285 153.865 20.8065 155.444 21.6354 155.929C22.4648 156.414 23.831 155.619 24.6871 154.156Z" fill="#666B76"/>
  <path d="M35.2917 81.4785C36.0823 80.1242 36.0962 78.6609 35.3219 78.2091C34.548 77.7572 33.2792 78.4889 32.4886 79.8426C31.6974 81.1964 31.6841 82.6602 32.4579 83.1115C33.2323 83.5633 34.5005 82.8323 35.2917 81.4785Z" fill="#30CA41"/>
  <path d="M28.3354 85.5334C29.1266 84.1797 29.1399 82.7158 28.3661 82.264C27.5923 81.8127 26.3234 82.5438 25.5322 83.8975C24.7416 85.2513 24.7277 86.7151 25.5021 87.167C26.2759 87.6182 27.5447 86.8872 28.3354 85.5334Z" fill="#FCBD2E"/>
  <path d="M21.9597 89.0091C22.7509 87.6553 22.7642 86.1915 21.9904 85.7397C21.216 85.2884 19.9472 86.0194 19.1566 87.3732C18.3654 88.727 18.352 90.1908 19.1258 90.6427C19.9002 91.0939 21.1691 90.3629 21.9597 89.0091Z" fill="#FA6058"/>
  <path d="M185.806 144.096L184.994 143.631L185.226 143.515L183.95 142.76L184.646 142.353L166.313 131.777L157.959 117.25V42.1173L157.379 42.466V41.5363L156.625 41.943C156.335 41.2457 155.581 41.0714 154.768 41.5944L130.924 55.3077C130.634 55.4821 130.344 55.5402 130.054 55.5983V49.8456C130.054 49.1483 129.764 48.6835 129.3 48.5092C129.184 48.2767 129.068 48.1024 128.836 47.9862C128.778 46.824 127.908 46.3592 126.863 46.9403L103.02 60.7118C101.917 61.3509 100.989 62.9198 100.989 64.1982V70.4157C100.989 71.6941 100.061 73.263 98.9585 73.9022L73.2581 88.6615L38.1594 108.941C37.0571 109.58 36.1289 111.149 36.1289 112.428V185.236C36.1289 188.607 37.0571 191.454 38.2754 193.778C39.4937 196.451 41.1762 198.543 42.6845 199.996C44.715 202.088 46.5135 203.133 46.5135 203.133L60.0309 210.978C64.0919 213.36 71.5177 212.431 71.8078 208.073C71.8658 207.433 71.4597 206.794 70.9376 206.446C70.7635 206.213 70.5315 205.981 70.2994 205.806C70.0093 205.167 69.4292 204.586 68.617 204.063C68.3269 203.889 68.0949 203.715 67.9208 203.54C67.5147 201.506 70.0093 199.298 75.4047 199.124C76.507 199.066 77.6672 199.415 78.5375 200.054C82.0183 202.669 89.7923 201.797 90.5465 197.555C90.6625 196.858 90.3144 196.044 89.6762 195.638C89.5022 195.347 89.2121 195.115 88.922 194.94C88.632 194.301 88.0518 193.72 87.2396 193.255C86.9496 193.081 86.7175 192.907 86.5435 192.732C86.3114 191.628 86.9496 190.466 88.3999 189.594C90.0243 188.665 92.3449 187.27 93.9113 186.34L101.163 190.524L102.729 189.594L104.702 190.757L185.806 144.096Z" fill="#666B76"/>
  <path d="M92.9829 185.876L102.265 191.221L185.806 142.934L167.241 132.184L157.959 116.088V43.2795C157.959 42.0012 157.031 41.4782 155.929 42.1174L132.085 55.8889C130.982 56.5281 130.054 56.0051 130.054 54.7267V48.6254C130.054 47.3471 129.126 46.8241 128.024 47.4633L104.18 61.2348C103.077 61.874 102.149 63.4429 102.149 64.7212V70.9387C102.149 72.2171 101.221 73.786 100.119 74.4252L74.4183 89.2426L39.3196 109.522C38.2173 110.161 37.2891 111.73 37.2891 113.009V185.817C37.2891 196.625 46.5714 201.971 46.5714 201.971L60.0887 209.816C64.1498 212.198 71.5756 211.269 71.8657 206.91C71.9237 206.155 71.3435 205.4 70.7054 205.109C65.7161 203.075 67.2825 198.194 75.3465 198.02C76.4488 197.962 77.6091 198.311 78.4793 198.95C81.9602 201.565 89.7341 200.693 90.4883 196.451C90.6624 195.638 90.1402 194.708 89.386 194.417C85.7891 193.023 85.4411 190.234 88.3418 188.549C90.8944 187.096 92.9829 185.876 92.9829 185.876Z" fill="url(#paint2_linear)"/>
  <path d="M120.192 61.5253L112.186 66.1739C111.838 66.4063 111.548 66.1739 111.548 65.709C111.548 65.2442 111.838 64.6631 112.186 64.4888L120.192 59.8401C120.54 59.6077 120.83 59.8401 120.83 60.305C120.83 60.7699 120.54 61.3509 120.192 61.5253Z" fill="#333A48"/>
  <path d="M74.6504 109.929L37.2891 131.545V132.881L75.2305 110.975L74.6504 109.929Z" fill="#333A48"/>
  <path d="M37.2891 153.103V154.439L75.2305 132.533L74.6504 131.487L37.2891 153.103Z" fill="#333A48"/>
  <path d="M37.2891 174.486V175.823L75.2305 153.858L74.6504 152.87L37.2891 174.486Z" fill="#333A48"/>
  <path d="M62.5253 126.548L47.2675 135.38C46.9195 135.612 46.6294 135.38 46.6294 134.915C46.6294 134.45 46.9195 133.869 47.2675 133.695L62.5253 124.863C62.8734 124.63 63.1635 124.863 63.1635 125.327C63.1635 125.792 62.8734 126.373 62.5253 126.548Z" fill="#333A48"/>
  <path d="M54.8674 136.077L47.2095 140.61C46.8614 140.842 46.5713 140.61 46.5713 140.145C46.5713 139.68 46.8614 139.099 47.2095 138.925L54.8674 134.392C55.2154 134.16 55.5055 134.392 55.5055 134.857C55.5055 135.322 55.2154 135.903 54.8674 136.077Z" fill="#333A48"/>
  <path d="M62.5253 147.931L47.2095 156.764C46.8614 156.996 46.5713 156.764 46.5713 156.299C46.5713 155.834 46.8614 155.253 47.2095 155.078L62.4672 146.246C62.8153 146.014 63.1054 146.246 63.1054 146.711C63.1634 147.118 62.8734 147.699 62.5253 147.931Z" fill="#333A48"/>
  <path d="M57.478 156.008L47.2095 161.935C46.8614 162.168 46.5713 161.935 46.5713 161.47C46.5713 161.005 46.8614 160.424 47.2095 160.25L57.478 154.323C57.8261 154.091 58.1162 154.323 58.1162 154.788C58.1162 155.253 57.8261 155.776 57.478 156.008Z" fill="#333A48"/>
  <path d="M62.5253 105.222L47.2675 114.055C46.9195 114.287 46.6294 114.055 46.6294 113.59C46.6294 113.125 46.9195 112.544 47.2675 112.369L62.5253 103.537C62.8734 103.305 63.1635 103.537 63.1635 104.002C63.1635 104.467 62.8734 105.048 62.5253 105.222Z" fill="#333A48"/>
  <path d="M54.8674 114.752L47.2095 119.284C46.8614 119.517 46.5713 119.284 46.5713 118.819C46.5713 118.354 46.8614 117.773 47.2095 117.599L54.8674 113.067C55.2154 112.834 55.5055 113.067 55.5055 113.532C55.5055 113.996 55.2154 114.519 54.8674 114.752Z" fill="#333A48"/>
  <path d="M101.723 192.115C101.607 192.115 101.549 192.115 101.433 192.057L83.4108 181.052C83.2947 180.994 73.8384 175.416 73.8384 164.434C73.8384 153.684 73.8384 89.6493 73.8384 89.6493L74.9987 88.952C74.9987 88.952 74.9987 153.626 74.9987 164.376C74.9987 174.661 83.8749 179.948 83.9909 180.007L102.013 191.011C102.304 191.186 102.362 191.534 102.246 191.825C102.071 191.999 101.897 192.115 101.723 192.115Z" fill="url(#paint3_linear)"/>
  <path d="M93.5468 98.2538L145.512 68.3982C146.621 67.7592 147.554 66.191 147.554 64.9131V58.8142C147.554 57.5363 148.487 55.968 149.595 55.3291L173.566 41.563C174.674 40.924 175.607 41.4468 175.607 42.7247V135.777L92.7886 185.846L91.6222 185.149V101.739C91.5055 100.461 92.4387 98.8927 93.5468 98.2538Z" fill="#333A48"/>
  <path d="M94.7133 98.8347L146.679 68.9791C147.787 68.3401 148.72 66.7718 148.72 65.494V59.3951C148.72 58.1172 149.653 56.5489 150.762 55.91L174.732 42.1438C175.84 41.5049 176.774 42.0277 176.774 43.3055V169.756L120.784 201.935L92.7887 185.846V102.32C92.672 101.042 93.6052 99.4736 94.7133 98.8347Z" fill="url(#paint4_linear)"/>
  <path d="M166.684 55.968L158.635 60.6148C158.285 60.8471 157.994 60.6148 157.994 60.1501C157.994 59.6854 158.285 59.1046 158.635 58.9303L166.684 54.2835C167.034 54.0512 167.325 54.2835 167.325 54.7482C167.325 55.2129 167.034 55.7938 166.684 55.968Z" fill="#333A48"/>
  <path d="M218.725 163.286C218.494 162.414 217.798 161.541 216.582 160.843L203.082 153.051C203.082 153.051 197.752 149.969 195.202 143.862C194.739 142.35 194.391 140.664 194.391 138.803V65.7613C194.391 65.1216 194.16 64.6564 193.812 64.4819V64.0167C193.812 62.7373 192.885 62.2139 191.784 62.8536L140.219 92.7448C139.929 92.9193 139.64 92.9775 139.35 93.0356V87.2784C139.35 86.3479 138.886 85.8245 138.191 85.8245V85.5337C138.191 84.2543 137.264 83.731 136.163 84.3706L112.351 98.1532C111.25 98.7929 110.323 100.363 110.323 101.642V185.268C110.323 187.711 110.786 189.862 111.539 191.723C113.625 199.341 120.172 203.121 120.172 203.121L133.672 210.972C135.178 211.845 137.206 212.31 139.118 212.252C140.856 212.31 142.594 211.961 143.927 211.205C146.245 209.867 146.476 207.832 144.622 206.32C144.448 205.506 143.811 204.692 142.768 204.11C142.479 203.936 142.247 203.761 142.073 203.645C141.841 202.54 142.479 201.377 143.927 200.504C145.086 199.865 146.592 199.516 148.156 199.458C149.895 199.516 151.633 199.923 153.023 200.737L161.54 205.68C163.047 206.553 165.074 207.018 166.986 206.96C168.725 207.018 170.463 206.669 171.795 205.913C174.113 204.575 174.287 202.54 172.491 201.028C172.317 200.214 171.679 199.4 170.637 198.76C170.405 198.644 170.231 198.469 170.057 198.353C169.825 197.19 170.521 195.91 172.201 194.922L180.602 190.095C183.151 188.641 183.499 186.431 181.587 184.919C181.413 184.105 180.892 183.349 179.849 182.767C179.617 182.651 179.385 182.477 179.211 182.302C178.98 181.197 179.617 179.976 181.123 179.104C183.441 177.708 183.673 175.615 181.819 174.161C181.645 173.346 181.008 172.532 179.965 171.951C179.675 171.776 179.443 171.602 179.269 171.486C179.038 170.381 179.675 169.218 181.123 168.345C182.34 167.647 183.904 167.298 185.469 167.24C187.033 167.298 188.597 167.647 189.814 168.345C191.147 169.159 192.943 169.508 194.739 169.45C196.535 169.508 198.331 169.101 199.664 168.345C200.88 167.647 202.445 167.298 204.009 167.24C205.573 167.298 207.138 167.647 208.354 168.345C209.687 169.101 211.483 169.508 213.279 169.45C215.075 169.508 216.871 169.101 218.204 168.345C220.348 166.891 220.521 164.856 218.725 163.286Z" fill="#666B76"/>
  <path d="M137.322 84.9522C138.423 84.3125 139.35 84.8359 139.35 86.1153V92.1633C139.35 93.4427 140.277 93.9661 141.378 93.3264L193.001 63.4352C194.102 62.7955 195.029 63.3189 195.029 64.5983V137.582C195.029 148.224 204.299 153.574 204.299 153.574L217.798 161.425C221.564 163.577 220.522 167.415 214.496 168.113C212.526 168.345 210.556 167.938 208.818 166.95C206.269 165.554 202.213 165.554 199.664 167.008C197.114 168.52 192.943 168.52 190.394 167.008C187.786 165.496 183.557 165.496 181.008 167.066C178.632 168.52 178.806 170.962 181.181 172.358C183.731 173.87 183.731 176.254 181.181 177.824C178.632 179.336 178.574 181.779 181.123 183.233C183.673 184.687 183.441 187.187 180.66 188.757L172.259 193.584C169.536 195.154 169.304 197.655 171.795 199.167C174.229 200.621 174.403 203.005 172.027 204.517C169.478 206.087 165.075 206.029 162.236 204.401L153.719 199.458C150.938 197.829 146.534 197.771 143.985 199.283C141.667 200.679 141.725 203.238 144.101 204.633C146.65 206.087 146.65 208.53 144.101 209.984C141.552 211.496 137.206 211.379 134.425 209.751L120.81 201.958C120.81 201.958 111.54 196.608 111.54 185.85V102.224C111.54 100.945 112.467 99.3744 113.567 98.7347L137.322 84.9522Z" fill="url(#paint5_linear)"/>
  <path d="M129.442 98.2114L121.447 102.864C121.099 103.096 120.81 102.864 120.81 102.398C120.81 101.933 121.099 101.352 121.447 101.177L129.442 96.5249C129.79 96.2923 130.08 96.5249 130.08 96.9901C130.08 97.4554 129.79 97.9787 129.442 98.2114Z" fill="#4D535F"/>
  <path d="M63.5127 166.953V150.118C63.5127 148.836 64.4427 147.263 65.5472 146.623L98.7382 127.457C99.8426 126.817 100.773 127.341 100.773 128.623V145.516C100.773 146.797 99.8426 148.37 98.7382 149.011L65.5472 168.176C64.4427 168.759 63.5127 168.234 63.5127 166.953Z" fill="#33A2F8"/>
  <path d="M64.6748 167.594V150.7C64.6748 149.419 65.6049 147.846 66.7093 147.205L99.9003 127.749C101.005 127.108 101.935 127.632 101.935 128.914V145.807C101.935 147.089 101.005 148.661 99.9003 149.302L66.7093 168.759C65.6049 169.399 64.6748 168.875 64.6748 167.594Z" fill="#004EEC"/>
  <path d="M89.9607 142.778L74.6731 151.632C74.3243 151.865 74.0337 151.632 74.0337 151.166C74.0337 150.7 74.3243 150.118 74.6731 149.943L89.9607 141.089C90.3095 140.856 90.6001 141.089 90.6001 141.555C90.6001 142.021 90.3095 142.545 89.9607 142.778Z" fill="white"/>
  <path d="M81.6485 152.623L74.615 156.875C74.2662 157.108 73.9756 156.875 73.9756 156.409C73.9756 155.943 74.2662 155.36 74.615 155.186L81.6485 150.933C81.9972 150.7 82.2879 150.933 82.2879 151.399C82.2879 151.865 81.9972 152.39 81.6485 152.623Z" fill="white"/>
  <path d="M128.685 150.73C128.743 150.788 128.801 150.904 128.801 151.194V156.528C128.801 157.572 127.986 159.021 127.053 159.543L122.392 162.268C122.159 162.442 121.985 162.442 121.926 162.442C121.868 162.384 121.81 162.268 121.81 161.979V156.644C121.81 155.601 122.625 154.151 123.558 153.629L128.219 150.962C128.51 150.73 128.626 150.73 128.685 150.73ZM128.685 149.57C128.393 149.57 128.044 149.686 127.636 149.86L122.975 152.528C121.693 153.281 120.645 155.079 120.645 156.528V161.863C120.645 162.906 121.169 163.486 121.926 163.486C122.218 163.486 122.567 163.37 122.975 163.196L127.636 160.471C128.918 159.717 129.966 157.92 129.966 156.47V151.136C129.966 150.15 129.442 149.57 128.685 149.57Z" fill="#4D535F"/>
  <path d="M127.461 153.513C127.694 153.629 127.694 154.035 127.519 154.441L125.189 158.79C125.072 159.021 124.898 159.195 124.723 159.253C124.548 159.369 124.373 159.369 124.257 159.253L123.091 158.268C122.917 158.094 122.917 157.63 123.208 157.282C123.441 156.934 123.849 156.76 124.024 156.934L124.781 157.572L126.645 154.093C126.82 153.629 127.228 153.397 127.461 153.513Z" fill="#33A2F8"/>
  <path d="M155.368 140.177L133.986 152.47C133.637 152.701 133.345 152.47 133.345 152.006C133.345 151.542 133.637 150.962 133.986 150.788L155.368 138.496C155.718 138.264 156.009 138.496 156.009 138.96C156.009 139.424 155.718 140.003 155.368 140.177Z" fill="white"/>
  <path d="M168.478 132.64L158.69 138.264C158.34 138.496 158.049 138.264 158.049 137.8C158.049 137.336 158.34 136.756 158.69 136.583L168.478 130.958C168.827 130.726 169.119 130.958 169.119 131.422C169.177 131.886 168.886 132.466 168.478 132.64Z" fill="#FC66FD"/>
  <path d="M128.685 166.675C128.743 166.733 128.801 166.849 128.801 167.139V172.473C128.801 173.517 127.986 174.966 127.053 175.488L122.392 178.155C122.159 178.271 121.985 178.329 121.926 178.329C121.868 178.271 121.81 178.155 121.81 177.866V172.531C121.81 171.488 122.625 170.038 123.558 169.516L128.219 166.791C128.51 166.675 128.626 166.675 128.685 166.675ZM128.685 165.515C128.393 165.515 128.044 165.631 127.636 165.805L122.975 168.53C121.693 169.284 120.645 171.082 120.645 172.531V177.866C120.645 178.909 121.169 179.547 121.926 179.547C122.218 179.547 122.567 179.431 122.975 179.257L127.636 176.59C128.918 175.836 129.966 174.039 129.966 172.589V167.255C129.966 166.095 129.442 165.515 128.685 165.515Z" fill="#4D535F"/>
  <path d="M127.461 169.458C127.694 169.574 127.694 169.98 127.519 170.386L125.189 174.734C125.072 174.966 124.898 175.14 124.723 175.198C124.548 175.314 124.373 175.314 124.257 175.198L123.091 174.213C122.917 174.039 122.917 173.575 123.208 173.227C123.441 172.879 123.849 172.705 124.024 172.879L124.781 173.517L126.645 170.038C126.82 169.574 127.228 169.342 127.461 169.458Z" fill="#33A2F8"/>
  <path d="M153.038 157.92L134.569 168.472C134.22 168.704 133.928 168.472 133.928 168.009C133.928 167.545 134.22 166.965 134.569 166.791L153.038 156.238C153.388 156.006 153.679 156.238 153.679 156.702C153.679 157.166 153.388 157.746 153.038 157.92Z" fill="white"/>
  <path d="M128.335 187.722L123.091 190.737C122.742 190.969 122.45 190.737 122.45 190.274C122.45 189.81 122.742 189.23 123.091 189.056L128.335 186.041C128.684 185.809 128.976 186.041 128.976 186.505C129.034 186.969 128.743 187.49 128.335 187.722Z" fill="#4D535F"/>
  <path d="M145.523 177.866L131.715 185.809C131.365 186.041 131.074 185.809 131.074 185.345C131.074 184.881 131.365 184.301 131.715 184.128L145.523 176.184C145.872 175.952 146.164 176.184 146.164 176.648C146.164 177.112 145.872 177.634 145.523 177.866Z" fill="#4D535F"/>
  <path d="M162.652 168.009L148.844 175.952C148.494 176.184 148.203 175.952 148.203 175.488C148.203 175.024 148.494 174.445 148.844 174.271L162.652 166.327C163.001 166.095 163.293 166.327 163.293 166.791C163.293 167.255 163.001 167.777 162.652 168.009Z" fill="#FE7F77"/>
  <path d="M131.598 120.29L121.285 126.204C120.936 126.436 120.645 126.204 120.645 125.74C120.645 125.276 120.936 124.696 121.285 124.522L131.598 118.608C131.947 118.376 132.239 118.608 132.239 119.072C132.239 119.536 131.947 120.058 131.598 120.29Z" fill="#FAFAFA"/>
  <path d="M169.468 98.5465L134.919 118.376C134.569 118.608 134.278 118.376 134.278 117.912C134.278 117.449 134.569 116.869 134.919 116.695L169.468 96.8651C169.818 96.6331 170.109 96.8651 170.109 97.3289C170.109 97.7928 169.818 98.3146 169.468 98.5465Z" fill="white"/>
  <path d="M139.347 193.173C139.988 193.173 140.628 193.289 141.036 193.579L145.639 196.246C145.93 196.42 145.989 196.536 145.989 196.594C145.989 196.652 145.93 196.768 145.581 196.941L140.978 199.667C140.57 199.899 139.929 200.072 139.288 200.072C138.648 200.072 138.007 199.957 137.599 199.667L132.996 196.999C132.705 196.826 132.647 196.71 132.647 196.652C132.647 196.594 132.705 196.478 133.054 196.304L137.657 193.579C138.065 193.289 138.648 193.173 139.347 193.173ZM139.347 192.013C138.531 192.013 137.657 192.187 137.016 192.593L132.413 195.318C131.132 196.072 131.132 197.289 132.413 198.043L137.016 200.71C137.657 201.058 138.473 201.29 139.288 201.29C140.104 201.29 140.978 201.116 141.619 200.71L146.222 197.985C147.503 197.231 147.503 196.014 146.222 195.26L141.619 192.593C140.978 192.187 140.162 192.013 139.347 192.013Z" fill="#4D535F"/>
  <path d="M139.813 194.448C140.279 194.448 140.628 194.622 140.687 194.912L140.978 197.753C140.978 197.869 140.92 198.043 140.745 198.101C140.57 198.217 140.337 198.217 140.104 198.217L137.541 198.043C137.074 198.043 136.783 197.753 136.841 197.521C136.9 197.231 137.307 197.057 137.715 197.115L139.347 197.231L139.114 194.912C139.055 194.68 139.405 194.448 139.813 194.448Z" fill="#33A2F8"/>
  <path d="M169.876 179.605L148.494 191.897C148.144 192.129 147.503 192.071 147.096 191.839C146.688 191.607 146.629 191.259 146.979 191.027L168.361 178.735C168.711 178.503 169.352 178.561 169.76 178.793C170.167 179.025 170.226 179.373 169.876 179.605Z" fill="white"/>
  <path d="M180.363 171.835L171.682 176.822C171.333 177.054 171.391 177.402 171.799 177.634C172.207 177.866 172.847 177.924 173.197 177.692L181.703 172.821C181.587 172.705 181.412 172.647 181.237 172.531C180.888 172.299 180.596 172.067 180.363 171.835Z" fill="#4D535F"/>
  <path d="M194.463 164.588C194.055 164.356 193.414 164.298 193.065 164.53L189.394 166.617C189.802 166.791 190.21 166.965 190.559 167.139C190.734 167.255 190.909 167.313 191.084 167.371L194.638 165.341C194.929 165.168 194.929 164.82 194.463 164.588Z" fill="#4D535F"/>
  <path d="M184.733 101.967C184.733 102.025 184.733 102.083 184.733 102.199V108.287C184.733 109.157 184.034 110.317 183.276 110.781L122.043 145.976C121.926 146.034 121.868 146.092 121.81 146.092C121.81 146.034 121.81 145.976 121.81 145.86V139.772C121.81 138.902 122.509 137.742 123.266 137.278L184.5 102.141C184.558 102.025 184.675 101.967 184.733 101.967ZM184.791 100.808C184.5 100.808 184.209 100.924 183.917 101.098L122.684 136.235C121.577 136.872 120.645 138.438 120.645 139.714V145.802C120.645 146.729 121.111 147.251 121.752 147.251C122.043 147.251 122.334 147.135 122.625 146.961L183.859 111.766C184.966 111.129 185.898 109.563 185.898 108.287V102.199C185.898 101.33 185.432 100.808 184.791 100.808Z" fill="#4D535F"/>
  <path d="M146.396 129.045L125.014 141.337C124.664 141.569 124.373 141.337 124.373 140.873C124.373 140.409 124.664 139.83 125.014 139.656L146.396 127.363C146.746 127.132 147.037 127.363 147.037 127.827C147.037 128.291 146.746 128.871 146.396 129.045Z" fill="#4D535F"/>
  <defs>
    <linearGradient id="paint0_linear" x1="4.06659" y1="201.354" x2="4.06659" y2="84.3336" gradientUnits="userSpaceOnUse">
      <stop stop-color="#000919"/>
      <stop offset="1" stop-color="#333A48"/>
    </linearGradient>
    <linearGradient id="paint1_linear" x1="147.486" y1="40.551" x2="5.05514" y2="40.551" gradientUnits="userSpaceOnUse">
      <stop stop-color="#4D535F"/>
      <stop offset="1" stop-color="#333A48"/>
    </linearGradient>
    <linearGradient id="paint2_linear" x1="111.539" y1="41.8454" x2="111.539" y2="211.089" gradientUnits="userSpaceOnUse">
      <stop/>
      <stop offset="1" stop-color="#0B1223"/>
    </linearGradient>
    <linearGradient id="paint3_linear" x1="73.8303" y1="145.444" x2="120.229" y2="145.444" gradientUnits="userSpaceOnUse">
      <stop stop-color="#333A48"/>
      <stop offset="1" stop-color="#666B76"/>
    </linearGradient>
    <linearGradient id="paint4_linear" x1="92.6744" y1="121.897" x2="176.66" y2="121.897" gradientUnits="userSpaceOnUse">
      <stop/>
      <stop offset="1" stop-color="#0B1223"/>
    </linearGradient>
    <linearGradient id="paint5_linear" x1="111.531" y1="137.122" x2="219.942" y2="137.122" gradientUnits="userSpaceOnUse">
      <stop stop-color="#1A2231"/>
      <stop offset="1" stop-color="#333A48"/>
    </linearGradient>
  </defs>
</svg>
