<svg width="1440" height="900" fill="none" xmlns="http://www.w3.org/2000/svg"><path d="M798.47 638.521c.245.245.49.735.49 1.96v22.534c0 4.409-3.429 10.532-7.348 12.736l-19.595 11.512c-.98.735-1.715.735-1.96.735-.245-.245-.49-.735-.49-1.959v-22.534c0-4.409 3.429-10.533 7.348-12.737l19.595-11.267c1.225-.98 1.715-.98 1.96-.98zm0-4.899c-1.225 0-2.695.49-4.409 1.225l-19.595 11.267c-5.389 3.184-9.798 10.777-9.798 16.901v22.534c0 4.409 2.205 6.858 5.389 6.858 1.225 0 2.694-.49 4.409-1.225l19.595-11.512c5.388-3.184 9.797-10.777 9.797-16.9v-22.534c0-4.164-2.204-6.614-5.388-6.614z" fill="#4D535F"/><path d="M793.326 650.278c.98.49.98 2.204.245 3.919l-9.798 18.37c-.49.98-1.224 1.715-1.959 1.96-.735.49-1.47.49-1.96 0l-4.898-4.164c-.735-.735-.735-2.695.489-4.164.98-1.47 2.695-2.205 3.43-1.47l3.184 2.694 7.838-14.696c.734-1.959 2.449-2.939 3.429-2.449z" fill="#33A2F8"/><path d="M910.651 593.942l-89.892 51.927c-1.47.98-2.695 0-2.695-1.959 0-1.96 1.225-4.409 2.695-5.144l89.892-51.927c1.469-.98 2.694 0 2.694 1.96 0 1.959-1.225 4.409-2.694 5.143z" fill="#fff"/><path d="M965.761 562.101l-41.15 23.758c-1.469.98-2.694 0-2.694-1.959 0-1.96 1.225-4.409 2.694-5.144l41.15-23.759c1.469-.979 2.694 0 2.694 1.96.245 1.959-.98 4.409-2.694 5.144z" fill="#FC66FD"/><path d="M798.47 705.879c.245.245.49.734.49 1.959v22.534c0 4.409-3.429 10.533-7.348 12.737l-19.595 11.267c-.98.49-1.715.735-1.96.735-.245-.245-.49-.735-.49-1.96v-22.534c0-4.409 3.429-10.532 7.348-12.737l19.595-11.512c1.225-.489 1.715-.489 1.96-.489zm0-4.899c-1.225 0-2.695.49-4.409 1.225l-19.595 11.512c-5.389 3.184-9.798 10.777-9.798 16.9v22.534c0 4.409 2.205 7.104 5.389 7.104 1.225 0 2.694-.49 4.409-1.225l19.595-11.267c5.388-3.184 9.797-10.777 9.797-16.901v-22.534c0-4.899-2.204-7.348-5.388-7.348z" fill="#4D535F"/><path d="M793.326 717.636c.98.489.98 2.204.245 3.919l-9.798 18.37c-.49.98-1.224 1.714-1.959 1.959-.735.49-1.47.49-1.96 0l-4.898-4.164c-.735-.734-.735-2.694.489-4.164.98-1.469 2.695-2.204 3.43-1.469l3.184 2.694 7.838-14.696c.734-1.96 2.449-2.939 3.429-2.449z" fill="#33A2F8"/><path d="M900.853 668.893l-77.645 44.578c-1.47.98-2.694.001-2.694-1.959 0-1.959 1.224-4.409 2.694-5.144l77.645-44.578c1.47-.98 2.694 0 2.694 1.959 0 1.96-1.224 4.409-2.694 5.144z" fill="#fff"/><path d="M796.999 794.791l-22.044 12.736c-1.47.98-2.694 0-2.694-1.959 0-1.96 1.224-4.409 2.694-5.144l22.044-12.737c1.47-.979 2.695 0 2.695 1.96.245 1.959-.98 4.164-2.695 5.144zM869.256 753.151l-58.05 33.557c-1.47.979-2.694 0-2.694-1.96 0-1.959 1.224-4.409 2.694-5.143l58.05-33.557c1.47-.98 2.694 0 2.694 1.96 0 1.959-1.224 4.164-2.694 5.143z" fill="#4D535F"/><path d="M941.267 711.512l-58.05 33.556c-1.469.98-2.694 0-2.694-1.959 0-1.96 1.225-4.409 2.694-5.144l58.05-33.556c1.47-.98 2.695 0 2.695 1.959 0 1.96-1.225 4.164-2.695 5.144z" fill="#FE7F77"/><path d="M810.717 509.929l-43.354 24.984c-1.47.979-2.695 0-2.695-1.96 0-1.959 1.225-4.409 2.695-5.144l43.354-24.983c1.469-.98 2.694 0 2.694 1.959 0 1.96-1.225 4.164-2.694 5.144z" fill="#FAFAFA"/><path d="M969.925 418.078l-145.247 83.768c-1.47.98-2.695 0-2.695-1.959 0-1.96 1.225-4.409 2.695-5.144l145.247-83.768c1.47-.98 2.695 0 2.695 1.959 0 1.96-1.225 4.164-2.695 5.144z" fill="#fff"/><path d="M843.293 817.815c2.694 0 5.389.489 7.103 1.714l19.35 11.267c1.225.735 1.47 1.225 1.47 1.47 0 .245-.245.735-1.715 1.47l-19.35 11.512c-1.714.979-4.409 1.714-7.103 1.714s-5.389-.49-7.103-1.714l-19.35-11.268c-1.225-.734-1.47-1.224-1.47-1.469 0-.245.245-.735 1.715-1.47l19.35-11.512c1.714-1.225 4.164-1.714 7.103-1.714zm0-4.899c-3.429 0-7.103.735-9.798 2.449l-19.35 11.512c-5.388 3.184-5.388 8.328 0 11.512l19.35 11.267c2.695 1.47 6.124 2.45 9.553 2.45 3.429 0 7.103-.735 9.797-2.45l19.35-11.512c5.389-3.184 5.389-8.327 0-11.512l-19.35-11.267c-2.694-1.714-6.123-2.449-9.552-2.449z" fill="#4D535F"/><path d="M845.252 823.203c1.96 0 3.429.735 3.674 1.96l1.225 12.002c0 .49-.245 1.224-.98 1.469-.734.49-1.714.49-2.694.49l-10.777-.735c-1.96 0-3.184-1.224-2.939-2.204.244-1.225 1.959-1.96 3.674-1.715l6.858.49-.98-9.797c-.245-.98 1.225-1.96 2.939-1.96z" fill="#33A2F8"/><path d="M971.639 760.5l-89.892 51.926c-1.469.98-4.164.735-5.878-.245-1.715-.98-1.96-2.449-.49-3.429l89.892-51.926c1.469-.98 4.164-.735 5.878.244 1.715.98 1.96 2.45.49 3.43z" fill="#fff"/><path d="M1015.73 727.678l-36.497 21.064c-1.47.98-1.225 2.45.49 3.43 1.714.979 4.409 1.224 5.878.244l35.759-20.574c-.49-.49-1.22-.735-1.96-1.225-1.47-.98-2.69-1.959-3.67-2.939zM1075 697.061c-1.71-.98-4.41-1.225-5.88-.245l-15.43 8.818c1.72.734 3.43 1.469 4.9 2.204.74.49 1.47.735 2.21.98l14.94-8.573c1.22-.735 1.22-2.204-.74-3.184zM1034.1 432.529v26.698c0 3.674-2.94 8.573-6.12 10.532L770.547 618.436c-.49.245-.735.49-.98.49v-26.698c0-3.674 2.939-8.573 6.124-10.532l257.429-148.432c.24-.49.73-.735.98-.735zm.24-4.899c-1.22 0-2.45.49-3.67 1.225L773.241 577.287c-4.654 2.694-8.573 9.307-8.573 14.696v25.718c0 3.919 1.96 6.124 4.654 6.124 1.225 0 2.45-.49 3.674-1.225l257.424-148.677c4.66-2.694 8.58-9.307 8.58-14.696v-25.718c0-3.674-1.96-5.879-4.66-5.879z" fill="#4D535F"/><path d="M872.93 546.915l-89.891 51.926c-1.47.98-2.695 0-2.695-1.959 0-1.96 1.225-4.409 2.695-5.144l89.891-51.927c1.47-.979 2.695 0 2.695 1.96 0 1.959-1.225 4.409-2.695 5.144z" fill="#4D535F"/></svg>
