<svg width="1440" height="900" fill="none" xmlns="http://www.w3.org/2000/svg"><path d="M843.293 402.402V18.586c0-13.472-9.552-19.105-21.309-12.247L276.509 321.328c-11.757 6.858-21.309 23.269-21.309 36.74v383.816l588.093-339.482z" fill="#333A48"/><path d="M294.39 385.448l-39.19-24.685v467.638l39.19 27.134V385.448z" fill="url(#prefix__prefix__paint0_linear)"/><path d="M870.482 24.22L831.537 1.684 276.51 322.063l39.19 22.534L859.949 30.343h18.371l-7.838-6.123z" fill="url(#prefix__prefix__paint1_linear)"/><path d="M882.238 515.563V41.365c0-13.472-9.552-19.105-21.309-12.247l-545.23 314.989c-11.757 6.858-21.309 23.269-21.309 36.741v474.197l587.848-339.482z" fill="#333A48"/><path d="M479.317 357.578l-64.418 37.231c-1.47.98-2.694 0-2.694-1.96 0-1.959 1.224-4.408 2.694-5.143l64.418-37.231c1.47-.979 2.695 0 2.695 1.96 0 1.714-1.225 4.164-2.695 5.143zm-23.514 35.027l-41.149 24.003c-1.47.98-2.695 0-2.695-1.959 0-1.96 1.225-4.409 2.695-5.144l41.149-24.004c1.47-.979 2.694 0 2.694 1.96 0 1.959-1.224 4.164-2.694 5.144z" fill="#B3B6BB"/><path d="M671.102 245.887l-98.709 57.561c-1.96 1.224-3.674-.001-3.674-2.695s1.714-5.878 3.674-6.858l98.709-57.56c1.96-1.225 3.674 0 3.674 2.694 0 2.449-1.714 5.634-3.674 6.858zm-30.617 40.905l-68.827 39.679c-1.469.98-2.694 0-2.694-1.959 0-1.96 1.225-4.409 2.694-5.144l68.827-39.924c1.47-.98 2.695 0 2.695 1.959 0 2.205-1.225 4.409-2.695 5.389zM359.509 517.574c3.617-6.19 3.71-12.869.208-14.917-3.505-2.048-9.278 1.308-12.896 7.498-3.618 6.189-3.711 12.869-.208 14.916 3.502 2.048 9.275-1.308 12.896-7.497z" fill="#666B76"/><path d="M355.869 457.268l-5.389 3.184c-9.307 5.389-16.9-.245-16.9-12.737 0-12.491 7.593-26.943 16.9-32.331l5.389-3.185c9.307-5.388 16.9.245 16.9 12.737s-7.593 26.943-16.9 32.332zm3.593 105.891c3.618-6.19 3.711-12.869.208-14.917-3.505-2.047-9.278 1.311-12.896 7.5-3.618 6.187-3.711 12.867-.208 14.914 3.503 2.048 9.276-1.308 12.896-7.497z" fill="#B3B6BB"/><path d="M359.567 607.921c3.618-6.189 3.711-12.866.209-14.914-3.503-2.05-9.279 1.308-12.896 7.497-3.618 6.19-3.711 12.867-.209 14.917 3.503 2.048 9.279-1.31 12.896-7.5zm-.124 161.242c3.618-6.189 3.711-12.866.208-14.917-3.503-2.047-9.278 1.311-12.896 7.5-3.618 6.19-3.711 12.867-.208 14.915 3.503 2.05 9.278-1.308 12.896-7.498zm.078-115.657c3.617-6.189 3.71-12.866.208-14.914-3.503-2.05-9.279 1.308-12.896 7.498-3.618 6.189-3.711 12.866-.208 14.916 3.505 2.048 9.278-1.31 12.896-7.5z" fill="#666B76"/><path d="M404.332 346.204c3.341-5.727 3.4-11.914.127-13.825-3.27-1.91-8.631 1.183-11.972 6.908-3.344 5.724-3.4 11.913-.13 13.821 3.272 1.911 8.632-1.18 11.975-6.904z" fill="#30CA41"/><path d="M374.937 363.349c3.343-5.724 3.4-11.914.13-13.824-3.27-1.908-8.632 1.183-11.975 6.907-3.341 5.724-3.4 11.914-.128 13.824 3.27 1.908 8.632-1.183 11.973-6.907z" fill="#FCBD2E"/><path d="M347.994 378.045c3.343-5.724 3.4-11.913.13-13.824-3.272-1.908-8.634 1.183-11.975 6.907-3.343 5.724-3.4 11.914-.13 13.825 3.272 1.908 8.634-1.184 11.975-6.908z" fill="#FA6058"/><defs><linearGradient id="prefix__prefix__paint0_linear" x1="272.384" y1="853.075" x2="272.384" y2="358.276" gradientUnits="userSpaceOnUse"><stop stop-color="#000919"/><stop offset="1" stop-color="#333A48"/></linearGradient><linearGradient id="prefix__prefix__paint1_linear" x1="878.43" y1="173.148" x2="276.561" y2="173.148" gradientUnits="userSpaceOnUse"><stop stop-color="#4D535F"/><stop offset="1" stop-color="#333A48"/></linearGradient></defs></svg>
