<svg width="1440" height="900" fill="none" xmlns="http://www.w3.org/2000/svg"><path d="M524.63 707.103v-70.786c0-5.389 3.919-12.002 8.573-14.697l139.859-80.584c4.654-2.694 8.573-.49 8.573 4.899v71.032c0 5.388-3.919 12.002-8.573 14.696l-139.859 80.584c-4.654 2.45-8.573.245-8.573-5.144z" fill="#33A2F8"/><path d="M529.529 709.798v-71.032c0-5.389 3.919-12.002 8.573-14.696l139.859-81.809c4.654-2.694 8.573-.49 8.573 4.899v71.031c0 5.389-3.919 12.002-8.573 14.697l-139.859 81.809c-4.654 2.694-8.573.489-8.573-4.899z" fill="#004EEC"/><path d="M636.077 605.455l-64.418 37.23c-1.47.98-2.695 0-2.695-1.959 0-1.96 1.225-4.409 2.695-5.144l64.418-37.23c1.47-.98 2.694 0 2.694 1.959 0 1.96-1.224 4.164-2.694 5.144zM601.051 646.849l-29.637 17.88c-1.47.98-2.695 0-2.695-1.959 0-1.96 1.225-4.409 2.695-5.144l29.637-17.88c1.47-.98 2.694 0 2.694 1.959 0 1.96-1.224 4.164-2.694 5.144z" fill="#fff"/></svg>
