<svg width="1440" height="900" fill="none" xmlns="http://www.w3.org/2000/svg"><path d="M1178.61 692.162c-.98-3.674-3.92-7.348-9.06-10.287l-57.07-32.822s-22.54-12.981-33.31-38.7c-1.96-6.368-3.43-13.471-3.43-21.309V281.403c0-2.694-.98-4.654-2.45-5.388v-1.96c0-5.389-3.92-7.593-8.57-4.899L846.722 395.054c-1.224.735-2.449.98-3.674 1.225V372.03c0-3.919-1.959-6.124-4.898-6.124v-1.224c0-5.389-3.919-7.593-8.573-4.899l-100.669 58.05c-4.654 2.694-8.573 9.308-8.573 14.696v352.219c0 10.288 1.959 19.35 5.144 27.188 8.817 32.087 36.495 48.008 36.495 48.008l57.071 33.066c6.368 3.674 14.941 5.634 23.024 5.389 7.348.245 14.696-1.225 20.329-4.409 9.798-5.633 10.778-14.206 2.94-20.575-.735-3.429-3.43-6.858-7.838-9.307-1.225-.735-2.205-1.47-2.94-1.96-.979-4.653 1.715-9.552 7.838-13.226 4.899-2.694 11.267-4.164 17.881-4.409 7.348.245 14.696 1.96 20.574 5.389l36.006 20.819c6.368 3.674 14.941 5.634 23.024 5.389 7.348.245 14.696-1.225 20.33-4.409 9.797-5.634 10.532-14.206 2.939-20.575-.735-3.429-3.429-6.858-7.838-9.552-.979-.49-1.714-1.225-2.449-1.715-.98-4.899 1.959-10.287 9.063-14.451l35.512-20.33c10.78-6.123 12.25-15.431 4.17-21.799-.74-3.429-2.94-6.614-7.35-9.063-.98-.49-1.96-1.225-2.7-1.959-.97-4.654 1.72-9.798 8.09-13.472 9.8-5.878 10.78-14.696 2.94-20.82-.74-3.429-3.43-6.858-7.84-9.307-1.23-.735-2.21-1.47-2.94-1.96-.98-4.653 1.71-9.552 7.84-13.226 5.14-2.939 11.75-4.409 18.37-4.654 6.61.245 13.22 1.715 18.37 4.654 5.63 3.429 13.22 4.898 20.82 4.654 7.59.244 15.18-1.47 20.82-4.654 5.14-2.939 11.75-4.409 18.37-4.654 6.61.245 13.22 1.715 18.37 4.654 5.63 3.184 13.22 4.898 20.82 4.654 7.59.244 15.18-1.47 20.82-4.654 9.06-6.124 9.79-14.696 2.2-21.31z" fill="#666B76"/><path d="M834.476 362.232c4.654-2.694 8.573-.49 8.573 4.899v25.474c0 5.388 3.919 7.593 8.572 4.898l218.239-125.897c4.65-2.695 8.57-.49 8.57 4.898V583.9c0 44.824 39.19 67.358 39.19 67.358l57.07 33.066c15.92 9.063 11.52 25.229-13.96 28.168-8.33.98-16.65-.735-24-4.899-10.78-5.878-27.92-5.878-38.7.245-10.78 6.369-28.41 6.369-39.19 0-11.02-6.368-28.9-6.368-39.68.245-10.04 6.124-9.31 16.411.73 22.289 10.78 6.369 10.78 16.411 0 23.024-10.77 6.369-11.02 16.656-.24 22.78 10.78 6.123 9.8 16.655-1.96 23.269l-35.517 20.329c-11.512 6.614-12.492 17.146-1.96 23.514 10.288 6.124 11.022 16.166.98 22.535-10.777 6.613-29.392 6.368-41.394-.49l-36.006-20.82c-11.757-6.858-30.372-7.103-41.149-.735-9.798 5.879-9.553 16.656.49 22.534 10.777 6.124 10.777 16.411 0 22.535-10.778 6.368-29.148 5.878-40.905-.98l-57.56-32.822s-39.19-22.534-39.19-67.847V434.979c0-5.389 3.919-12.002 8.573-14.697l100.424-58.05z" fill="url(#prefix__prefix__paint0_linear)"/><path d="M801.165 418.078l-33.802 19.595c-1.469.98-2.694 0-2.694-1.96 0-1.959 1.225-4.409 2.694-5.143l33.802-19.595c1.469-.98 2.694 0 2.694 1.959 0 1.96-1.225 4.164-2.694 5.144z" fill="#4D535F"/><defs><linearGradient id="prefix__prefix__paint0_linear" x1="725.442" y1="581.963" x2="1183.76" y2="581.963" gradientUnits="userSpaceOnUse"><stop stop-color="#1A2231"/><stop offset="1" stop-color="#333A48"/></linearGradient></defs></svg>
