<svg width="1440" height="900" fill="none" xmlns="http://www.w3.org/2000/svg"><path d="M1039 611.088l-3.43-1.959.98-.49-5.39-3.184 2.94-1.715-77.401-44.578-35.271-61.235V181.224l-2.449 1.47v-3.919l-3.184 1.714c-1.225-2.939-4.409-3.674-7.838-1.469l-100.669 57.805c-1.225.735-2.45.979-3.674 1.224v-24.248c0-2.94-1.225-4.899-3.185-5.634-.489-.98-.979-1.714-1.959-2.204-.245-4.899-3.919-6.859-8.328-4.409l-100.669 58.05c-4.654 2.694-8.573 9.307-8.573 14.696v26.208c0 5.389-3.919 12.002-8.573 14.696L563.82 377.418l-148.186 85.483c-4.654 2.695-8.573 9.308-8.573 14.697v306.905c0 14.207 3.919 26.209 9.062 36.006 5.144 11.267 12.247 20.085 18.616 26.208 8.572 8.818 16.165 13.227 16.165 13.227l57.071 33.066c17.145 10.043 48.497 6.124 49.722-12.246.245-2.695-1.47-5.389-3.674-6.859a14.086 14.086 0 00-2.694-2.694c-1.225-2.694-3.674-5.144-7.104-7.348-1.224-.735-2.204-1.47-2.939-2.204-1.714-8.573 8.818-17.881 31.597-18.616 4.654-.245 9.553 1.225 13.227 3.919 14.696 11.023 47.517 7.349 50.702-10.532.489-2.939-.98-6.368-3.674-8.083-.735-1.225-1.96-2.204-3.185-2.939-1.224-2.694-3.674-5.144-7.103-7.103-1.224-.735-2.204-1.47-2.939-2.205-.98-4.653 1.715-9.552 7.838-13.226 6.858-3.919 16.656-9.798 23.269-13.717l30.617 17.636 6.613-3.919 8.328 4.898L1039 611.088z" fill="#666B76"/><path d="M647.099 787.198l39.19 22.534L1039 606.19l-78.382-45.314-39.19-67.847V186.123c0-5.389-3.919-7.593-8.573-4.899l-100.669 58.05c-4.653 2.694-8.572.49-8.572-4.899v-25.718c0-5.389-3.919-7.593-8.573-4.899l-100.669 58.05c-4.654 2.695-8.573 9.308-8.573 14.697v26.208c0 5.388-3.919 12.002-8.573 14.696l-108.507 62.459-148.187 85.483c-4.654 2.694-8.573 9.308-8.573 14.696v306.906c0 45.558 39.19 68.092 39.19 68.092l57.071 33.067c17.145 10.042 48.497 6.123 49.722-12.247.245-3.184-2.205-6.368-4.899-7.593-21.064-8.573-14.451-29.147 19.595-29.882 4.654-.245 9.553 1.224 13.227 3.919 14.696 11.022 47.517 7.348 50.702-10.533.734-3.429-1.47-7.348-4.654-8.572-15.186-5.879-16.656-17.636-4.409-24.739a2214.49 2214.49 0 0019.595-11.267z" fill="url(#prefix__prefix__paint0_linear)"/><path d="M761.974 263.033l-33.801 19.595c-1.47.98-2.694 0-2.694-1.96 0-1.959 1.224-4.409 2.694-5.143l33.801-19.595c1.47-.98 2.694 0 2.694 1.959 0 1.96-1.224 4.409-2.694 5.144zM569.699 467.065l-157.74 91.117v5.633l160.189-92.341-2.449-4.409zm-157.74 181.988v5.634l160.189-92.341-2.449-4.409-157.74 91.116zm0 90.137v5.634l160.189-92.586-2.449-4.164-157.74 91.116zm106.548-202.073l-64.418 37.231c-1.47.979-2.694 0-2.694-1.96 0-1.959 1.224-4.409 2.694-5.144l64.418-37.23c1.47-.98 2.695 0 2.695 1.96 0 1.959-1.225 4.408-2.695 5.143zm-32.332 40.17l-32.331 19.105c-1.47.98-2.695 0-2.695-1.959 0-1.96 1.225-4.409 2.695-5.144l32.331-19.105c1.47-.98 2.695 0 2.695 1.959 0 1.96-1.225 4.409-2.695 5.144zm32.332 49.967l-64.663 37.23c-1.47.98-2.695.001-2.695-1.959 0-1.959 1.225-4.409 2.695-5.144l64.418-37.23c1.47-.98 2.694 0 2.694 1.959.245 1.715-.979 4.164-2.449 5.144zM497.198 661.3l-43.354 24.984c-1.47.979-2.695 0-2.695-1.96 0-1.959 1.225-4.409 2.695-5.143l43.354-24.984c1.469-.98 2.694 0 2.694 1.96 0 1.959-1.225 4.163-2.694 5.143zm21.309-214.075l-64.418 37.231c-1.47.98-2.694 0-2.694-1.96 0-1.959 1.224-4.408 2.694-5.143l64.418-37.231c1.47-.979 2.695 0 2.695 1.96 0 1.959-1.225 4.409-2.695 5.143zm-32.332 40.17L453.844 506.5c-1.47.98-2.695 0-2.695-1.959 0-1.96 1.225-4.409 2.695-5.144l32.331-19.105c1.47-.98 2.695 0 2.695 1.959 0 1.96-1.225 4.164-2.695 5.144z" fill="#333A48"/><path d="M684 813.5c-.49 0-.735 0-1.225-.245l-76.091-46.387c-.49-.245-40.414-23.759-40.414-70.052V381.582l4.898-2.939v317.928c0 43.354 37.476 65.643 37.965 65.888l76.092 46.387c1.224.735 1.469 2.205.979 3.429-.734.735-1.469 1.225-2.204 1.225z" fill="url(#prefix__prefix__paint1_linear)"/><defs><linearGradient id="prefix__prefix__paint0_linear" x1="725.442" y1="180.078" x2="725.442" y2="893.478" gradientUnits="userSpaceOnUse"><stop/><stop offset="1" stop-color="#0B1223"/></linearGradient><linearGradient id="prefix__prefix__paint1_linear" x1="566.235" y1="616.768" x2="762.131" y2="616.768" gradientUnits="userSpaceOnUse"><stop stop-color="#333A48"/><stop offset="1" stop-color="#666B76"/></linearGradient></defs></svg>
