<svg width="1440" height="900" fill="none" xmlns="http://www.w3.org/2000/svg"><path d="M650.773 417.833l218.239-125.898c4.653-2.694 8.572-9.307 8.572-14.696v-25.718c0-5.389 3.919-12.002 8.573-14.696l100.669-58.05c4.654-2.695 8.573-.49 8.573 4.898v392.389l-347.81 211.136-4.899-2.939v-351.73c-.49-5.388 3.429-12.002 8.083-14.696z" fill="#333A48"/><path d="M655.672 420.282L873.91 294.385c4.654-2.695 8.573-9.308 8.573-14.696V253.97c0-5.388 3.919-12.002 8.573-14.696l100.669-58.05c4.654-2.694 8.575-.49 8.575 4.899V719.35L765.159 855.045l-117.57-67.847V434.979c-.49-5.389 3.429-12.002 8.083-14.697z" fill="url(#prefix__prefix__paint0_linear)"/><path d="M957.923 239.519l-33.801 19.595c-1.47.98-2.694 0-2.694-1.96 0-1.959 1.224-4.408 2.694-5.143l33.801-19.595c1.47-.98 2.695 0 2.695 1.959 0 1.96-1.225 4.409-2.695 5.144z" fill="#333A48"/><defs><linearGradient id="prefix__prefix__paint0_linear" x1="647.109" y1="517.532" x2="999.82" y2="517.532" gradientUnits="userSpaceOnUse"><stop/><stop offset="1" stop-color="#0B1223"/></linearGradient></defs></svg>
