<svg width="210" height="300" viewBox="0 0 210 300" fill="none" xmlns="http://www.w3.org/2000/svg">
  <path d="M13.043 134.393V5.66821C13.043 1.1501 16.2422 -0.739292 20.1797 1.56084L202.863 107.202C206.801 109.503 210 115.006 210 119.525V233.13L197.041 240.882L13.043 134.393Z" fill="#333A48"/>
  <path d="M196.875 127.082L210 119.525V233.052L196.875 240.692V127.082Z" fill="url(#paint0_linear)"/>
  <path d="M3.93799 7.55757L16.981 0L202.864 107.449L189.739 115.006L7.46533 9.61125H1.31299L3.93799 7.55757Z" fill="url(#paint1_linear)"/>
  <path d="M0 126.836V13.3079C0 8.78975 3.19922 6.90036 7.13672 9.20049L189.82 114.842C193.758 117.142 196.957 122.646 196.957 127.164V240.692L0 126.836Z" fill="#333A48"/>
  <path d="M0 35.7342V50.8493V172.345L52.5 202.74V66.1287L0 35.7342Z" fill="#333A48"/>
  <path d="M18.0218 33.2024C19.1178 32.5624 19.0981 30.4866 17.9792 28.5668C16.8595 26.6468 15.0646 25.6097 13.9687 26.2502C12.8735 26.891 12.8924 28.966 14.0121 30.8858C15.131 32.8056 16.9267 33.8431 18.0218 33.2024Z" fill="#FA6058"/>
  <path d="M27.8651 38.9527C28.961 38.3119 28.9414 36.2369 27.8224 34.3163C26.7027 32.3965 24.9079 31.3598 23.8119 32.0005C22.7168 32.6405 22.7357 34.7163 23.8554 36.6361C24.9743 38.5559 26.77 39.5934 27.8651 38.9527Z" fill="#FCBD2E"/>
  <path d="M36.8893 43.8815C37.9845 43.2408 37.9648 41.1649 36.8459 39.2451C35.727 37.3253 33.9313 36.2886 32.8354 36.9286C31.7402 37.5693 31.7591 39.6452 32.8788 41.565C33.9977 43.4847 35.7934 44.5214 36.8893 43.8815Z" fill="#30CA41"/>
  <path d="M185.294 144.505C185.294 142.7 183.982 140.485 182.425 139.582L43.7819 59.5029C42.2241 58.6003 40.9123 59.3388 40.9123 61.1438V61.5541C39.9284 61.5541 39.2725 62.2925 39.2725 63.6053V181.591L27.4662 202.021L1.63977 216.954L2.95159 217.693L0 219.416L44.2738 245.015C54.1124 250.758 64.525 254.369 69.6903 254.122C71.0841 254.204 72.1499 253.958 72.8878 253.548C74.5276 252.564 76.7413 252.071 78.873 251.989C81.0867 252.071 83.3004 252.564 85.0221 253.548C87.1538 254.779 87.9737 256.42 87.7277 257.979C87.4818 258.225 87.1538 258.389 86.8259 258.635C85.842 259.209 85.3501 260.03 85.3501 261.015C85.2681 261.015 85.2681 261.097 85.1861 261.097C81.5786 263.148 84.6122 268.235 91.8272 272.419C97.0744 275.455 100.026 278.901 99.944 281.363C98.4682 282.265 97.6483 283.332 97.4024 284.48C94.8607 286.614 95.1887 289.485 98.3863 291.373C99.5341 292.029 101.256 292.357 103.224 292.275C107.569 292.357 113.554 290.634 118.801 287.68C123.721 284.891 129.296 283.168 133.559 283.086C135.199 283.086 136.593 283.414 137.577 283.988C139.708 285.219 140.528 286.86 140.282 288.419C140.036 288.665 139.708 288.829 139.299 289.075C137.823 289.978 136.921 291.044 136.675 292.193C134.133 294.244 134.461 297.198 137.741 299.085C138.889 299.742 140.61 300.07 142.578 299.988C146.923 300.07 152.991 298.347 158.238 295.311C165.453 291.126 171.356 287.762 171.356 287.762C171.356 287.762 180.621 282.429 183.572 271.681C184.638 269.055 185.294 266.019 185.294 262.573V144.505Z" fill="#666B76"/>
  <path d="M180.785 140.403C182.343 141.306 183.654 143.521 183.654 145.326V263.312C183.654 278.491 170.536 286.039 170.536 286.039C170.536 286.039 164.633 289.403 157.418 293.588C150.203 297.772 141.348 299.495 137.741 297.362C134.133 295.229 134.051 291.865 137.659 289.814C141.266 287.762 141.184 284.398 137.577 282.265C133.969 280.132 125.197 281.855 117.982 286.039C110.767 290.224 101.994 291.865 98.3863 289.814C94.7788 287.762 94.7788 284.316 98.3863 282.265C101.994 280.132 99.0422 275.045 91.8272 270.86C84.6122 266.676 81.5786 261.589 85.1861 259.538C88.7936 257.486 88.7116 254.122 85.1041 251.989C81.4966 249.856 75.6754 249.856 72.0679 251.907C68.4604 253.958 56.0802 250.102 44.2738 243.292L0 217.693L26.2363 202.514L39.3545 179.786V61.8823C39.3545 60.0773 40.6663 59.3388 42.2241 60.2414L180.785 140.403Z" fill="url(#paint2_linear)"/>
  <path d="M39.1089 210.062L170.536 286.039C170.536 286.039 183.655 278.491 183.655 263.312L39.3549 179.868L39.1089 210.062Z" fill="url(#paint3_linear)"/>
  <path d="M170.536 286.039L39.1085 210.144L13.0361 225.405L44.2738 243.456C55.9981 250.266 68.4604 254.122 72.0679 252.071C75.6754 250.02 81.4966 250.02 85.1041 252.153C88.7116 254.287 88.7936 257.651 85.1861 259.702C81.5786 261.753 84.6121 266.84 91.8271 271.025C99.0421 275.209 101.994 280.296 98.3862 282.429C94.7787 284.481 94.7787 287.845 98.3042 289.978H98.3862C101.994 292.029 110.766 290.388 117.981 286.204C125.196 282.019 133.969 280.378 137.577 282.429C141.184 284.563 141.266 287.927 137.659 289.978C134.051 292.029 134.133 295.393 137.741 297.526C141.348 299.66 150.203 297.937 157.418 293.752C164.633 289.403 170.536 286.039 170.536 286.039Z" fill="#0B1223"/>
  <path d="M90.5976 105.86L60.5078 88.466C60.0159 88.1379 59.606 87.3994 59.606 86.743C59.606 86.0866 60.0159 85.7584 60.5078 86.0866L90.5976 103.481C91.0896 103.809 91.4995 104.548 91.4995 105.204C91.4995 105.86 91.0896 106.189 90.5976 105.86Z" fill="white"/>
  <path d="M74.9378 104.219L60.5078 95.8504C60.0159 95.5222 59.606 94.7838 59.606 94.1274C59.606 93.471 60.0159 93.1428 60.5078 93.471L75.0198 101.84C75.5117 102.168 75.9217 102.907 75.9217 103.563C75.9217 104.137 75.5117 104.466 74.9378 104.219Z" fill="white"/>
  <path d="M82.0708 144.998L60.5078 132.526C60.0159 132.198 59.606 131.46 59.606 130.803C59.606 130.147 60.0159 129.819 60.5078 130.147L82.0708 142.618C82.5627 142.946 82.9727 143.685 82.9727 144.341C82.9727 144.998 82.5627 145.244 82.0708 144.998Z" fill="white"/>
  <path d="M78.5448 157.633L66.1646 150.495C65.6726 150.167 65.2627 149.428 65.2627 148.772C65.2627 148.115 65.6726 147.787 66.1646 148.115L78.5448 155.254C79.0368 155.582 79.4467 156.32 79.4467 156.977C79.4467 157.633 79.0368 157.879 78.5448 157.633Z" fill="white"/>
  <path d="M112.57 177.325L83.1363 160.341C82.6443 160.013 82.2344 159.274 82.2344 158.618C82.2344 157.961 82.6443 157.633 83.1363 157.961L112.57 174.945C113.062 175.274 113.472 176.012 113.472 176.668C113.554 177.325 113.144 177.571 112.57 177.325Z" fill="white"/>
  <path d="M100.518 162.966L60.4258 139.829C59.9339 139.5 59.5239 138.762 59.5239 138.106C59.5239 137.449 59.9339 137.121 60.4258 137.449L100.518 160.587C101.01 160.915 101.42 161.654 101.42 162.31C101.42 162.966 101.01 163.294 100.518 162.966Z" fill="white"/>
  <path d="M125.361 177.325L105.191 165.674C104.699 165.346 104.29 164.607 104.29 163.951C104.29 163.294 104.699 162.966 105.191 163.294L125.361 174.945C125.853 175.274 126.262 176.012 126.262 176.668C126.344 177.325 125.935 177.653 125.361 177.325Z" fill="#FC66FD"/>
  <path d="M67.8868 158.782L60.5078 154.515C60.0159 154.187 59.606 153.449 59.606 152.792C59.606 152.136 60.0159 151.808 60.5078 152.136L67.8868 156.402C68.3787 156.731 68.7886 157.469 68.7886 158.125C68.7886 158.782 68.3787 159.11 67.8868 158.782Z" fill="white"/>
  <path d="M91.9909 172.73L72.5596 161.489C72.0677 161.161 71.6577 160.423 71.6577 159.766C71.6577 159.11 72.0677 158.782 72.5596 159.11L91.9909 170.351C92.4828 170.679 92.8927 171.417 92.8927 172.074C92.9747 172.73 92.5648 173.058 91.9909 172.73Z" fill="#FC66FD"/>
  <path d="M116.177 186.678L96.6641 175.438C96.1722 175.11 95.7622 174.371 95.7622 173.715C95.7622 173.058 96.1722 172.73 96.6641 173.058L116.095 184.299C116.587 184.627 116.997 185.366 116.997 186.022C117.079 186.678 116.669 187.007 116.177 186.678Z" fill="#50D9F9"/>
  <path d="M121.834 189.96L120.851 189.386C120.359 189.058 119.949 188.319 119.949 187.663C119.949 187.007 120.359 186.678 120.851 187.007L121.834 187.581C122.326 187.909 122.736 188.648 122.736 189.304C122.736 189.96 122.326 190.289 121.834 189.96Z" fill="white"/>
  <path d="M133.887 196.934L126.508 192.668C126.016 192.34 125.606 191.601 125.606 190.945C125.606 190.289 126.016 189.96 126.508 190.289L133.887 194.555C134.379 194.883 134.789 195.622 134.789 196.278C134.789 196.934 134.379 197.263 133.887 196.934Z" fill="white"/>
  <path d="M67.8868 173.469L60.5078 169.202C60.0159 168.874 59.606 168.135 59.606 167.479C59.606 166.823 60.0159 166.494 60.5078 166.823L67.8868 171.089C68.3787 171.417 68.7886 172.156 68.7886 172.812C68.7886 173.469 68.3787 173.797 67.8868 173.469Z" fill="white"/>
  <path d="M101.256 200.134L60.5078 176.586C60.0159 176.258 59.606 175.52 59.606 174.863C59.606 174.207 60.0159 173.879 60.5078 174.207L101.256 197.755C101.748 198.083 102.158 198.822 102.158 199.478C102.158 200.052 101.748 200.381 101.256 200.134Z" fill="white"/>
  <path d="M106.913 196.032L72.5596 176.176C72.0677 175.848 71.6577 175.109 71.6577 174.453C71.6577 173.797 72.0677 173.469 72.5596 173.797L106.913 193.653C107.405 193.981 107.815 194.719 107.815 195.376C107.815 196.032 107.405 196.36 106.913 196.032Z" fill="#FC66FD"/>
  <path d="M120.441 203.827L111.586 198.74C111.095 198.411 110.685 197.673 110.685 197.017C110.685 196.36 111.095 196.032 111.586 196.36L120.441 201.447C120.933 201.775 121.343 202.514 121.343 203.17C121.343 203.827 120.933 204.155 120.441 203.827Z" fill="#50D9F9"/>
  <path d="M126.099 207.109L125.115 206.534C124.623 206.206 124.213 205.468 124.213 204.811C124.213 204.155 124.623 203.827 125.115 204.155L126.099 204.729C126.591 205.057 127 205.796 127 206.452C127 207.109 126.591 207.437 126.099 207.109Z" fill="white"/>
  <path d="M142.414 216.544L130.772 209.816C130.28 209.488 129.87 208.75 129.87 208.093C129.87 207.437 130.28 207.109 130.772 207.437L142.414 214.165C142.906 214.493 143.316 215.231 143.316 215.888C143.316 216.544 142.906 216.872 142.414 216.544Z" fill="white"/>
  <path d="M102.65 156.895L86.7441 147.705C86.2522 147.377 85.8423 146.639 85.8423 145.982C85.8423 145.326 86.2522 144.998 86.7441 145.326L102.65 154.515C103.142 154.843 103.552 155.582 103.552 156.238C103.552 156.895 103.142 157.141 102.65 156.895Z" fill="white"/>
  <path d="M128.23 134.988L79.6109 106.927C79.1189 106.599 78.709 105.86 78.709 105.204C78.709 104.548 79.1189 104.219 79.6109 104.548L128.23 132.608C128.722 132.936 129.132 133.675 129.132 134.331C129.132 134.906 128.722 135.234 128.23 134.988Z" fill="#FF757A"/>
  <path d="M98.3865 139.747L60.4258 117.84C59.9339 117.511 59.5239 116.773 59.5239 116.117C59.5239 115.46 59.9339 115.132 60.4258 115.46L98.3865 137.367C98.8784 137.695 99.2884 138.434 99.2884 139.09C99.2884 139.747 98.8784 140.075 98.3865 139.747Z" fill="white"/>
  <path d="M96.2544 123.829L66.1646 106.435C65.6726 106.107 65.2627 105.368 65.2627 104.712C65.2627 104.055 65.6726 103.727 66.1646 104.055L96.2544 121.45C96.7463 121.778 97.1562 122.516 97.1562 123.173C97.1562 123.829 96.7463 124.157 96.2544 123.829Z" fill="white"/>
  <path d="M131.1 143.931L101.01 126.537C100.518 126.209 100.108 125.47 100.108 124.814C100.108 124.157 100.518 123.829 101.01 124.157L131.1 141.552C131.592 141.88 132.001 142.618 132.001 143.275C132.001 143.931 131.592 144.259 131.1 143.931Z" fill="#FC66FD"/>
  <path d="M141.758 150.085L136.511 147.049C136.019 146.721 135.609 145.982 135.609 145.326C135.609 144.669 136.019 144.341 136.511 144.669L141.758 147.705C142.25 148.033 142.66 148.772 142.66 149.428C142.66 150.085 142.25 150.413 141.758 150.085Z" fill="#FEAD6F"/>
  <path d="M164.469 163.212L146.432 152.792C145.94 152.464 145.53 151.726 145.53 151.069C145.53 150.413 145.94 150.085 146.432 150.413L164.469 160.833C164.961 161.161 165.371 161.9 165.371 162.556C165.371 163.212 164.961 163.541 164.469 163.212Z" fill="white"/>
  <path d="M96.2544 131.213L66.1646 113.819C65.6726 113.491 65.2627 112.753 65.2627 112.096C65.2627 111.44 65.6726 111.112 66.1646 111.44L96.2544 128.834C96.7463 129.162 97.1562 129.901 97.1562 130.557C97.1562 131.131 96.7463 131.46 96.2544 131.213Z" fill="white"/>
  <path d="M131.1 151.315L101.01 133.921C100.518 133.593 100.108 132.854 100.108 132.198C100.108 131.542 100.518 131.213 101.01 131.542L131.1 148.936C131.592 149.264 132.001 150.003 132.001 150.659C132.001 151.233 131.592 151.562 131.1 151.315Z" fill="#FC66FD"/>
  <path d="M141.758 157.469L136.511 154.433C136.019 154.105 135.609 153.367 135.609 152.71C135.609 152.054 136.019 151.726 136.511 152.054L141.758 155.09C142.25 155.418 142.66 156.156 142.66 156.813C142.66 157.387 142.25 157.715 141.758 157.469Z" fill="#FEAD6F"/>
  <path d="M164.469 170.597L146.432 160.177C145.94 159.848 145.53 159.11 145.53 158.454C145.53 157.797 145.94 157.469 146.432 157.797L164.469 168.217C164.961 168.546 165.371 169.284 165.371 169.94C165.371 170.515 164.961 170.843 164.469 170.597Z" fill="white"/>
  <path d="M54.3584 84.938L53.3745 84.3636C52.8826 84.0354 52.4727 83.297 52.4727 82.6406C52.4727 81.9842 52.8826 81.656 53.3745 81.9842L54.3584 82.5586C54.8503 82.8868 55.2603 83.6252 55.2603 84.2816C55.3423 84.938 54.9323 85.2662 54.3584 84.938Z" fill="#333A48"/>
  <path d="M54.3584 92.3223L53.3745 91.748C52.8826 91.4198 52.4727 90.6814 52.4727 90.025C52.4727 89.3686 52.8826 89.0404 53.3745 89.3686L54.3584 89.9429C54.8503 90.2711 55.2603 91.0096 55.2603 91.6659C55.3423 92.2403 54.9323 92.5685 54.3584 92.3223Z" fill="#333A48"/>
  <path d="M54.3584 99.6247L53.3745 99.0504C52.8826 98.7222 52.4727 97.9837 52.4727 97.3273C52.4727 96.671 52.8826 96.3428 53.3745 96.671L54.3584 97.2453C54.8503 97.5735 55.2603 98.3119 55.2603 98.9683C55.3423 99.6247 54.9323 99.9529 54.3584 99.6247Z" fill="#333A48"/>
  <path d="M54.3584 107.009L53.3745 106.435C52.8826 106.107 52.4727 105.368 52.4727 104.712C52.4727 104.055 52.8826 103.727 53.3745 104.055L54.3584 104.63C54.8503 104.958 55.2603 105.696 55.2603 106.353C55.3423 106.927 54.9323 107.255 54.3584 107.009Z" fill="#333A48"/>
  <path d="M54.3584 114.311L53.3745 113.737C52.8826 113.409 52.4727 112.67 52.4727 112.014C52.4727 111.358 52.8826 111.029 53.3745 111.358L54.3584 111.932C54.8503 112.26 55.2603 112.999 55.2603 113.655C55.3423 114.311 54.9323 114.64 54.3584 114.311Z" fill="#333A48"/>
  <path d="M54.3584 121.614L53.3745 121.039C52.8826 120.711 52.4727 119.973 52.4727 119.316C52.4727 118.66 52.8826 118.332 53.3745 118.66L54.3584 119.234C54.8503 119.562 55.2603 120.301 55.2603 120.957C55.3423 121.614 54.9323 121.942 54.3584 121.614Z" fill="#333A48"/>
  <path d="M54.3584 128.998L53.3745 128.424C52.8826 128.096 52.4727 127.357 52.4727 126.701C52.4727 126.044 52.8826 125.716 53.3745 126.044L54.3584 126.619C54.8503 126.947 55.2603 127.685 55.2603 128.342C55.3423 128.998 54.9323 129.244 54.3584 128.998Z" fill="#333A48"/>
  <path d="M54.3584 136.3L53.3745 135.726C52.8826 135.398 52.4727 134.659 52.4727 134.003C52.4727 133.347 52.8826 133.019 53.3745 133.347L54.3584 133.921C54.8503 134.249 55.2603 134.988 55.2603 135.644C55.3423 136.3 54.9323 136.629 54.3584 136.3Z" fill="#333A48"/>
  <path d="M54.3584 143.685L53.3745 143.11C52.8826 142.782 52.4727 142.044 52.4727 141.387C52.4727 140.731 52.8826 140.403 53.3745 140.731L54.3584 141.305C54.8503 141.634 55.2603 142.372 55.2603 143.028C55.3423 143.685 54.9323 143.931 54.3584 143.685Z" fill="#333A48"/>
  <path d="M54.3584 150.987L53.3745 150.413C52.8826 150.085 52.4727 149.346 52.4727 148.69C52.4727 148.033 52.8826 147.705 53.3745 148.033L54.3584 148.608C54.8503 148.936 55.2603 149.674 55.2603 150.331C55.3423 150.987 54.9323 151.315 54.3584 150.987Z" fill="#333A48"/>
  <path d="M54.3584 158.372L53.3745 157.797C52.8826 157.469 52.4727 156.731 52.4727 156.074C52.4727 155.418 52.8826 155.09 53.3745 155.418L54.3584 155.992C54.8503 156.32 55.2603 157.059 55.2603 157.715C55.3423 158.289 54.9323 158.618 54.3584 158.372Z" fill="#333A48"/>
  <path d="M54.3584 165.674L53.3745 165.1C52.8826 164.771 52.4727 164.033 52.4727 163.377C52.4727 162.72 52.8826 162.392 53.3745 162.72L54.3584 163.295C54.8503 163.623 55.2603 164.361 55.2603 165.018C55.3423 165.674 54.9323 166.002 54.3584 165.674Z" fill="#333A48"/>
  <path d="M54.3584 173.058L53.3745 172.484C52.8826 172.156 52.4727 171.417 52.4727 170.761C52.4727 170.105 52.8826 169.776 53.3745 170.105L54.3584 170.679C54.8503 171.007 55.2603 171.746 55.2603 172.402C55.3423 172.976 54.9323 173.304 54.3584 173.058Z" fill="#333A48"/>
  <path d="M74.9378 192.258L60.4258 183.889C59.9339 183.561 59.5239 182.822 59.5239 182.166C59.5239 181.509 59.9339 181.181 60.4258 181.509L74.9378 189.878C75.4297 190.206 75.8396 190.945 75.8396 191.601C75.9216 192.258 75.5117 192.586 74.9378 192.258Z" fill="white"/>
  <path d="M128.23 223.026L79.6109 194.965C79.1189 194.637 78.709 193.899 78.709 193.242C78.709 192.586 79.1189 192.258 79.6109 192.586L128.23 220.647C128.722 220.975 129.132 221.713 129.132 222.37C129.132 223.026 128.722 223.354 128.23 223.026Z" fill="#FF757A"/>
  <path d="M96.2544 211.867L66.1646 194.473C65.6726 194.145 65.2627 193.406 65.2627 192.75C65.2627 192.094 65.6726 191.765 66.1646 192.094L96.2544 209.488C96.7463 209.816 97.1562 210.555 97.1562 211.211C97.1562 211.867 96.7463 212.195 96.2544 211.867Z" fill="white"/>
  <path d="M131.1 231.969L101.01 214.575C100.518 214.247 100.108 213.508 100.108 212.852C100.108 212.196 100.518 211.867 101.01 212.196L131.1 229.59C131.592 229.918 132.001 230.656 132.001 231.313C132.001 231.969 131.592 232.297 131.1 231.969Z" fill="#FC66FD"/>
  <path d="M141.758 238.123L136.511 235.087C136.019 234.759 135.609 234.02 135.609 233.364C135.609 232.708 136.019 232.379 136.511 232.708L141.758 235.743C142.25 236.072 142.66 236.81 142.66 237.467C142.66 238.123 142.25 238.451 141.758 238.123Z" fill="#FEAD6F"/>
  <path d="M164.469 251.251L146.432 240.831C145.94 240.502 145.53 239.764 145.53 239.107C145.53 238.451 145.94 238.123 146.432 238.451L164.469 248.871C164.961 249.199 165.371 249.938 165.371 250.594C165.371 251.251 164.961 251.579 164.469 251.251Z" fill="white"/>
  <path d="M95.9267 219.006L65.8369 201.611C65.345 201.283 64.9351 200.545 64.9351 199.888C64.9351 199.232 65.345 198.904 65.8369 199.232L95.9267 216.626C96.4186 216.954 96.8286 217.693 96.8286 218.349C96.8286 219.006 96.4186 219.334 95.9267 219.006Z" fill="white"/>
  <path d="M130.69 239.108L100.6 221.713C100.108 221.385 99.6982 220.647 99.6982 219.99C99.6982 219.334 100.108 219.006 100.6 219.334L130.69 236.728C131.182 237.056 131.592 237.795 131.592 238.451C131.674 239.108 131.182 239.436 130.69 239.108Z" fill="#FC66FD"/>
  <path d="M141.348 245.261L136.101 242.225C135.609 241.897 135.199 241.159 135.199 240.502C135.199 239.846 135.609 239.518 136.101 239.846L141.348 242.882C141.84 243.21 142.25 243.948 142.25 244.605C142.25 245.261 141.84 245.589 141.348 245.261Z" fill="#FEAD6F"/>
  <path d="M164.059 258.389L146.022 247.969C145.53 247.641 145.12 246.902 145.12 246.246C145.12 245.589 145.53 245.261 146.022 245.589L164.059 256.01C164.551 256.338 164.961 257.076 164.961 257.733C165.043 258.389 164.633 258.717 164.059 258.389Z" fill="white"/>
  <path d="M54.3584 173.058L53.3745 172.484C52.8826 172.156 52.4727 171.417 52.4727 170.761C52.4727 170.105 52.8826 169.776 53.3745 170.105L54.3584 170.679C54.8503 171.007 55.2603 171.746 55.2603 172.402C55.2603 172.976 54.8503 173.304 54.3584 173.058Z" fill="#333A48"/>
  <path d="M54.3584 180.361L53.3745 179.786C52.8826 179.458 52.4727 178.72 52.4727 178.063C52.4727 177.407 52.8826 177.079 53.3745 177.407L54.3584 177.981C54.8503 178.309 55.2603 179.048 55.2603 179.704C55.2603 180.361 54.8503 180.689 54.3584 180.361Z" fill="#333A48"/>
  <path d="M54.3584 187.663L53.3745 187.089C52.8826 186.76 52.4727 186.022 52.4727 185.366C52.4727 184.709 52.8826 184.381 53.3745 184.709L54.3584 185.284C54.8503 185.612 55.2603 186.35 55.2603 187.007C55.2603 187.663 54.8503 187.991 54.3584 187.663Z" fill="#333A48"/>
  <path d="M54.0307 194.801L53.0469 194.227C52.555 193.899 52.145 193.16 52.145 192.504C52.145 191.847 52.555 191.519 53.0469 191.847L54.0307 192.422C54.5227 192.75 54.9326 193.488 54.9326 194.145C54.9326 194.801 54.5227 195.129 54.0307 194.801Z" fill="#333A48"/>
  <path d="M87.9997 276.195C88.0153 273.25 83.8806 270.84 78.7637 270.812C73.6468 270.784 69.4858 273.149 69.4703 276.095C69.4539 279.041 73.5894 281.45 78.7063 281.478C83.8224 281.506 87.9833 279.141 87.9997 276.195Z" fill="#666B76"/>
  <path d="M87.9914 274.644C88.0078 271.699 83.8723 269.288 78.7554 269.261C73.6393 269.233 69.4784 271.598 69.462 274.543C69.4464 277.489 73.5811 279.9 78.698 279.928C83.8149 279.955 87.9758 277.59 87.9914 274.644Z" fill="#0B1223"/>
  <path d="M24.7605 77.7177L14.02 71.482C13.5281 71.1538 13.1182 70.4153 13.1182 69.759C13.1182 69.1026 13.5281 68.7744 14.02 69.1026L24.7605 75.3383C25.2525 75.6665 25.6624 76.4049 25.6624 77.0613C25.6624 77.7177 25.2525 78.0459 24.7605 77.7177Z" fill="#666B76"/>
  <path d="M20.4971 83.379L14.02 79.6047C13.5281 79.2766 13.1182 78.5381 13.1182 77.8817C13.1182 77.2253 13.5281 76.8971 14.02 77.2253L20.4971 80.9996C20.9891 81.3278 21.399 82.0662 21.399 82.7226C21.399 83.379 20.9891 83.7072 20.4971 83.379Z" fill="#666B76"/>
  <path d="M31.8936 89.9429L25.4165 86.1687C24.9246 85.8405 24.5146 85.1021 24.5146 84.4457C24.5146 83.7893 24.9246 83.4611 25.4165 83.7893L31.8936 87.5635C32.3856 87.8917 32.7955 88.6301 32.7955 89.2865C32.7955 89.9429 32.3856 90.2711 31.8936 89.9429Z" fill="#666B76"/>
  <path d="M9.72194 69.2609C10.4254 68.8491 10.4213 67.5322 9.71292 66.3195C9.00454 65.1068 7.85998 64.457 7.15652 64.8689C6.45224 65.2808 6.45633 66.5976 7.16472 67.8103C7.8731 69.023 9.01766 69.672 9.72194 69.2609Z" fill="#666B76"/>
  <path d="M26.1543 139.09L13.938 132.034C13.4461 131.706 13.0361 130.967 13.0361 130.311C13.0361 129.655 13.4461 129.326 13.938 129.655L26.1543 136.711C26.6462 137.039 27.0562 137.777 27.0562 138.434C27.0562 139.09 26.6462 139.418 26.1543 139.09Z" fill="#666B76"/>
  <path d="M32.5494 150.987L13.938 140.239C13.4461 139.911 13.0361 139.172 13.0361 138.516C13.0361 137.859 13.4461 137.531 13.938 137.859L32.5494 148.608C33.0413 148.936 33.4513 149.674 33.4513 150.331C33.4513 150.905 33.0413 151.233 32.5494 150.987Z" fill="#666B76"/>
  <path d="M9.74604 129.879C10.4495 129.467 10.4454 128.15 9.73703 126.937C9.02865 125.724 7.88408 125.075 7.18062 125.486C6.47716 125.898 6.48045 127.215 7.18883 128.428C7.89803 129.641 9.04258 130.29 9.74604 129.879Z" fill="#666B76"/>
  <path d="M33.3694 112.835L14.1021 101.676C13.6101 101.348 13.2002 100.609 13.2002 99.9529C13.2002 99.2965 13.6101 98.9683 14.1021 99.2965L33.3694 110.455C33.8613 110.783 34.2712 111.522 34.2712 112.178C34.2712 112.835 33.8613 113.163 33.3694 112.835Z" fill="#666B76"/>
  <path d="M20.5792 113.655L14.1021 109.881C13.6101 109.553 13.2002 108.814 13.2002 108.158C13.2002 107.501 13.6101 107.173 14.1021 107.501L20.5792 111.276C21.0711 111.604 21.481 112.342 21.481 112.999C21.481 113.573 21.0711 113.901 20.5792 113.655Z" fill="#666B76"/>
  <path d="M27.7122 117.758L25.4986 116.445C25.0066 116.117 24.5967 115.378 24.5967 114.722C24.5967 114.065 25.0066 113.737 25.4986 114.065L27.7122 115.378C28.2042 115.706 28.6141 116.445 28.6141 117.101C28.6141 117.675 28.2042 118.004 27.7122 117.758Z" fill="#666B76"/>
  <path d="M9.83286 99.532C10.5363 99.1201 10.533 97.8032 9.82384 96.5905C9.11545 95.3779 7.9709 94.7289 7.26744 95.1399C6.56397 95.5518 6.56726 96.8687 7.27646 98.0814C7.98484 99.294 9.12939 99.9439 9.83286 99.532Z" fill="#666B76"/>
  <path d="M5.40062 99.2095L118.008 164.246C119.569 165.15 120.883 167.37 120.883 169.179V268.912C120.883 270.721 119.569 271.461 118.008 270.556L5.40062 205.52C3.84005 204.616 2.52588 202.396 2.52588 200.587V100.854C2.60801 99.0451 3.84005 98.3051 5.40062 99.2095Z" fill="#666B76"/>
  <path d="M3.75755 100.032L116.365 165.068C117.926 165.972 119.24 168.192 119.24 170.001V269.734C119.24 271.543 117.926 272.283 116.365 271.379L3.75755 206.342C2.19697 205.438 0.882812 203.218 0.882812 201.409V101.676C0.964948 99.8673 2.19697 99.1273 3.75755 100.032Z" fill="url(#paint4_linear)"/>
  <path d="M29.4543 132.532L22.3191 128.429C21.745 128.101 21.2529 127.28 21.2529 126.623C21.2529 125.967 21.745 125.639 22.3191 126.049L29.4543 130.152C30.0284 130.481 30.5205 131.301 30.5205 131.958C30.5205 132.614 30.0284 132.861 29.4543 132.532Z" fill="white"/>
  <path d="M51.434 152.556L22.3191 135.733C21.745 135.405 21.2529 134.584 21.2529 133.927C21.2529 133.271 21.745 132.943 22.3191 133.353L51.434 150.177C52.0081 150.505 52.5002 151.325 52.5002 151.982C52.5002 152.639 52.0901 152.967 51.434 152.556Z" fill="white"/>
  <path d="M43.6427 184.808L22.3191 172.499C21.745 172.17 21.2529 171.35 21.2529 170.693C21.2529 170.037 21.745 169.708 22.3191 170.119L43.6427 182.429C44.2168 182.757 44.7088 183.578 44.7088 184.234C44.7088 184.809 44.2168 185.137 43.6427 184.808Z" fill="white"/>
  <path d="M40.1163 197.365L28.0603 190.389C27.4862 190.061 26.9941 189.24 26.9941 188.584C26.9941 187.927 27.4862 187.599 28.0603 188.009L40.1163 194.985C40.6904 195.313 41.1825 196.134 41.1825 196.79C41.1825 197.447 40.6904 197.775 40.1163 197.365Z" fill="white"/>
  <path d="M89.8164 226.088L45.0369 200.237C44.4628 199.909 43.9707 199.088 43.9707 198.432C43.9707 197.775 44.4628 197.447 45.0369 197.857L89.8164 223.708C90.3905 224.036 90.8825 224.857 90.8825 225.513C90.8825 226.17 90.3905 226.498 89.8164 226.088Z" fill="white"/>
  <path d="M62.0957 202.781L22.3191 179.802C21.745 179.474 21.2529 178.654 21.2529 177.997C21.2529 177.34 21.745 177.012 22.3191 177.423L62.0957 200.401C62.6698 200.729 63.1619 201.55 63.1619 202.207C63.1619 202.863 62.6698 203.109 62.0957 202.781Z" fill="white"/>
  <path d="M80.5491 213.45L67.0169 205.653C66.4428 205.325 65.9507 204.504 65.9507 203.848C65.9507 203.191 66.4428 202.863 67.0169 203.273L80.5491 211.07C81.1232 211.398 81.6153 212.219 81.6153 212.875C81.6153 213.532 81.2052 213.778 80.5491 213.45Z" fill="#FEAD6F"/>
  <path d="M29.4543 205.9L22.3191 201.796C21.745 201.468 21.2529 200.647 21.2529 199.991C21.2529 199.334 21.745 199.006 22.3191 199.416L29.4543 203.52C30.0284 203.848 30.5205 204.669 30.5205 205.325C30.5205 205.982 30.0284 206.228 29.4543 205.9Z" fill="white"/>
  <path d="M43.6428 214.106L34.3753 208.772C33.8012 208.444 33.3091 207.623 33.3091 206.966C33.3091 206.31 33.8012 205.982 34.3753 206.392L43.6428 211.726C44.2169 212.055 44.709 212.875 44.709 213.532C44.709 214.188 44.2169 214.434 43.6428 214.106Z" fill="#FC66FD"/>
  <path d="M60.7018 223.954L48.6458 216.979C48.0717 216.65 47.5796 215.83 47.5796 215.173C47.5796 214.517 48.0717 214.188 48.6458 214.599L60.7018 221.574C61.2759 221.903 61.768 222.723 61.768 223.38C61.768 224.036 61.2759 224.282 60.7018 223.954Z" fill="#34C2C8"/>
  <path d="M66.36 227.237L65.6218 226.827C65.0478 226.498 64.5557 225.678 64.5557 225.021C64.5557 224.365 65.0478 224.036 65.6218 224.447L66.36 224.857C66.9341 225.185 67.4262 226.006 67.4262 226.662C67.4262 227.319 66.9341 227.565 66.36 227.237Z" fill="white"/>
  <path d="M80.5486 235.443L71.281 230.109C70.7069 229.781 70.2148 228.96 70.2148 228.304C70.2148 227.647 70.7069 227.319 71.281 227.729L80.5486 233.064C81.1227 233.392 81.6147 234.212 81.6147 234.869C81.6147 235.525 81.2047 235.772 80.5486 235.443Z" fill="white"/>
  <path d="M64.2283 196.708L48.5637 187.681C47.9896 187.353 47.4976 186.532 47.4976 185.875C47.4976 185.219 47.9896 184.891 48.5637 185.301L64.2283 194.328C64.8024 194.656 65.2945 195.477 65.2945 196.134C65.2945 196.708 64.8024 197.036 64.2283 196.708Z" fill="white"/>
  <path d="M47.1693 172.17L22.3191 157.809C21.745 157.48 21.2529 156.66 21.2529 156.003C21.2529 155.347 21.745 155.018 22.3191 155.429L47.1693 169.79C47.7433 170.119 48.2354 170.939 48.2354 171.596C48.2354 172.252 47.8254 172.499 47.1693 172.17Z" fill="white"/>
  <path d="M59.3073 179.146L52.1721 175.043C51.598 174.714 51.106 173.894 51.106 173.237C51.106 172.581 51.598 172.252 52.1721 172.663L59.3073 176.766C59.8814 177.094 60.3735 177.915 60.3735 178.571C60.3735 179.228 59.8814 179.474 59.3073 179.146Z" fill="white"/>
  <path d="M77.0224 189.404L64.2283 182.018C63.6542 181.69 63.1621 180.869 63.1621 180.213C63.1621 179.556 63.6542 179.228 64.2283 179.638L77.0224 187.024C77.5965 187.353 78.0886 188.173 78.0886 188.83C78.0886 189.486 77.5965 189.733 77.0224 189.404Z" fill="white"/>
  <path d="M27.3219 145.991L22.3191 143.119C21.745 142.791 21.2529 141.97 21.2529 141.313C21.2529 140.657 21.745 140.329 22.3191 140.739L27.3219 143.611C27.896 143.94 28.3881 144.76 28.3881 145.417C28.3881 146.073 27.896 146.319 27.3219 145.991Z" fill="white"/>
  <path d="M49.3018 158.711L32.2429 148.863C31.6688 148.535 31.1768 147.715 31.1768 147.058C31.1768 146.401 31.6688 146.073 32.2429 146.484L49.3018 156.331C49.8759 156.66 50.368 157.48 50.368 158.137C50.368 158.793 49.9579 159.04 49.3018 158.711Z" fill="white"/>
  <path d="M67.0986 168.97L54.3044 161.584C53.7304 161.256 53.2383 160.435 53.2383 159.778C53.2383 159.122 53.7304 158.794 54.3044 159.204L67.0986 166.59C67.6727 166.918 68.1648 167.739 68.1648 168.395C68.1648 169.052 67.6727 169.298 67.0986 168.97Z" fill="#FE7F77"/>
  <path d="M72.7574 172.252L72.0193 171.842C71.4452 171.514 70.9531 170.693 70.9531 170.037C70.9531 169.38 71.4452 169.052 72.0193 169.462L72.7574 169.872C73.3315 170.201 73.8236 171.021 73.8236 171.678C73.8236 172.334 73.3315 172.581 72.7574 172.252Z" fill="white"/>
  <path d="M40.8545 161.091L28.0603 153.705C27.4862 153.377 26.9941 152.556 26.9941 151.9C26.9941 151.243 27.4862 150.915 28.0603 151.325L40.8545 158.711C41.4285 159.04 41.9206 159.86 41.9206 160.517C41.8386 161.173 41.4285 161.42 40.8545 161.091Z" fill="white"/>
  <path d="M78.4166 182.839L45.7752 163.964C45.2011 163.635 44.709 162.815 44.709 162.158C44.709 161.502 45.2011 161.173 45.7752 161.584L78.4166 180.459C78.9907 180.787 79.4828 181.608 79.4828 182.265C79.4828 182.921 79.0727 183.167 78.4166 182.839Z" fill="#50D9F9"/>
  <path d="M88.422 188.584L83.4192 185.711C82.8451 185.383 82.353 184.562 82.353 183.906C82.353 183.249 82.8451 182.921 83.4192 183.331L88.422 186.204C88.9961 186.532 89.4882 187.353 89.4882 188.009C89.4882 188.666 88.9961 188.912 88.422 188.584Z" fill="#FEAD6F"/>
  <path d="M15.922 124.736L15.1839 124.326C14.6098 123.997 14.1177 123.177 14.1177 122.52C14.1177 121.864 14.6098 121.535 15.1839 121.946L15.922 122.356C16.4961 122.684 16.9882 123.505 16.9882 124.161C16.9882 124.818 16.5781 125.064 15.922 124.736Z" fill="#666B76"/>
  <path d="M15.922 132.04L15.1839 131.63C14.6098 131.301 14.1177 130.481 14.1177 129.824C14.1177 129.168 14.6098 128.839 15.1839 129.25L15.922 129.66C16.4961 129.988 16.9882 130.809 16.9882 131.465C16.9882 132.122 16.5781 132.45 15.922 132.04Z" fill="#666B76"/>
  <path d="M15.922 139.426L15.1839 139.015C14.6098 138.687 14.1177 137.867 14.1177 137.21C14.1177 136.553 14.6098 136.225 15.1839 136.636L15.922 137.046C16.4961 137.374 16.9882 138.195 16.9882 138.851C16.9882 139.508 16.5781 139.754 15.922 139.426Z" fill="#666B76"/>
  <path d="M15.922 146.73L15.1839 146.319C14.6098 145.991 14.1177 145.171 14.1177 144.514C14.1177 143.857 14.6098 143.529 15.1839 143.94L15.922 144.35C16.4961 144.678 16.9882 145.499 16.9882 146.155C16.9882 146.812 16.5781 147.058 15.922 146.73Z" fill="#666B76"/>
  <path d="M15.922 154.116L15.1839 153.705C14.6098 153.377 14.1177 152.556 14.1177 151.9C14.1177 151.243 14.6098 150.915 15.1839 151.325L15.922 151.736C16.4961 152.064 16.9882 152.885 16.9882 153.541C16.9882 154.198 16.5781 154.444 15.922 154.116Z" fill="#666B76"/>
  <path d="M15.922 161.42L15.1839 161.009C14.6098 160.681 14.1177 159.86 14.1177 159.204C14.1177 158.547 14.6098 158.219 15.1839 158.629L15.922 159.04C16.4961 159.368 16.9882 160.189 16.9882 160.845C16.9882 161.502 16.5781 161.748 15.922 161.42Z" fill="#666B76"/>
  <path d="M15.922 168.806L15.1839 168.395C14.6098 168.067 14.1177 167.246 14.1177 166.59C14.1177 165.933 14.6098 165.605 15.1839 166.015L15.922 166.426C16.4961 166.754 16.9882 167.575 16.9882 168.231C16.9882 168.806 16.5781 169.134 15.922 168.806Z" fill="#666B76"/>
  <path d="M15.922 176.109L15.1839 175.699C14.6098 175.371 14.1177 174.55 14.1177 173.894C14.1177 173.237 14.6098 172.909 15.1839 173.319L15.922 173.73C16.4961 174.058 16.9882 174.878 16.9882 175.535C16.9882 176.192 16.5781 176.438 15.922 176.109Z" fill="#666B76"/>
  <path d="M15.922 183.413L15.1839 183.003C14.6098 182.675 14.1177 181.854 14.1177 181.198C14.1177 180.541 14.6098 180.213 15.1839 180.623L15.922 181.033C16.4961 181.362 16.9882 182.182 16.9882 182.839C16.9882 183.495 16.5781 183.824 15.922 183.413Z" fill="#666B76"/>
  <path d="M15.922 190.799L15.1839 190.389C14.6098 190.061 14.1177 189.24 14.1177 188.584C14.1177 187.927 14.6098 187.599 15.1839 188.009L15.922 188.419C16.4961 188.748 16.9882 189.568 16.9882 190.225C16.9882 190.881 16.5781 191.128 15.922 190.799Z" fill="#666B76"/>
  <path d="M15.922 198.103L15.1839 197.693C14.6098 197.365 14.1177 196.544 14.1177 195.887C14.1177 195.231 14.6098 194.903 15.1839 195.313L15.922 195.723C16.4961 196.052 16.9882 196.872 16.9882 197.529C16.9882 198.185 16.5781 198.432 15.922 198.103Z" fill="#666B76"/>
  <path d="M4.30225 59.3823V83.2137C4.30225 85.0216 5.62644 87.2404 7.19892 88.1444L54.4562 115.263C56.0287 116.167 57.3529 115.427 57.3529 113.619V89.7879C57.3529 87.98 56.0287 85.7612 54.4562 84.8573L7.19892 57.7387C5.54368 56.8348 4.30225 57.5744 4.30225 59.3823Z" fill="#80848D"/>
  <path d="M2.64697 60.2041V84.0355C2.64697 85.8435 3.97117 88.0622 5.54365 88.9662L52.8009 116.085C54.3734 116.989 55.6976 116.249 55.6976 114.441V90.6098C55.6976 88.8018 54.3734 86.5831 52.8009 85.6791L5.54365 58.5605C3.88841 57.6566 2.64697 58.3962 2.64697 60.2041Z" fill="#4D535F"/>
  <path d="M33.4343 86.8295L16.7991 77.2969C16.3025 76.9682 15.8887 76.2286 15.8887 75.5712C15.8887 74.9138 16.3025 74.5851 16.7991 74.9138L33.4343 84.4464C33.9308 84.7751 34.3447 85.5147 34.3447 86.1721C34.3447 86.8295 33.9308 87.1583 33.4343 86.8295Z" fill="white"/>
  <path d="M22.6752 88.8839L16.7991 85.5147C16.3025 85.186 15.8887 84.4464 15.8887 83.7889C15.8887 83.1315 16.3025 82.8028 16.7991 83.1315L22.6752 86.5008C23.1717 86.8295 23.5856 87.5691 23.5856 88.2265C23.5856 88.8018 23.1717 89.1305 22.6752 88.8839Z" fill="white"/>
  <path d="M36.9932 97.1017L27.5583 91.678C27.0618 91.3493 26.6479 90.6097 26.6479 89.9523C26.6479 89.2949 27.0618 88.9661 27.5583 89.2948L36.9932 94.7186C37.4898 95.0473 37.9036 95.7869 37.9036 96.4443C37.9036 97.0195 37.4898 97.3482 36.9932 97.1017Z" fill="white"/>
  <path d="M12.4535 75.0806C13.1644 74.6681 13.1603 73.3491 12.4452 72.1345C11.7302 70.9199 10.574 70.2699 9.86388 70.6816C9.15378 71.0941 9.15792 72.4131 9.87299 73.6277C10.5881 74.8423 11.7434 75.4931 12.4535 75.0806Z" fill="white"/>
  <path d="M170.823 195L144.706 210.263V255.97L183.882 278.824L210 263.56V217.853L170.823 195Z" fill="#F7DF1E"/>
  <path d="M170.823 195L210 217.853L183.882 233.117L144.706 210.263L170.823 195Z" fill="url(#paint5_linear)"/>
  <path d="M144.706 255.97V210.263L183.882 233.117V278.824L144.706 255.97Z" fill="#F7DF1E"/>
  <path d="M209.999 217.853V263.56L183.882 278.823V233.117L209.999 217.853Z" fill="url(#paint6_linear)"/>
  <path d="M154.989 254.237L158.009 253.907C158.58 255.475 159.152 256.713 160.376 257.455C161.6 258.198 162.335 258.033 162.335 255.888V241.367L166.008 243.512V258.115C166.008 262.57 163.804 263.23 160.539 261.333C157.601 259.683 155.887 256.878 154.989 254.237ZM168.048 261.415L171.068 261.168C171.884 263.148 172.864 264.798 174.659 265.87C176.21 266.778 177.189 266.448 177.189 265.21C177.189 263.725 176.21 262.653 174.496 260.838L173.598 259.848C170.905 256.96 169.191 254.32 169.191 250.855C169.191 247.637 171.313 246.4 174.577 248.38C176.944 249.782 178.577 251.68 179.801 254.815L176.944 255.31C176.291 253.66 175.639 252.752 174.577 252.092C173.516 251.432 172.782 251.845 172.782 252.917C172.782 254.237 173.435 255.145 175.067 256.795L175.965 257.785C179.066 261.168 180.862 263.808 180.862 267.356C180.862 271.233 178.25 271.811 174.741 269.748C171.313 267.686 169.109 264.468 168.048 261.415Z" fill="black"/>
  <defs>
    <linearGradient id="paint0_linear" x1="203.425" y1="240.651" x2="203.425" y2="119.505" gradientUnits="userSpaceOnUse">
      <stop stop-color="#000919"/>
      <stop offset="1" stop-color="#333A48"/>
    </linearGradient>
    <linearGradient id="paint1_linear" x1="1.27607" y1="57.4967" x2="202.846" y2="57.4967" gradientUnits="userSpaceOnUse">
      <stop stop-color="#4D535F"/>
      <stop offset="1" stop-color="#333A48"/>
    </linearGradient>
    <linearGradient id="paint2_linear" x1="91.8149" y1="298.284" x2="91.8149" y2="59.8943" gradientUnits="userSpaceOnUse">
      <stop/>
      <stop offset="1" stop-color="#000919"/>
    </linearGradient>
    <linearGradient id="paint3_linear" x1="112.953" y1="222.437" x2="99.82" y2="245.166" gradientUnits="userSpaceOnUse">
      <stop/>
      <stop offset="1" stop-color="#070E20"/>
    </linearGradient>
    <linearGradient id="paint4_linear" x1="0.952628" y1="185.693" x2="119.228" y2="185.693" gradientUnits="userSpaceOnUse">
      <stop stop-color="#333A48"/>
      <stop offset="1" stop-color="#1A2231"/>
    </linearGradient>
    <linearGradient id="paint5_linear" x1="151.231" y1="198.817" x2="203.73" y2="228.803" gradientUnits="userSpaceOnUse">
      <stop stop-color="#F2FF12"/>
      <stop offset="1" stop-color="#F7DF1E"/>
    </linearGradient>
    <linearGradient id="paint6_linear" x1="206.726" y1="265.478" x2="186.819" y2="231.368" gradientUnits="userSpaceOnUse">
      <stop stop-color="#F7DF1E"/>
      <stop offset="1" stop-color="#FEAD6F"/>
    </linearGradient>
  </defs>
</svg>
